<svg id="Layer_1" data-name="Layer 1" xmlns="http://www.w3.org/2000/svg" viewBox="0 0 612 580.57"><defs><style>.cls-1{fill:#fff;}.cls-2{fill:#dcdcdb;}.cls-3{fill:#e0f2f7;stroke:#231f20;stroke-miterlimit:10;opacity:0.5;}.cls-4{font-size:16.5px;fill:#262626;font-family:Raleway-ExtraBoldItalic, Raleway;font-weight:800;font-style:italic;letter-spacing:2.67em;}.cls-5{letter-spacing:0.04em;}.cls-6{letter-spacing:0.01em;}.cls-7{letter-spacing:0.01em;}.cls-8{letter-spacing:0.03em;}.cls-9{letter-spacing:0.02em;}.cls-10{letter-spacing:0em;}.cls-11{letter-spacing:-0.02em;}.cls-12{letter-spacing:0em;}.cls-13{letter-spacing:0.04em;}.cls-14{letter-spacing:0.03em;}.cls-15{letter-spacing:0.01em;}.cls-16{letter-spacing:0.03em;}.cls-17{letter-spacing:0.03em;}.cls-18{letter-spacing:0.03em;}.cls-19{letter-spacing:0.03em;}.cls-20{letter-spacing:0.02em;}.cls-21{letter-spacing:0.01em;}.cls-22{letter-spacing:0.03em;}.cls-23{letter-spacing:0.04em;}.cls-24{letter-spacing:0.04em;}.cls-25{letter-spacing:0.01em;}.cls-26{letter-spacing:0.02em;}.cls-27{letter-spacing:0.03em;}.cls-28{letter-spacing:0.01em;}.cls-29{letter-spacing:-0.02em;}.cls-30{letter-spacing:0.02em;}.cls-31{letter-spacing:0.03em;}.cls-32{letter-spacing:0.03em;}.cls-33{letter-spacing:0.01em;}.cls-34{letter-spacing:0.03em;}.cls-35{letter-spacing:0.02em;}.cls-36{letter-spacing:0.03em;}.cls-37{letter-spacing:0.03em;}.cls-38{letter-spacing:-0.01em;}.cls-39{letter-spacing:0.02em;}.cls-40{letter-spacing:0.03em;}.cls-41{letter-spacing:0.02em;}.cls-42{letter-spacing:0.03em;}.cls-43{letter-spacing:0.01em;}.cls-44{letter-spacing:0.01em;}.cls-45{letter-spacing:-0.07em;}.cls-46{letter-spacing:0.03em;}.cls-47{letter-spacing:0.03em;}.cls-48{letter-spacing:0.03em;}.cls-49{letter-spacing:0.03em;}.cls-50{letter-spacing:0.03em;}.cls-51{letter-spacing:0.02em;}.cls-52{letter-spacing:0.04em;}.cls-53{letter-spacing:0.03em;}.cls-54{letter-spacing:0em;}.cls-55{letter-spacing:-0.02em;}.cls-56{letter-spacing:0.02em;}.cls-57{letter-spacing:0.03em;}.cls-58{letter-spacing:0.01em;}</style></defs><title>Account 01 of 02</title><path class="cls-1" d="M169.92,428.4a4.8,4.8,0,0,1,0,.52l6.5-.58Z"/><path class="cls-1" d="M103.44,475.66q1.64-1.86,3.43-3.59l-9.65,1.28A47.91,47.91,0,0,0,103.44,475.66Z"/><path class="cls-2" d="M169.87,428.92l6.5-.58-6.45.06A4.8,4.8,0,0,1,169.87,428.92Z"/><path class="cls-1" d="M169.87,428.92l6.5-.58-6.45.06A4.8,4.8,0,0,1,169.87,428.92Z"/><rect class="cls-3" x="1.29" y="-0.15" width="610.71" height="580.72"/><text class="cls-4" transform="translate(45.52 30.22) scale(0.51 1)"><tspan xml:space="preserve">									</tspan><tspan class="cls-5" x="429.93" y="0" xml:space="preserve">  USER</tspan><tspan class="cls-6" x="483.09" y="0"> </tspan><tspan class="cls-7" x="487.08" y="0">A</tspan><tspan class="cls-8" x="497.77" y="0">CC</tspan><tspan class="cls-5" x="520.63" y="0">OUN</tspan><tspan class="cls-9" x="558.46" y="0">T</tspan><tspan class="cls-6" x="568.62" y="0"> </tspan><tspan class="cls-5" x="572.62" y="0">AND</tspan><tspan class="cls-10" x="608.53" y="0"> </tspan><tspan class="cls-11" x="612.34" y="0">W</tspan><tspan class="cls-5" x="628.53" y="0">ALLE</tspan><tspan class="cls-9" x="669.69" y="0">T</tspan><tspan x="0" y="22" xml:space="preserve">										</tspan><tspan class="cls-5" x="477.7" y="22" xml:space="preserve">      M</tspan><tspan class="cls-12" x="518.47" y="22">Y</tspan><tspan class="cls-13" x="528.83" y="22" xml:space="preserve"> PROFILE </tspan><tspan class="cls-14"><tspan x="0" y="63.79">U</tspan><tspan class="cls-13" x="12.34" y="63.79">se</tspan><tspan class="cls-9" x="30.75" y="63.79">r</tspan><tspan class="cls-13" x="37.55" y="63.79" xml:space="preserve"> persona</tspan><tspan class="cls-15" x="110.14" y="63.79">l</tspan><tspan class="cls-5" x="115.71" y="63.79"> </tspan><tspan class="cls-16" x="120.13" y="63.79">c</tspan><tspan class="cls-5" x="129.72" y="63.79">o</tspan><tspan class="cls-17" x="140.1" y="63.79">n</tspan><tspan class="cls-18" x="150.39" y="63.79">t</tspan><tspan class="cls-13" x="157.27" y="63.79">act i</tspan><tspan class="cls-19" x="194.59" y="63.79">n</tspan><tspan class="cls-20" x="204.9" y="63.79">f</tspan><tspan class="cls-5" x="211.43" y="63.79">ormation </tspan><tspan class="cls-18" x="292.73" y="63.79">t</tspan><tspan class="cls-5" x="299.61" y="63.79">o be used </tspan><tspan class="cls-18" x="384.04" y="63.79">t</tspan><tspan class="cls-5" x="390.92" y="63.79">o</tspan><tspan class="cls-21" x="401.3" y="63.79"> </tspan><tspan x="405.26" y="63.79">v</tspan><tspan class="cls-13" x="414.61" y="63.79">erif</tspan><tspan class="cls-9" x="443.42" y="63.79">y</tspan><tspan class="cls-5" x="452.51" y="63.79"> </tspan><tspan x="456.93" y="63.79">U</tspan><tspan class="cls-13" x="469.27" y="63.79">ser</tspan><tspan class="cls-22" x="494.78" y="63.79">’</tspan><tspan class="cls-13" x="499.49" y="63.79">s </tspan><tspan x="512.49" y="63.79">I</tspan><tspan class="cls-13" x="517.95" y="63.79">de</tspan><tspan class="cls-16" x="538.87" y="63.79">n</tspan><tspan class="cls-23" x="549.17" y="63.79">tit</tspan><tspan class="cls-20" x="568.4" y="63.79">y</tspan><tspan class="cls-5" x="577.49" y="63.79"> </tspan><tspan class="cls-20" x="581.91" y="63.79">f</tspan><tspan class="cls-24" x="588.45" y="63.79">o</tspan><tspan class="cls-20" x="598.83" y="63.79">r</tspan><tspan class="cls-25" x="605.62" y="63.79"> </tspan><tspan class="cls-26" x="609.61" y="63.79">A</tspan><tspan class="cls-17" x="620.54" y="63.79">cc</tspan><tspan class="cls-5" x="639.71" y="63.79">ou</tspan><tspan class="cls-27" x="660.71" y="63.79">n</tspan><tspan class="cls-5" x="671" y="63.79">ts a</tspan><tspan class="cls-17" x="702.18" y="63.79">cc</tspan><tspan class="cls-5" x="721.35" y="63.79">ess. </tspan></tspan><tspan class="cls-5"><tspan x="0" y="84.69">Must be a</tspan><tspan class="cls-16" x="81.13" y="84.69">c</tspan><tspan x="90.72" y="84.69">cu</tspan><tspan class="cls-28" x="111.01" y="84.69">r</tspan><tspan class="cls-13" x="117.71" y="84.69">a</tspan><tspan class="cls-18" x="128.8" y="84.69">t</tspan><tspan class="cls-13" x="135.68" y="84.69">e and same as</tspan><tspan class="cls-10" x="255.91" y="84.69"> </tspan><tspan class="cls-29" x="259.72" y="84.69">V</tspan><tspan x="270.05" y="84.69">alid G</tspan><tspan class="cls-30" x="319.93" y="84.69">o</tspan><tspan class="cls-31" x="330.03" y="84.69">v</tspan><tspan x="339.39" y="84.69">ernme</tspan><tspan class="cls-17" x="391.95" y="84.69">n</tspan><tspan class="cls-13" x="402.24" y="84.69">t issue </tspan><tspan class="cls-14" x="460.84" y="84.69">I</tspan><tspan class="cls-13" x="466.3" y="84.69">de</tspan><tspan class="cls-17" x="487.22" y="84.69">n</tspan><tspan class="cls-13" x="497.51" y="84.69">tifi</tspan><tspan class="cls-17" x="519.8" y="84.69">c</tspan><tspan class="cls-13" x="529.39" y="84.69">ation </tspan><tspan class="cls-32" x="577.79" y="84.69">t</tspan><tspan x="584.67" y="84.69">o</tspan><tspan class="cls-33" x="595.05" y="84.69"> </tspan><tspan class="cls-34" x="599.01" y="84.69">v</tspan><tspan x="608.36" y="84.69">alida</tspan><tspan class="cls-35" x="652.67" y="84.69">t</tspan><tspan class="cls-24" x="659.55" y="84.69">e ide</tspan><tspan class="cls-17" x="699.77" y="84.69">n</tspan><tspan x="710.06" y="84.69">tit</tspan><tspan class="cls-20" x="729.3" y="84.69">y</tspan><tspan x="738.39" y="84.69" xml:space="preserve"> and </tspan><tspan class="cls-20" x="779.78" y="84.69">f</tspan><tspan class="cls-24" x="786.32" y="84.69">o</tspan><tspan class="cls-20" x="796.69" y="84.69">r</tspan><tspan class="cls-23" x="803.49" y="84.69" xml:space="preserve"> c</tspan><tspan class="cls-36" x="817.58" y="84.69">l</tspan><tspan x="823.48" y="84.69">aiming pri</tspan><tspan class="cls-37" x="908.68" y="84.69">z</tspan><tspan class="cls-24" x="916.91" y="84.69">es. </tspan></tspan><tspan class="cls-38"><tspan x="0" y="105.58">F</tspan><tspan class="cls-28" x="8.88" y="105.58">r</tspan><tspan class="cls-5" x="15.57" y="105.58">audu</tspan><tspan class="cls-16" x="58.99" y="105.58">l</tspan><tspan class="cls-13" x="64.92" y="105.58">e</tspan><tspan class="cls-17" x="74.75" y="105.58">n</tspan><tspan class="cls-13" x="85.04" y="105.58">t activit</tspan><tspan class="cls-9" x="151.07" y="105.58">y</tspan><tspan class="cls-13" x="160.16" y="105.58" xml:space="preserve"> o</tspan><tspan class="cls-9" x="174.96" y="105.58">r</tspan><tspan class="cls-13" x="181.75" y="105.58" xml:space="preserve"> mis use </tspan><tspan class="cls-22" x="253.1" y="105.58">o</tspan><tspan class="cls-39" x="263.35" y="105.58">f</tspan><tspan class="cls-5" x="269.91" y="105.58" xml:space="preserve"> the a</tspan><tspan class="cls-16" x="317.15" y="105.58">cc</tspan><tspan class="cls-5" x="336.32" y="105.58">ou</tspan><tspan class="cls-17" x="357.32" y="105.58">n</tspan><tspan class="cls-13" x="367.61" y="105.58">t</tspan><tspan class="cls-33" x="374.71" y="105.58"> </tspan><tspan class="cls-5" x="378.67" y="105.58">wil</tspan><tspan class="cls-6" x="403.58" y="105.58">l</tspan><tspan class="cls-13" x="409.15" y="105.58"> </tspan><tspan class="cls-6" x="413.57" y="105.58">r</tspan><tspan class="cls-13" x="420.24" y="105.58">esult in </tspan><tspan class="cls-16" x="486.64" y="105.58">c</tspan><tspan class="cls-5" x="496.23" y="105.58">an</tspan><tspan class="cls-17" x="517.69" y="105.58">c</tspan><tspan class="cls-24" x="527.27" y="105.58">e</tspan><tspan class="cls-8" x="537.11" y="105.58">l</tspan><tspan class="cls-5" x="543.01" y="105.58">ation </tspan><tspan class="cls-40" x="591.41" y="105.58">o</tspan><tspan class="cls-41" x="601.66" y="105.58">f</tspan><tspan class="cls-5" x="608.23" y="105.58" xml:space="preserve"> the a</tspan><tspan class="cls-17" x="655.46" y="105.58">cc</tspan><tspan class="cls-24" x="674.63" y="105.58">ou</tspan><tspan class="cls-27" x="695.63" y="105.58">n</tspan><tspan class="cls-5" x="705.92" y="105.58">ts and </tspan><tspan class="cls-20" x="762.99" y="105.58">f</tspan><tspan class="cls-24" x="769.52" y="105.58">or</tspan><tspan class="cls-20" x="786.99" y="105.58">f</tspan><tspan class="cls-5" x="793.53" y="105.58">eitu</tspan><tspan class="cls-25" x="826.12" y="105.58">r</tspan><tspan class="cls-24" x="832.79" y="105.58">e </tspan><tspan class="cls-40" x="847.04" y="105.58">o</tspan><tspan class="cls-41" x="857.29" y="105.58">f</tspan><tspan class="cls-5" x="863.85" y="105.58" xml:space="preserve"> its i</tspan><tspan class="cls-42" x="898.47" y="105.58">n</tspan><tspan class="cls-14" x="908.66" y="105.58">v</tspan><tspan class="cls-5" x="918.02" y="105.58">e</tspan><tspan class="cls-27" x="927.85" y="105.58">n</tspan><tspan class="cls-35" x="938.14" y="105.58">t</tspan><tspan class="cls-5" x="945.02" y="105.58">or</tspan><tspan class="cls-43" x="962.49" y="105.58">y</tspan><tspan class="cls-5" x="971.48" y="105.58">, </tspan></tspan><tspan class="cls-13"><tspan x="0" y="126.48">Spin Poi</tspan><tspan class="cls-17" x="67.08" y="126.48">n</tspan><tspan x="77.37" y="126.48">ts, Spin</tspan><tspan class="cls-44" x="138.76" y="126.48"> </tspan><tspan class="cls-45" x="142.69" y="126.48">T</tspan><tspan class="cls-5" x="151.33" y="126.48">okens, Spin C</tspan><tspan class="cls-6" x="262.19" y="126.48">r</tspan><tspan x="268.86" y="126.48">edits, dis</tspan><tspan class="cls-16" x="344.25" y="126.48">c</tspan><tspan class="cls-5" x="353.84" y="126.48">ou</tspan><tspan class="cls-17" x="374.84" y="126.48">n</tspan><tspan x="385.13" y="126.48">ts, </tspan><tspan class="cls-17" x="409.84" y="126.48">c</tspan><tspan class="cls-5" x="419.43" y="126.48">oupons, and pri</tspan><tspan class="cls-46" x="549.56" y="126.48">z</tspan><tspan class="cls-5" x="557.79" y="126.48">es. </tspan></tspan><tspan class="cls-5"><tspan x="0" y="147.38">In </tspan><tspan class="cls-47" x="20.37" y="147.38">e</tspan><tspan class="cls-31" x="30.02" y="147.38">v</tspan><tspan class="cls-13" x="39.38" y="147.38">e</tspan><tspan class="cls-17" x="49.21" y="147.38">n</tspan><tspan class="cls-13" x="59.51" y="147.38">t </tspan><tspan class="cls-48" x="71.02" y="147.38">o</tspan><tspan class="cls-41" x="81.27" y="147.38">f</tspan><tspan class="cls-13" x="87.83" y="147.38"> </tspan><tspan class="cls-17" x="92.25" y="147.38">c</tspan><tspan class="cls-13" x="101.84" y="147.38">an</tspan><tspan class="cls-16" x="123.3" y="147.38">c</tspan><tspan x="132.89" y="147.38">el</tspan><tspan class="cls-8" x="148.72" y="147.38">l</tspan><tspan class="cls-13" x="154.63" y="147.38">ation the</tspan><tspan class="cls-6" x="230.34" y="147.38"> </tspan><tspan class="cls-30" x="234.33" y="147.38">A</tspan><tspan class="cls-16" x="245.25" y="147.38">cc</tspan><tspan x="264.42" y="147.38">ou</tspan><tspan class="cls-17" x="285.42" y="147.38">n</tspan><tspan class="cls-13" x="295.72" y="147.38">t ho</tspan><tspan class="cls-8" x="327.99" y="147.38">l</tspan><tspan x="333.89" y="147.38">de</tspan><tspan class="cls-9" x="354.81" y="147.38">r</tspan><tspan class="cls-13" x="361.61" y="147.38" xml:space="preserve"> ma</tspan><tspan class="cls-9" x="392.54" y="147.38">y</tspan><tspan x="401.63" y="147.38"> </tspan><tspan class="cls-16" x="406.05" y="147.38">c</tspan><tspan x="415.64" y="147.38">o</tspan><tspan class="cls-17" x="426.01" y="147.38">n</tspan><tspan class="cls-18" x="436.31" y="147.38">t</tspan><tspan class="cls-13" x="443.19" y="147.38">act i</tspan><tspan class="cls-49" x="480.5" y="147.38">n</tspan><tspan class="cls-20" x="490.82" y="147.38">f</tspan><tspan x="497.35" y="147.38">o@spinit2win</tspan><tspan class="cls-50" x="607.98" y="147.38">.</tspan><tspan class="cls-17" x="612.38" y="147.38">c</tspan><tspan x="621.97" y="147.38">om </tspan><tspan class="cls-35" x="652.19" y="147.38">t</tspan><tspan x="659.07" y="147.38">o appeal. </tspan></tspan><tspan class="cls-45"><tspan x="0" y="168.28">T</tspan><tspan class="cls-13" x="8.64" y="168.28">erms Subject </tspan><tspan class="cls-32" x="122.03" y="168.28">t</tspan><tspan class="cls-5" x="128.91" y="168.28">o change. </tspan></tspan><tspan class="cls-5"><tspan x="0" y="189.17">P</tspan><tspan class="cls-15" x="10.56" y="189.17">r</tspan><tspan class="cls-22" x="17.22" y="189.17">o</tspan><tspan x="27.47" y="189.17">fi</tspan><tspan class="cls-16" x="37.61" y="189.17">l</tspan><tspan class="cls-13" x="43.54" y="189.17">es, a</tspan><tspan class="cls-16" x="82.07" y="189.17">cc</tspan><tspan x="101.24" y="189.17">ou</tspan><tspan class="cls-16" x="122.25" y="189.17">n</tspan><tspan x="132.54" y="189.17">ts, and </tspan><tspan class="cls-17" x="194.22" y="189.17">c</tspan><tspan x="203.81" y="189.17">o</tspan><tspan class="cls-17" x="214.19" y="189.17">n</tspan><tspan class="cls-32" x="224.48" y="189.17">t</tspan><tspan x="231.36" y="189.17">e</tspan><tspan class="cls-16" x="241.19" y="189.17">n</tspan><tspan x="251.49" y="189.17">ts a</tspan><tspan class="cls-15" x="282.67" y="189.17">r</tspan><tspan class="cls-13" x="289.33" y="189.17">e issued at the disc</tspan><tspan class="cls-15" x="450.46" y="189.17">r</tspan><tspan class="cls-16" x="457.13" y="189.17">e</tspan><tspan x="466.88" y="189.17">tion </tspan><tspan class="cls-22" x="504.19" y="189.17">o</tspan><tspan class="cls-51" x="514.44" y="189.17">f</tspan><tspan class="cls-52" x="521.01" y="189.17" xml:space="preserve"> Spinit2win</tspan><tspan class="cls-53" x="613.44" y="189.17">.</tspan><tspan class="cls-17" x="617.84" y="189.17">c</tspan><tspan class="cls-24" x="627.43" y="189.17">om and its affilia</tspan><tspan class="cls-35" x="767.52" y="189.17">t</tspan><tspan class="cls-24" x="774.4" y="189.17">es and al</tspan><tspan class="cls-25" x="851.3" y="189.17">l</tspan><tspan x="856.87" y="189.17" xml:space="preserve"> rig</tspan><tspan class="cls-27" x="884.26" y="189.17">h</tspan><tspan x="894.56" y="189.17">ts a</tspan><tspan class="cls-25" x="925.73" y="189.17">r</tspan><tspan class="cls-24" x="932.4" y="189.17">e </tspan><tspan class="cls-25" x="946.65" y="189.17">r</tspan><tspan x="953.32" y="189.17">eser</tspan><tspan class="cls-14" x="988.66" y="189.17">v</tspan><tspan class="cls-24" x="998.01" y="189.17">ed.</tspan></tspan><tspan x="0" y="230.97" xml:space="preserve">										</tspan><tspan class="cls-5" x="477.7" y="230.97" xml:space="preserve">      M</tspan><tspan class="cls-12" x="518.47" y="230.97">Y</tspan><tspan class="cls-54" x="528.83" y="230.97"> </tspan><tspan class="cls-55" x="532.64" y="230.97">W</tspan><tspan class="cls-24" x="548.82" y="230.97">ALLE</tspan><tspan class="cls-9" x="589.98" y="230.97">T</tspan><tspan class="cls-13" x="600.15" y="230.97"> </tspan><tspan class="cls-5"><tspan x="0" y="272.76">Vi</tspan><tspan class="cls-42" x="16.3" y="272.76">e</tspan><tspan class="cls-56" x="25.95" y="272.76">w</tspan><tspan class="cls-13" x="39.49" y="272.76"> </tspan><tspan class="cls-14" x="43.92" y="272.76">U</tspan><tspan class="cls-13" x="56.26" y="272.76">ser</tspan><tspan class="cls-48" x="81.76" y="272.76">’</tspan><tspan class="cls-13" x="86.48" y="272.76">s Ba</tspan><tspan class="cls-8" x="122.1" y="272.76">l</tspan><tspan x="128" y="272.76">an</tspan><tspan class="cls-16" x="149.47" y="272.76">c</tspan><tspan class="cls-13" x="159.05" y="272.76">es </tspan><tspan class="cls-20" x="181.88" y="272.76">f</tspan><tspan x="188.42" y="272.76">o</tspan><tspan class="cls-9" x="198.79" y="272.76">r</tspan><tspan class="cls-13" x="205.59" y="272.76" xml:space="preserve"> Spin Poi</tspan><tspan class="cls-17" x="277.09" y="272.76">n</tspan><tspan class="cls-13" x="287.39" y="272.76">ts, Spin</tspan><tspan class="cls-44" x="348.77" y="272.76"> </tspan><tspan class="cls-45" x="352.7" y="272.76">T</tspan><tspan x="361.34" y="272.76">okens, Spin c</tspan><tspan class="cls-15" x="470.34" y="272.76">r</tspan><tspan class="cls-13" x="477.01" y="272.76">edits </tspan></tspan><tspan class="cls-13"><tspan x="0" y="293.66">Co</tspan><tspan class="cls-47" x="21.91" y="293.66">n</tspan><tspan class="cls-14" x="32.1" y="293.66">v</tspan><tspan x="41.46" y="293.66">ert Spin Poi</tspan><tspan class="cls-17" x="136.98" y="293.66">n</tspan><tspan x="147.27" y="293.66">ts </tspan><tspan class="cls-18" x="167.37" y="293.66">t</tspan><tspan class="cls-5" x="174.25" y="293.66">o Spin</tspan><tspan class="cls-44" x="225.72" y="293.66"> </tspan><tspan class="cls-45" x="229.64" y="293.66">T</tspan><tspan class="cls-5" x="238.29" y="293.66">okens </tspan><tspan x="0" y="314.55">Co</tspan><tspan class="cls-47" x="21.91" y="314.55">n</tspan><tspan class="cls-14" x="32.1" y="314.55">v</tspan><tspan x="41.46" y="314.55">ert Spin C</tspan><tspan class="cls-15" x="122.53" y="314.55">r</tspan><tspan x="129.19" y="314.55">edits </tspan><tspan class="cls-32" x="175.25" y="314.55">t</tspan><tspan class="cls-5" x="182.13" y="314.55">o Spin</tspan><tspan class="cls-44" x="233.6" y="314.55"> </tspan><tspan class="cls-45" x="237.53" y="314.55">T</tspan><tspan class="cls-5" x="246.18" y="314.55">okens </tspan><tspan x="0" y="335.45">Bu</tspan><tspan class="cls-9" x="22.16" y="335.45">y</tspan><tspan x="31.25" y="335.45" xml:space="preserve"> Spin C</tspan><tspan class="cls-6" x="88.29" y="335.45">r</tspan><tspan x="94.96" y="335.45">edits</tspan><tspan class="cls-21" x="136.6" y="335.45"> </tspan><tspan class="cls-5" x="140.56" y="335.45">with C</tspan><tspan class="cls-6" x="192.89" y="335.45">r</tspan><tspan x="199.55" y="335.45">edit/ Debit Ca</tspan><tspan class="cls-28" x="321.6" y="335.45">r</tspan><tspan x="328.3" y="335.45">d</tspan><tspan x="0" y="356.35">Sha</tspan><tspan class="cls-15" x="31.89" y="356.35">r</tspan><tspan class="cls-5" x="38.55" y="356.35">e Spin Poi</tspan><tspan class="cls-17" x="119.89" y="356.35">n</tspan><tspan x="130.18" y="356.35">ts, Spin</tspan><tspan class="cls-44" x="191.57" y="356.35"> </tspan><tspan class="cls-45" x="195.49" y="356.35">T</tspan><tspan class="cls-5" x="204.14" y="356.35">okens, Spin c</tspan><tspan class="cls-6" x="313.14" y="356.35">r</tspan><tspan x="319.8" y="356.35">edits </tspan><tspan class="cls-18" x="365.86" y="356.35">t</tspan><tspan class="cls-5" x="372.74" y="356.35">o </tspan><tspan class="cls-38" x="387.54" y="356.35">F</tspan><tspan x="396.42" y="356.35">riends </tspan><tspan class="cls-37" x="452.85" y="356.35">(</tspan><tspan class="cls-16" x="458.58" y="356.35">c</tspan><tspan class="cls-5" x="468.16" y="356.35">oming soon) </tspan><tspan x="0" y="377.25">Subject </tspan><tspan class="cls-18" x="68.03" y="377.25">t</tspan><tspan class="cls-5" x="74.91" y="377.25">o Spinit2win</tspan><tspan class="cls-57" x="177.73" y="377.25">.</tspan><tspan class="cls-16" x="182.13" y="377.25">c</tspan><tspan class="cls-5" x="191.72" y="377.25">omand affilia</tspan><tspan class="cls-18" x="302.25" y="377.25">t</tspan><tspan x="309.13" y="377.25">es</tspan><tspan class="cls-44" x="327.54" y="377.25"> </tspan><tspan class="cls-45" x="331.47" y="377.25">T</tspan><tspan x="340.11" y="377.25">erms </tspan><tspan class="cls-22" x="385.46" y="377.25">o</tspan><tspan class="cls-39" x="395.71" y="377.25">f</tspan><tspan x="402.27" y="377.25"> </tspan><tspan class="cls-14" x="406.69" y="377.25">U</tspan><tspan class="cls-5" x="419.03" y="377.25">se.</tspan></tspan><tspan x="0" y="419.04" xml:space="preserve">										</tspan><tspan class="cls-5" x="477.7" y="419.04" xml:space="preserve">     SETTINGS</tspan><tspan class="cls-5"><tspan x="0" y="460.83">Vi</tspan><tspan class="cls-42" x="16.3" y="460.83">e</tspan><tspan class="cls-58" x="25.95" y="460.83">w</tspan><tspan class="cls-13" x="39.36" y="460.83">/</tspan><tspan class="cls-6" x="52.02" y="460.83"> </tspan><tspan class="cls-20" x="56.01" y="460.83">A</tspan><tspan class="cls-13" x="66.91" y="460.83">dd/ Change Co</tspan><tspan class="cls-17" x="196.52" y="460.83">n</tspan><tspan class="cls-18" x="206.81" y="460.83">t</tspan><tspan class="cls-13" x="213.69" y="460.83">act i</tspan><tspan class="cls-19" x="251.01" y="460.83">n</tspan><tspan class="cls-20" x="261.32" y="460.83">f</tspan><tspan x="267.85" y="460.83">ormation – </tspan><tspan class="cls-53" x="364.02" y="460.83">E</tspan><tspan x="374" y="460.83">mai</tspan><tspan class="cls-6" x="405.56" y="460.83">l</tspan><tspan class="cls-13" x="411.13" y="460.83" xml:space="preserve"> – </tspan><tspan class="cls-14" x="430.42" y="460.83">U</tspan><tspan class="cls-13" x="442.76" y="460.83">sername - Pas</tspan><tspan class="cls-53" x="561.27" y="460.83">s</tspan><tspan class="cls-8" x="569.71" y="460.83">w</tspan><tspan x="583.46" y="460.83">o</tspan><tspan class="cls-28" x="593.84" y="460.83">r</tspan><tspan class="cls-23" x="600.54" y="460.83">d</tspan><tspan x="0" y="481.73">Vi</tspan><tspan class="cls-42" x="16.3" y="481.73">e</tspan><tspan class="cls-58" x="25.95" y="481.73">w</tspan><tspan class="cls-13" x="39.36" y="481.73">/</tspan><tspan class="cls-6" x="52.02" y="481.73"> </tspan><tspan class="cls-20" x="56.01" y="481.73">A</tspan><tspan class="cls-13" x="66.91" y="481.73">dd/ Change P</tspan><tspan class="cls-6" x="185.17" y="481.73">r</tspan><tspan class="cls-48" x="191.83" y="481.73">o</tspan><tspan x="202.08" y="481.73">fi</tspan><tspan class="cls-16" x="212.22" y="481.73">l</tspan><tspan x="218.15" y="481.73">e pictu</tspan><tspan class="cls-6" x="275.66" y="481.73">r</tspan><tspan class="cls-13" x="282.32" y="481.73">e</tspan><tspan x="0" y="502.63">Vi</tspan><tspan class="cls-42" x="16.3" y="502.63">e</tspan><tspan class="cls-58" x="25.95" y="502.63">w</tspan><tspan class="cls-13" x="39.36" y="502.63">/</tspan><tspan class="cls-6" x="52.02" y="502.63"> </tspan><tspan class="cls-20" x="56.01" y="502.63">A</tspan><tspan class="cls-13" x="66.91" y="502.63">dd/ Change Shipping i</tspan><tspan class="cls-49" x="257.82" y="502.63">n</tspan><tspan class="cls-20" x="268.13" y="502.63">f</tspan><tspan x="274.67" y="502.63">ormation</tspan><tspan x="0" y="523.52">Vi</tspan><tspan class="cls-42" x="16.3" y="523.52">e</tspan><tspan class="cls-58" x="25.95" y="523.52">w</tspan><tspan class="cls-13" x="39.36" y="523.52">/</tspan><tspan class="cls-6" x="52.02" y="523.52"> </tspan><tspan class="cls-20" x="56.01" y="523.52">A</tspan><tspan class="cls-13" x="66.91" y="523.52">dd/ Change Billing I</tspan><tspan class="cls-19" x="239.44" y="523.52">n</tspan><tspan class="cls-9" x="249.75" y="523.52">f</tspan><tspan x="256.29" y="523.52">ormation</tspan></tspan><tspan class="cls-13"><tspan x="0" y="545.52"> </tspan></tspan></text></svg>