<svg width="31" height="31" viewBox="0 0 31 31" fill="none" xmlns="http://www.w3.org/2000/svg">
<g id="Work">
<path id="Combined Shape" fill-rule="evenodd" clip-rule="evenodd" d="M25.0364 4.23779H22.081C21.8002 2.02927 19.9312 0.316895 17.6752 0.316895H13.8033C11.5473 0.316895 9.67835 2.02927 9.39753 4.23779H6.45711C3.30404 4.23779 0.739258 6.82896 0.739258 10.0143V15.256C0.739258 15.6617 0.950863 16.0356 1.29604 16.2392C5.00336 18.4378 9.69662 19.7194 14.6135 19.8887V22.6214C14.6135 23.2506 15.1175 23.7612 15.7385 23.7612C16.3595 23.7612 16.8635 23.2506 16.8635 22.6214V19.8883C21.7852 19.7174 26.478 18.4361 30.1824 16.2392C30.5261 16.0356 30.7392 15.6617 30.7392 15.256V10.0295C30.7392 6.83504 28.1819 4.23779 25.0364 4.23779ZM17.6752 2.59651C18.6861 2.59651 19.5394 3.29349 19.791 4.23779H11.6875C11.9391 3.29349 12.7924 2.59651 13.8033 2.59651H17.6752ZM15.6726 17.6279C11.0145 17.6189 6.54104 16.5453 2.99023 14.5915V10.014C2.99023 8.08547 4.54501 6.51709 6.45696 6.51709H25.0362C26.9407 6.51709 28.4879 8.09155 28.4879 10.0292V14.5915C24.939 16.5434 20.4662 17.6169 15.8039 17.6279C15.7823 17.6266 15.7605 17.626 15.7385 17.626C15.7164 17.626 15.6944 17.6266 15.6726 17.6279ZM7.03448 30.3172H24.4432C27.5572 30.3172 30.179 27.8537 30.4146 24.7078L30.6998 20.8948C30.7463 20.2671 30.2826 19.7185 29.6628 19.6714C29.0535 19.647 28.5027 20.0938 28.4547 20.723L28.1695 24.5345C28.0239 26.4981 26.3866 28.0376 24.4432 28.0376H7.03448C5.09101 28.0376 3.4552 26.4981 3.30813 24.5345L3.02448 20.723C2.97646 20.0938 2.43919 19.6486 1.81638 19.6714C1.19657 19.7185 0.731341 20.2671 0.777865 20.8948L1.06301 24.7078C1.29862 27.8537 3.92043 30.3172 7.03448 30.3172Z" fill="black"/>
</g>
</svg>
