<svg width="21" height="21" viewBox="0 0 21 21" fill="none" xmlns="http://www.w3.org/2000/svg">
<g id="Search">
<path id="Ellipse_739 (Stroke)" fill-rule="evenodd" clip-rule="evenodd" d="M10.238 1.99855C5.84189 1.99855 2.27811 5.45434 2.27811 9.71727C2.27811 13.9802 5.84189 17.436 10.238 17.436C14.6342 17.436 18.198 13.9802 18.198 9.71727C18.198 5.45434 14.6342 1.99855 10.238 1.99855ZM0.339966 9.71727C0.339966 4.41637 4.77148 0.119141 10.238 0.119141C15.7046 0.119141 20.1361 4.41637 20.1361 9.71727C20.1361 15.0182 15.7046 19.3154 10.238 19.3154C4.77148 19.3154 0.339966 15.0182 0.339966 9.71727Z" fill="#585858"/>
<path id="Line_181 (Stroke)" fill-rule="evenodd" clip-rule="evenodd" d="M15.7621 15.5251C16.14 15.1577 16.7536 15.1569 17.1325 15.5234L20.6332 18.9092C21.0122 19.2757 21.0129 19.8707 20.635 20.2381C20.257 20.6056 19.6435 20.6063 19.2645 20.2398L15.7639 16.8541C15.3849 16.4876 15.3841 15.8926 15.7621 15.5251Z" fill="#585858"/>
</g>
</svg>
