<svg width="51" height="51" viewBox="0 0 51 51" fill="none" xmlns="http://www.w3.org/2000/svg">
<path fill-rule="evenodd" clip-rule="evenodd" d="M18.9544 4.30364C18.9544 2.1056 20.7149 0.32373 22.8867 0.32373H28.1299C30.3017 0.32373 32.0623 2.10559 32.0623 4.30364V13.4666C32.0623 14.4712 31.6869 15.4386 31.0115 16.1747L28.39 19.0321C26.8342 20.7278 24.1825 20.7278 22.6267 19.0321L20.0051 16.1747C19.3297 15.4386 18.9544 14.4712 18.9544 13.4666V4.30364Z" fill="#FDA1A5"/>
<path fill-rule="evenodd" clip-rule="evenodd" d="M22.8867 2.97701C22.1628 2.97701 21.5759 3.57096 21.5759 4.30364V13.4666C21.5759 13.8015 21.7011 14.1239 21.9262 14.3693L24.5478 17.2267C25.0664 17.7919 25.9503 17.7919 26.4689 17.2267L29.0905 14.3693C29.3156 14.1239 29.4407 13.8015 29.4407 13.4666V4.30364C29.4407 3.57096 28.8539 2.97701 28.1299 2.97701H22.8867ZM18.9544 4.30364C18.9544 2.1056 20.7149 0.32373 22.8867 0.32373H28.1299C30.3017 0.32373 32.0623 2.10559 32.0623 4.30364V13.4666C32.0623 14.4712 31.6869 15.4386 31.0115 16.1747L28.39 19.0321C26.8342 20.7278 24.1825 20.7278 22.6267 19.0321L20.0051 16.1747C19.3297 15.4386 18.9544 14.4712 18.9544 13.4666V4.30364Z" fill="black"/>
<path fill-rule="evenodd" clip-rule="evenodd" d="M3.22449 22.8764C3.22449 22.1438 3.81136 21.5498 4.53529 21.5498H13.5889C13.9197 21.5498 14.2383 21.6764 14.4808 21.9043L17.304 24.5576C17.8625 25.0824 17.8625 25.977 17.304 26.5019L14.4808 29.1551C14.2383 29.383 13.9197 29.5096 13.5889 29.5096H4.53529C3.81136 29.5096 3.22449 28.9157 3.22449 28.183V22.8764ZM4.53529 18.8965C2.36349 18.8965 0.602905 20.6784 0.602905 22.8764V28.183C0.602905 30.381 2.36349 32.1629 4.53529 32.1629H13.5889C14.5814 32.1629 15.5373 31.783 16.2646 31.0994L19.0879 28.4462C20.7633 26.8716 20.7633 24.1878 19.0879 22.6133L16.2646 19.96C15.5373 19.2764 14.5814 18.8965 13.5889 18.8965H4.53529ZM22.8864 48.0825C22.1625 48.0825 21.5756 47.4885 21.5756 46.7559V37.5929C21.5756 37.258 21.7007 36.9356 21.9259 36.6902L24.5475 33.8328C25.066 33.2676 25.95 33.2676 26.4685 33.8328L29.0901 36.6902C29.3153 36.9356 29.4404 37.258 29.4404 37.5929V46.7559C29.4404 47.4885 28.8535 48.0825 28.1296 48.0825H22.8864ZM18.954 46.7559C18.954 48.9539 20.7146 50.7358 22.8864 50.7358H28.1296C30.3014 50.7358 32.062 48.9539 32.062 46.7559V37.5929C32.062 36.5883 31.6866 35.6209 31.0112 34.8848L28.3896 32.0274C26.8338 30.3317 24.1821 30.3317 22.6264 32.0274L20.0048 34.8848C19.3294 35.6209 18.954 36.5883 18.954 37.5929V46.7559ZM46.4807 21.5498C47.2046 21.5498 47.7915 22.1438 47.7915 22.8764V28.183C47.7915 28.9157 47.2046 29.5096 46.4807 29.5096H37.4271C37.0963 29.5096 36.7777 29.383 36.5352 29.1551L33.712 26.5019C33.1535 25.977 33.1535 25.0824 33.712 24.5576L36.5352 21.9043C36.7777 21.6764 37.0963 21.5498 37.4271 21.5498H46.4807ZM50.4131 22.8764C50.4131 20.6784 48.6525 18.8965 46.4807 18.8965H37.4271C36.4346 18.8965 35.4787 19.2764 34.7514 19.96L31.9281 22.6133C30.2527 24.1878 30.2527 26.8716 31.9281 28.4462L34.7514 31.0994C35.4787 31.783 36.4346 32.1629 37.4271 32.1629H46.4807C48.6525 32.1629 50.4131 30.381 50.4131 28.183V22.8764Z" fill="black"/>
</svg>
