<svg width="51" height="59" viewBox="0 0 51 59" fill="none" xmlns="http://www.w3.org/2000/svg">
<path d="M4.08534 37.4239H14.7566V51.6522C14.7566 53.0673 14.1944 54.4244 13.1938 55.4251C12.1932 56.4257 10.8361 56.9878 9.42096 56.9878C8.00587 56.9878 6.64873 56.4257 5.64811 55.4251C4.64749 54.4244 4.08534 53.0673 4.08534 51.6522V37.4239Z" fill="#FDA1A5"/>
<path d="M43.6716 1.19494C43.5328 1.12287 43.3778 1.08774 43.2216 1.09294C43.0653 1.09813 42.913 1.14347 42.7794 1.2246C42.6457 1.30572 42.5352 1.4199 42.4584 1.55613C42.3817 1.69235 42.3413 1.84604 42.3412 2.0024V11.5781H33.244V2.00062C33.2441 1.84422 33.2038 1.69045 33.1271 1.55418C33.0503 1.41791 32.9397 1.30374 32.8059 1.22273C32.6722 1.14171 32.5198 1.09659 32.3634 1.09172C32.2071 1.08685 32.0522 1.1224 31.9136 1.19494C29.8111 2.28858 28.0554 3.94727 26.8442 5.98438C25.633 8.02148 25.0143 10.3562 25.0578 12.7258C25.1012 15.0953 25.805 17.4058 27.0901 19.3972C28.3751 21.3885 30.1904 22.9817 32.3316 23.9976V52.2888C32.3316 53.7369 32.9069 55.1257 33.9308 56.1497C34.9548 57.1737 36.3436 57.7489 37.7917 57.7489C39.2398 57.7489 40.6286 57.1737 41.6526 56.1497C42.6766 55.1257 43.2518 53.7369 43.2518 52.2888V23.9976C45.3937 22.9824 47.2096 21.3895 48.4953 19.3982C49.7809 17.4069 50.4852 15.0962 50.5288 12.7264C50.5724 10.3565 49.9537 8.02149 48.7422 5.98422C47.5307 3.94694 45.7746 2.28828 43.6716 1.19494ZM41.9908 22.5677C41.8254 22.637 41.6842 22.7537 41.5848 22.903C41.4855 23.0524 41.4324 23.2278 41.4324 23.4071V52.2888C41.4324 53.2542 41.0489 54.18 40.3663 54.8625C39.6837 55.5451 38.7579 55.9286 37.7926 55.9286C36.8273 55.9286 35.9015 55.5451 35.2189 54.8625C34.5363 54.18 34.1528 53.2542 34.1528 52.2888V23.4071C34.1528 23.2278 34.0997 23.0524 34.0004 22.903C33.901 22.7537 33.7598 22.637 33.5944 22.5677C31.8014 21.8201 30.2404 20.6075 29.0725 19.0552C27.9047 17.5028 27.1723 15.6669 26.951 13.7369C26.7297 11.807 27.0274 9.85294 27.8135 8.07651C28.5996 6.30007 29.8456 4.76561 31.4228 3.63154V12.4887C31.4228 12.7302 31.5187 12.9618 31.6895 13.1326C31.8602 13.3033 32.0919 13.3993 32.3334 13.3993H43.2518C43.4933 13.3993 43.725 13.3033 43.8957 13.1326C44.0665 12.9618 44.1624 12.7302 44.1624 12.4887V3.63154C45.7415 4.76498 46.9892 6.29961 47.7765 8.07676C48.5638 9.85391 48.8622 11.8091 48.6408 13.7402C48.4194 15.6713 47.6863 17.5082 46.5172 19.061C45.3481 20.6139 43.7855 21.8263 41.9908 22.573V22.5677ZM12.0869 32.9774V16.2254L13.8228 11.0267C13.8717 10.88 13.8815 10.7231 13.8512 10.5714L12.0727 1.6787C12.0317 1.47784 11.9225 1.29731 11.7637 1.16767C11.6049 1.03803 11.4062 0.967243 11.2012 0.967285H7.64412C7.43912 0.967243 7.24039 1.03803 7.08158 1.16767C6.92278 1.29731 6.81364 1.47784 6.77263 1.6787L4.99409 10.5714C4.96383 10.7231 4.97364 10.88 5.02255 11.0267L6.75663 16.2254V32.9774H3.19955C2.492 32.9774 1.81343 33.2585 1.31312 33.7588C0.81281 34.2591 0.531738 34.9377 0.531738 35.6453C0.531738 36.3528 0.81281 37.0314 1.31312 37.5317C1.81343 38.032 2.492 38.3131 3.19955 38.3131V51.6521C3.19955 53.3031 3.85538 54.8864 5.02278 56.0538C6.19017 57.2212 7.7735 57.877 9.42444 57.877C11.0754 57.877 12.6587 57.2212 13.8261 56.0538C14.9935 54.8864 15.6493 53.3031 15.6493 51.6521V38.3131C16.3569 38.3131 17.0354 38.032 17.5358 37.5317C18.0361 37.0314 18.3171 36.3528 18.3171 35.6453C18.3171 34.9377 18.0361 34.2591 17.5358 33.7588C17.0354 33.2585 16.3569 32.9774 15.6493 32.9774H12.0869ZM8.37154 2.74227H10.4702L12.0602 10.6888L10.3546 15.8003C10.3252 15.8911 10.3102 15.9859 10.3101 16.0813V32.9774H8.53161V16.0813C8.53157 15.9859 8.51657 15.8911 8.48715 15.8003L6.78153 10.6888L8.37154 2.74227ZM13.8672 51.6521C13.8672 52.236 13.7522 52.8142 13.5288 53.3537C13.3053 53.8931 12.9778 54.3833 12.5649 54.7962C12.152 55.209 11.6619 55.5366 11.1224 55.76C10.583 55.9835 10.0048 56.0985 9.42088 56.0985C8.83698 56.0985 8.25879 55.9835 7.71934 55.76C7.17988 55.5366 6.68972 55.209 6.27684 54.7962C5.86396 54.3833 5.53644 53.8931 5.31299 53.3537C5.08954 52.8142 4.97453 52.236 4.97453 51.6521V38.3131H13.8672V51.6521ZM15.6458 36.5345H3.19599C2.96014 36.5345 2.73395 36.4408 2.56718 36.2741C2.40041 36.1073 2.30672 35.8811 2.30672 35.6453C2.30672 35.4094 2.40041 35.1832 2.56718 35.0164C2.73395 34.8497 2.96014 34.756 3.19599 34.756H15.6458C15.8816 34.756 16.1078 34.8497 16.2746 35.0164C16.4413 35.1832 16.535 35.4094 16.535 35.6453C16.535 35.8811 16.4413 36.1073 16.2746 36.2741C16.1078 36.4408 15.8816 36.5345 15.6458 36.5345Z" fill="black"/>
<path d="M4.08534 37.4239V36.9739H3.63534V37.4239H4.08534ZM14.7566 37.4239H15.2066V36.9739H14.7566V37.4239ZM9.42096 56.9878L9.42096 57.4378L9.42096 56.9878ZM43.6716 1.19494L43.8791 0.795672L43.879 0.795594L43.6716 1.19494ZM42.3412 2.0024L41.8912 2.00207V2.0024H42.3412ZM42.3412 11.5781V12.0281H42.7912V11.5781H42.3412ZM33.244 11.5781H32.794V12.0281H33.244V11.5781ZM33.244 2.00062L32.794 2.00037V2.00062H33.244ZM31.9136 1.19494L32.1213 1.59416L32.1223 1.59361L31.9136 1.19494ZM32.3316 23.9976H32.7816V23.713L32.5245 23.591L32.3316 23.9976ZM43.2518 23.9976L43.0591 23.591L42.8018 23.7129V23.9976H43.2518ZM41.9908 22.5677H42.4408V21.891L41.8168 22.1527L41.9908 22.5677ZM41.4324 23.4071L40.9824 23.407V23.4071H41.4324ZM41.4324 52.2888H41.8824H41.4324ZM37.7926 55.9286V56.3786V55.9286ZM34.1528 52.2888H33.7028H34.1528ZM34.1528 23.4071L34.6028 23.4071L34.6028 23.407L34.1528 23.4071ZM33.5944 22.5677L33.7684 22.1527L33.7675 22.1523L33.5944 22.5677ZM31.4228 3.63154H31.8728V2.75371L31.1601 3.26618L31.4228 3.63154ZM43.2518 13.3993V13.8493V13.3993ZM44.1624 3.63154L44.4248 3.26597L43.7124 2.7546V3.63154H44.1624ZM41.9908 22.573H41.5408V23.2476L42.1637 22.9885L41.9908 22.573ZM12.0869 32.9774H11.6369V33.4274H12.0869V32.9774ZM12.0869 16.2254L11.6601 16.0829L11.6369 16.1522V16.2254H12.0869ZM13.8228 11.0267L14.2496 11.1692L14.2497 11.169L13.8228 11.0267ZM13.8512 10.5714L14.2925 10.4833L14.2925 10.4831L13.8512 10.5714ZM12.0727 1.6787L12.5139 1.59045L12.5136 1.5887L12.0727 1.6787ZM11.2012 0.967285L11.2012 1.41729L11.2013 1.41729L11.2012 0.967285ZM7.64412 0.967285L7.64403 1.41729H7.64412V0.967285ZM6.77263 1.6787L6.33172 1.5887L6.33137 1.59045L6.77263 1.6787ZM4.99409 10.5714L4.55283 10.4831L4.5528 10.4833L4.99409 10.5714ZM5.02255 11.0267L4.59565 11.169L4.59567 11.1691L5.02255 11.0267ZM6.75663 16.2254H7.20663V16.1523L7.18351 16.083L6.75663 16.2254ZM6.75663 32.9774V33.4274H7.20663V32.9774H6.75663ZM3.19955 38.3131H3.64955V37.8631H3.19955V38.3131ZM9.42444 57.877L9.42444 57.427L9.42444 57.877ZM15.6493 51.6521H16.0993H15.6493ZM15.6493 38.3131V37.8631H15.1993V38.3131H15.6493ZM18.3171 35.6453H18.7671H18.3171ZM8.37154 2.74227V2.29227H8.00266L7.93029 2.65398L8.37154 2.74227ZM10.4702 2.74227L10.9115 2.65398L10.8391 2.29227H10.4702V2.74227ZM12.0602 10.6888L12.4871 10.8312L12.525 10.7178L12.5015 10.6005L12.0602 10.6888ZM10.3546 15.8003L9.92774 15.6579L9.92654 15.6615L10.3546 15.8003ZM10.3101 16.0813L9.86015 16.0811V16.0813H10.3101ZM10.3101 32.9774V33.4274H10.7601V32.9774H10.3101ZM8.53161 32.9774H8.08161V33.4274H8.53161V32.9774ZM8.53161 16.0813L8.98161 16.0813L8.98161 16.0811L8.53161 16.0813ZM8.48715 15.8003L8.91523 15.6615L8.91401 15.6579L8.48715 15.8003ZM6.78153 10.6888L6.34027 10.6005L6.31681 10.7178L6.35466 10.8312L6.78153 10.6888ZM13.8672 51.6521H13.4172V51.6521L13.8672 51.6521ZM4.97453 51.6521L5.42453 51.6521V51.6521H4.97453ZM4.97453 38.3131V37.8631H4.52453V38.3131H4.97453ZM13.8672 38.3131H14.3172V37.8631H13.8672V38.3131ZM4.08534 37.8739H14.7566V36.9739H4.08534V37.8739ZM14.3066 37.4239V51.6522H15.2066V37.4239H14.3066ZM14.3066 51.6522C14.3066 52.9479 13.7919 54.1906 12.8756 55.1069L13.512 55.7433C14.597 54.6582 15.2066 53.1866 15.2066 51.6522H14.3066ZM12.8756 55.1069C11.9594 56.0231 10.7167 56.5378 9.42096 56.5378L9.42096 57.4378C10.9554 57.4378 12.427 56.8283 13.512 55.7433L12.8756 55.1069ZM9.42096 56.5378C8.12522 56.5378 6.88254 56.0231 5.96631 55.1069L5.32991 55.7433C6.41493 56.8283 7.88652 57.4378 9.42096 57.4378L9.42096 56.5378ZM5.96631 55.1069C5.05008 54.1906 4.53534 52.9479 4.53534 51.6522H3.63534C3.63534 53.1866 4.2449 54.6582 5.32991 55.7433L5.96631 55.1069ZM4.53534 51.6522V37.4239H3.63534V51.6522H4.53534ZM43.879 0.795594C43.6717 0.68791 43.4401 0.635422 43.2066 0.643184L43.2365 1.54269C43.3156 1.54006 43.394 1.55783 43.4641 1.59428L43.879 0.795594ZM43.2066 0.643184C42.9731 0.650946 42.7456 0.718697 42.5459 0.839912L43.0128 1.60929C43.0804 1.56825 43.1575 1.54531 43.2365 1.54269L43.2066 0.643184ZM42.5459 0.839912C42.3462 0.961127 42.181 1.13172 42.0664 1.33527L42.8505 1.77698C42.8893 1.70807 42.9452 1.65032 43.0128 1.60929L42.5459 0.839912ZM42.0664 1.33527C41.9517 1.53881 41.8914 1.76845 41.8912 2.00207L42.7912 2.00272C42.7913 1.92364 42.8117 1.84589 42.8505 1.77698L42.0664 1.33527ZM41.8912 2.0024V11.5781H42.7912V2.0024H41.8912ZM42.3412 11.1281H33.244V12.0281H42.3412V11.1281ZM33.694 11.5781V2.00062H32.794V11.5781H33.694ZM33.694 2.00087C33.6941 1.76704 33.6339 1.53713 33.5192 1.33338L32.735 1.77498C32.7737 1.84378 32.794 1.92141 32.794 2.00037L33.694 2.00087ZM33.5192 1.33338C33.4044 1.12963 33.2391 0.958939 33.0391 0.837811L32.5728 1.60764C32.6404 1.64854 32.6962 1.70618 32.735 1.77498L33.5192 1.33338ZM33.0391 0.837811C32.839 0.716682 32.6112 0.649215 32.3774 0.641937L32.3494 1.5415C32.4284 1.54396 32.5053 1.56674 32.5728 1.60764L33.0391 0.837811ZM32.3774 0.641937C32.1437 0.634658 31.9121 0.687815 31.7049 0.796265L32.1223 1.59361C32.1923 1.55699 32.2705 1.53904 32.3494 1.5415L32.3774 0.641937ZM31.706 0.795715C29.5291 1.928 27.7114 3.6453 26.4574 5.7544L27.231 6.21435C28.3994 4.24923 30.093 2.64916 32.1213 1.59416L31.706 0.795715ZM26.4574 5.7544C25.2034 7.86349 24.5629 10.2807 24.6078 12.734L25.5077 12.7175C25.4658 10.4317 26.0626 8.17947 27.231 6.21435L26.4574 5.7544ZM24.6078 12.734C24.6528 15.1873 25.3815 17.5794 26.712 19.6412L27.4682 19.1532C26.2285 17.2322 25.5496 15.0034 25.5077 12.7175L24.6078 12.734ZM26.712 19.6412C28.0424 21.7029 29.9218 23.3524 32.1387 24.4042L32.5245 23.591C30.4589 22.6111 28.7078 21.0741 27.4682 19.1532L26.712 19.6412ZM31.8816 23.9976V52.2888H32.7816V23.9976H31.8816ZM31.8816 52.2888C31.8816 53.8563 32.5043 55.3596 33.6126 56.4679L34.249 55.8315C33.3094 54.8919 32.7816 53.6176 32.7816 52.2888H31.8816ZM33.6126 56.4679C34.721 57.5763 36.2243 58.1989 37.7917 58.1989V57.2989C36.4629 57.2989 35.1886 56.7711 34.249 55.8315L33.6126 56.4679ZM37.7917 58.1989C39.3592 58.1989 40.8624 57.5763 41.9708 56.4679L41.3344 55.8315C40.3948 56.7711 39.1205 57.2989 37.7917 57.2989V58.1989ZM41.9708 56.4679C43.0792 55.3596 43.7018 53.8563 43.7018 52.2888H42.8018C42.8018 53.6176 42.274 54.8919 41.3344 55.8315L41.9708 56.4679ZM43.7018 52.2888V23.9976H42.8018V52.2888H43.7018ZM43.4446 24.4042C45.6621 23.3532 47.5423 21.7039 48.8733 19.6423L48.1172 19.1541C46.877 21.075 45.1252 22.6116 43.0591 23.591L43.4446 24.4042ZM48.8733 19.6423C50.2044 17.5806 50.9336 15.1883 50.9787 12.7346L50.0789 12.7181C50.0368 15.0042 49.3574 17.2332 48.1172 19.1541L48.8733 19.6423ZM50.9787 12.7346C51.0239 10.281 50.3833 7.86349 49.129 5.75421L48.3554 6.21422C49.5241 8.17949 50.121 10.432 50.0789 12.7181L50.9787 12.7346ZM49.129 5.75421C47.8747 3.64494 46.0565 1.92765 43.8791 0.795672L43.464 1.5942C45.4927 2.6489 47.1867 4.24894 48.3554 6.21422L49.129 5.75421ZM41.8168 22.1527C41.5697 22.2563 41.3586 22.4306 41.2102 22.6538L41.9595 23.1523C42.0097 23.0768 42.0812 23.0177 42.1649 22.9826L41.8168 22.1527ZM41.2102 22.6538C41.0617 22.8769 40.9825 23.139 40.9824 23.407L41.8824 23.4073C41.8824 23.3165 41.9092 23.2278 41.9595 23.1523L41.2102 22.6538ZM40.9824 23.4071V52.2888H41.8824V23.4071H40.9824ZM40.9824 52.2888C40.9824 53.1348 40.6463 53.9461 40.0481 54.5443L40.6845 55.1807C41.4515 54.4138 41.8824 53.3735 41.8824 52.2888H40.9824ZM40.0481 54.5443C39.4499 55.1425 38.6386 55.4786 37.7926 55.4786V56.3786C38.8773 56.3786 39.9175 55.9477 40.6845 55.1807L40.0481 54.5443ZM37.7926 55.4786C36.9466 55.4786 36.1353 55.1425 35.5371 54.5443L34.9007 55.1807C35.6677 55.9477 36.7079 56.3786 37.7926 56.3786V55.4786ZM35.5371 54.5443C34.9389 53.9461 34.6028 53.1348 34.6028 52.2888H33.7028C33.7028 53.3735 34.1337 54.4138 34.9007 55.1807L35.5371 54.5443ZM34.6028 52.2888V23.4071H33.7028V52.2888H34.6028ZM34.6028 23.407C34.6027 23.139 34.5235 22.8769 34.375 22.6538L33.6257 23.1523C33.676 23.2278 33.7028 23.3165 33.7028 23.4073L34.6028 23.407ZM34.375 22.6538C34.2266 22.4306 34.0155 22.2563 33.7684 22.1527L33.4203 22.9826C33.504 23.0177 33.5755 23.0767 33.6257 23.1523L34.375 22.6538ZM33.7675 22.1523C32.0485 21.4356 30.5518 20.273 29.4321 18.7846L28.7129 19.3257C29.9289 20.942 31.5543 22.2046 33.4212 22.983L33.7675 22.1523ZM29.4321 18.7846C28.3124 17.2963 27.6103 15.536 27.3981 13.6857L26.5039 13.7882C26.7344 15.7977 27.4969 17.7093 28.7129 19.3257L29.4321 18.7846ZM27.3981 13.6857C27.1859 11.8353 27.4713 9.9618 28.225 8.2586L27.402 7.89441C26.5835 9.74408 26.2735 11.7787 26.5039 13.7882L27.3981 13.6857ZM28.225 8.2586C28.9787 6.55541 30.1733 5.08421 31.6855 3.99689L31.1601 3.26618C29.5178 4.44701 28.2205 6.04473 27.402 7.89441L28.225 8.2586ZM30.9728 3.63154V12.4887H31.8728V3.63154H30.9728ZM30.9728 12.4887C30.9728 12.8495 31.1161 13.1956 31.3713 13.4508L32.0077 12.8144C31.9213 12.728 31.8728 12.6108 31.8728 12.4887H30.9728ZM31.3713 13.4508C31.6264 13.7059 31.9725 13.8493 32.3334 13.8493V12.9493C32.2112 12.9493 32.0941 12.9008 32.0077 12.8144L31.3713 13.4508ZM32.3334 13.8493H43.2518V12.9493H32.3334V13.8493ZM43.2518 13.8493C43.6127 13.8493 43.9588 13.7059 44.2139 13.4508L43.5775 12.8144C43.4911 12.9008 43.374 12.9493 43.2518 12.9493V13.8493ZM44.2139 13.4508C44.4691 13.1956 44.6124 12.8495 44.6124 12.4887H43.7124C43.7124 12.6108 43.6639 12.728 43.5775 12.8144L44.2139 13.4508ZM44.6124 12.4887V3.63154H43.7124V12.4887H44.6124ZM43.9 3.99711C45.414 5.08382 46.6102 6.55516 47.3651 8.25903L48.1879 7.89448C47.3682 6.04405 46.069 4.44615 44.4248 3.26597L43.9 3.99711ZM47.3651 8.25903C48.1199 9.9629 48.406 11.8375 48.1937 13.6889L49.0879 13.7914C49.3184 11.7807 49.0077 9.74491 48.1879 7.89448L47.3651 8.25903ZM48.1937 13.6889C47.9815 15.5404 47.2786 17.3016 46.1577 18.7904L46.8767 19.3317C48.094 17.7148 48.8574 15.8022 49.0879 13.7914L48.1937 13.6889ZM46.1577 18.7904C45.0368 20.2792 43.5386 21.4416 41.818 22.1575L42.1637 22.9885C44.0323 22.211 45.6594 20.9486 46.8767 19.3317L46.1577 18.7904ZM42.4408 22.573V22.5677H41.5408V22.573H42.4408ZM12.5369 32.9774V16.2254H11.6369V32.9774H12.5369ZM12.5137 16.3679L14.2496 11.1692L13.3959 10.8842L11.6601 16.0829L12.5137 16.3679ZM14.2497 11.169C14.3233 10.9481 14.3381 10.7117 14.2925 10.4833L13.4099 10.6595C13.4249 10.7344 13.42 10.8119 13.3959 10.8844L14.2497 11.169ZM14.2925 10.4831L12.5139 1.59045L11.6314 1.76695L13.41 10.6597L14.2925 10.4831ZM12.5136 1.5887C12.4518 1.2862 12.2875 1.01432 12.0483 0.819075L11.4792 1.51627C11.5576 1.58031 11.6115 1.66948 11.6318 1.7687L12.5136 1.5887ZM12.0483 0.819075C11.8091 0.623833 11.5099 0.517222 11.2011 0.517285L11.2013 1.41729C11.3026 1.41726 11.4007 1.45223 11.4792 1.51627L12.0483 0.819075ZM11.2012 0.517285H7.64412V1.41729H11.2012V0.517285ZM7.64421 0.517285C7.33547 0.517222 7.03619 0.623833 6.79702 0.819075L7.36615 1.51627C7.4446 1.45223 7.54276 1.41726 7.64403 1.41729L7.64421 0.517285ZM6.79702 0.819075C6.55784 1.01432 6.39348 1.2862 6.33173 1.5887L7.21354 1.7687C7.2338 1.66948 7.28771 1.58031 7.36615 1.51627L6.79702 0.819075ZM6.33137 1.59045L4.55283 10.4831L5.43536 10.6597L7.2139 1.76695L6.33137 1.59045ZM4.5528 10.4833C4.50721 10.7117 4.52199 10.9481 4.59565 11.169L5.44945 10.8844C5.42529 10.8119 5.42044 10.7344 5.43539 10.6595L4.5528 10.4833ZM4.59567 11.1691L6.32975 16.3678L7.18351 16.083L5.44943 10.8843L4.59567 11.1691ZM6.30663 16.2254V32.9774H7.20663V16.2254H6.30663ZM6.75663 32.5274H3.19955V33.4274H6.75663V32.5274ZM3.19955 32.5274C2.37265 32.5274 1.57963 32.8559 0.994924 33.4406L1.63132 34.077C2.04724 33.6611 2.61135 33.4274 3.19955 33.4274V32.5274ZM0.994924 33.4406C0.410221 34.0253 0.0817383 34.8184 0.0817383 35.6453H0.981738C0.981738 35.0571 1.2154 34.4929 1.63132 34.077L0.994924 33.4406ZM0.0817383 35.6453C0.0817383 36.4722 0.410221 37.2652 0.994924 37.8499L1.63132 37.2135C1.2154 36.7976 0.981738 36.2335 0.981738 35.6453H0.0817383ZM0.994924 37.8499C1.57963 38.4346 2.37265 38.7631 3.19955 38.7631V37.8631C2.61135 37.8631 2.04724 37.6294 1.63132 37.2135L0.994924 37.8499ZM2.74955 38.3131V51.6521H3.64955V38.3131H2.74955ZM2.74955 51.6521C2.74955 53.4224 3.45279 55.1202 4.70458 56.372L5.34097 55.7356C4.25797 54.6526 3.64955 53.1837 3.64955 51.6521H2.74955ZM4.70458 56.372C5.95636 57.6238 7.65415 58.327 9.42444 58.327L9.42444 57.427C7.89284 57.427 6.42398 56.8186 5.34097 55.7356L4.70458 56.372ZM9.42444 58.327C11.1947 58.327 12.8925 57.6238 14.1443 56.372L13.5079 55.7356C12.4249 56.8186 10.956 57.427 9.42444 57.427L9.42444 58.327ZM14.1443 56.372C15.3961 55.1202 16.0993 53.4224 16.0993 51.6521H15.1993C15.1993 53.1837 14.5909 54.6526 13.5079 55.7356L14.1443 56.372ZM16.0993 51.6521V38.3131H15.1993V51.6521H16.0993ZM15.6493 38.7631C16.4762 38.7631 17.2692 38.4346 17.854 37.8499L17.2176 37.2135C16.8016 37.6294 16.2375 37.8631 15.6493 37.8631V38.7631ZM17.854 37.8499C18.4387 37.2652 18.7671 36.4722 18.7671 35.6453H17.8671C17.8671 36.2335 17.6335 36.7976 17.2176 37.2135L17.854 37.8499ZM18.7671 35.6453C18.7671 34.8184 18.4387 34.0253 17.854 33.4406L17.2176 34.077C17.6335 34.4929 17.8671 35.0571 17.8671 35.6453H18.7671ZM17.854 33.4406C17.2692 32.8559 16.4762 32.5274 15.6493 32.5274V33.4274C16.2375 33.4274 16.8016 33.6611 17.2176 34.077L17.854 33.4406ZM8.37154 3.19227H10.4702V2.29227H8.37154V3.19227ZM10.029 2.83056L11.619 10.7771L12.5015 10.6005L10.9115 2.65398L10.029 2.83056ZM11.6334 10.5463L9.92775 15.6579L10.7815 15.9427L12.4871 10.8312L11.6334 10.5463ZM9.92654 15.6615C9.88261 15.7971 9.8602 15.9387 9.86015 16.0811L10.7601 16.0815C10.7602 16.0331 10.7678 15.9851 10.7827 15.9391L9.92654 15.6615ZM9.86015 16.0813V32.9774H10.7601V16.0813H9.86015ZM10.3101 32.5274H8.53161V33.4274H10.3101V32.5274ZM8.98161 32.9774V16.0813H8.08161V32.9774H8.98161ZM8.98161 16.0811C8.98156 15.9387 8.95915 15.7971 8.91522 15.6615L8.05908 15.9391C8.07399 15.9851 8.08159 16.0331 8.08161 16.0815L8.98161 16.0811ZM8.91401 15.6579L7.20839 10.5463L6.35466 10.8312L8.06028 15.9427L8.91401 15.6579ZM7.22278 10.7771L8.8128 2.83056L7.93029 2.65398L6.34027 10.6005L7.22278 10.7771ZM13.4172 51.6521C13.4172 52.1769 13.3139 52.6966 13.113 53.1815L13.9445 53.5259C14.1906 52.9318 14.3172 52.2951 14.3172 51.6521L13.4172 51.6521ZM13.113 53.1815C12.9122 53.6663 12.6178 54.1069 12.2467 54.478L12.8831 55.1144C13.3378 54.6597 13.6985 54.1199 13.9445 53.5259L13.113 53.1815ZM12.2467 54.478C11.8756 54.8491 11.4351 55.1434 10.9502 55.3443L11.2946 56.1758C11.8887 55.9297 12.4285 55.569 12.8831 55.1144L12.2467 54.478ZM10.9502 55.3443C10.4654 55.5451 9.94569 55.6485 9.42088 55.6485V56.5485C10.0639 56.5485 10.7006 56.4218 11.2946 56.1758L10.9502 55.3443ZM9.42088 55.6485C8.89607 55.6485 8.3764 55.5451 7.89154 55.3443L7.54713 56.1758C8.14118 56.4218 8.77788 56.5485 9.42088 56.5485V55.6485ZM7.89154 55.3443C7.40668 55.1434 6.96613 54.8491 6.59504 54.478L5.95864 55.1144C6.41331 55.569 6.95308 55.9297 7.54713 56.1758L7.89154 55.3443ZM6.59504 54.478C6.22394 54.1069 5.92957 53.6663 5.72873 53.1815L4.89724 53.5259C5.14331 54.1199 5.50397 54.6597 5.95864 55.1144L6.59504 54.478ZM5.72873 53.1815C5.5279 52.6966 5.42453 52.1769 5.42453 51.6521L4.52453 51.6521C4.52453 52.2951 4.65118 52.9318 4.89724 53.5259L5.72873 53.1815ZM5.42453 51.6521V38.3131H4.52453V51.6521H5.42453ZM4.97453 38.7631H13.8672V37.8631H4.97453V38.7631ZM13.4172 38.3131V51.6521H14.3172V38.3131H13.4172ZM15.6458 36.0845H3.19599V36.9845H15.6458V36.0845ZM3.19599 36.0845C3.07949 36.0845 2.96776 36.0382 2.88538 35.9559L2.24898 36.5923C2.50015 36.8434 2.8408 36.9845 3.19599 36.9845V36.0845ZM2.88538 35.9559C2.803 35.8735 2.75672 35.7618 2.75672 35.6453H1.85672C1.85672 36.0005 1.99782 36.3411 2.24898 36.5923L2.88538 35.9559ZM2.75672 35.6453C2.75672 35.5288 2.803 35.417 2.88538 35.3346L2.24898 34.6982C1.99782 34.9494 1.85672 35.2901 1.85672 35.6453H2.75672ZM2.88538 35.3346C2.96776 35.2523 3.07949 35.206 3.19599 35.206V34.306C2.8408 34.306 2.50015 34.4471 2.24898 34.6982L2.88538 35.3346ZM3.19599 35.206H15.6458V34.306H3.19599V35.206ZM15.6458 35.206C15.7623 35.206 15.874 35.2523 15.9564 35.3346L16.5928 34.6982C16.3416 34.4471 16.001 34.306 15.6458 34.306V35.206ZM15.9564 35.3346C16.0388 35.417 16.085 35.5288 16.085 35.6453H16.985C16.985 35.2901 16.8439 34.9494 16.5928 34.6982L15.9564 35.3346ZM16.085 35.6453C16.085 35.7618 16.0388 35.8735 15.9564 35.9559L16.5928 36.5923C16.8439 36.3411 16.985 36.0005 16.985 35.6453H16.085ZM15.9564 35.9559C15.874 36.0382 15.7623 36.0845 15.6458 36.0845V36.9845C16.001 36.9845 16.3416 36.8434 16.5928 36.5923L15.9564 35.9559ZM15.6493 32.5274H12.0869V33.4274H15.6493V32.5274Z" fill="black"/>
</svg>
