<svg width="69" height="42" viewBox="0 0 69 42" fill="none" xmlns="http://www.w3.org/2000/svg">
<path d="M2.18463 35.6014L56.1807 25.7853L57.1656 31.2027L6.29402 40.4507C3.93523 40.8795 1.67552 39.315 1.24664 36.9562C1.13148 36.323 1.55147 35.7166 2.18463 35.6014ZM2.18463 14.0495L56.1807 23.8656L57.1656 18.4482L6.29388 9.20007C3.93509 8.77132 1.67539 10.3358 1.24651 12.6946C1.13148 13.3279 1.55147 13.9345 2.18463 14.0495Z" fill="white"/>
<path d="M33.2521 26.7137L4.22398 31.9907C3.59081 32.1059 3.17083 32.7123 3.28599 33.3456L3.6474 35.334L34.9685 29.6402L34.6071 27.6518C34.4918 27.0186 33.8853 26.5987 33.2521 26.7137ZM33.2521 22.9374L4.22384 17.6604C3.59068 17.5452 3.1707 16.9388 3.28585 16.3055L3.64726 14.3171L34.9683 20.0109L34.6069 21.9993C34.4918 22.6326 33.8853 23.0526 33.2521 22.9374Z" fill="white"/>
<path d="M55.8067 18.2021C59.4628 18.2021 62.4303 21.1696 62.4303 24.8256C62.4303 28.4817 59.4628 31.4492 55.8067 31.4492C52.1507 31.4492 49.1902 28.4817 49.1902 24.8256C49.1902 21.1696 52.1505 18.2021 55.8067 18.2021Z" fill="#FDA1A5"/>
<path d="M55.8088 22.5899C57.043 22.5899 58.0446 23.5917 58.0446 24.8257C58.0446 26.0599 57.0429 27.0615 55.8088 27.0615C54.5747 27.0615 53.5754 26.0598 53.5754 24.8257C53.5753 23.5915 54.5747 22.5899 55.8088 22.5899Z" fill="#FDA1A5"/>
<path d="M25.3936 1.72443C25.3936 3.95027 27.2046 5.76143 29.4306 5.76143L62.4304 5.76183C65.0097 5.76183 67.1079 7.86002 67.1079 10.4393L67.1079 19.4401C67.1079 21.7919 65.3618 23.7381 63.0988 24.0642C62.7197 20.408 59.6425 17.5454 55.8985 17.4985L6.42061 8.50368C5.09385 8.26221 3.75234 8.55242 2.64354 9.3204C1.53461 10.088 0.791337 11.2414 0.549867 12.5683C0.366306 13.5966 1.04489 14.5628 2.05833 14.7471L2.82405 14.8863L2.58895 16.1792C2.4038 17.2124 3.08983 18.1747 4.09742 18.358L33.1254 23.6349C34.1439 23.8203 35.1184 23.1457 35.3039 22.1265L35.539 20.8337L48.6647 23.2198C48.5485 23.7376 48.4821 24.2738 48.4821 24.8261C48.4821 25.3783 48.5485 25.9145 48.6647 26.4323L35.539 28.8184L35.3039 27.525C35.1188 26.5092 34.1417 25.8326 33.1258 26.017L4.09768 31.294C3.0792 31.4783 2.4038 32.4525 2.58895 33.4725L2.82405 34.7654L2.05833 34.9046C1.05007 35.088 0.365244 36.0501 0.549867 37.0832C0.791337 38.4103 1.53474 39.564 2.64354 40.3317C3.75248 41.0993 5.09385 41.3895 6.42061 41.1481L55.9013 32.1531C59.6753 32.1045 62.7682 29.1937 63.1049 25.4948C66.1486 25.1579 68.5247 22.5722 68.5247 19.4401L68.5247 10.4393C68.5247 7.07903 65.7907 4.34501 62.4304 4.34501L29.4306 4.34461C27.9859 4.34461 26.8104 3.16927 26.8104 1.72443C26.8104 1.33314 26.4932 1.01609 26.1021 1.01609C25.7109 1.01609 25.3936 1.33314 25.3936 1.72443ZM33.3786 22.2407L4.35057 16.9638C4.09967 16.9182 3.9371 16.6766 3.98292 16.4325L4.21775 15.1409L34.1447 20.5819L33.9099 21.8732C33.8651 22.1192 33.6296 22.2861 33.3786 22.2407ZM3.98279 33.2194C3.93643 32.9802 4.09529 32.7344 4.35044 32.6881L33.3785 27.4109C33.6265 27.3663 33.8647 27.5313 33.9098 27.7786L34.1446 29.0701L4.21762 34.5105L3.98279 33.2194ZM2.31149 13.353C2.05952 13.3072 1.89695 13.0635 1.94384 12.8217C2.30219 10.8512 4.19703 9.53916 6.16758 9.89751L52.4573 18.3127C50.9778 19.0783 49.7921 20.3315 49.1131 21.8612L2.31149 13.353ZM3.45017 39.1665C2.65231 38.6141 2.11743 37.7843 1.94384 36.8293C1.89814 36.5888 2.05793 36.3444 2.31149 36.2983L49.1133 27.7903C49.7922 29.3201 50.9781 30.5733 52.4577 31.3386L6.16758 39.7538C5.21286 39.9276 4.2479 39.719 3.45017 39.1665ZM55.8066 30.7409C52.5488 30.7409 49.8988 28.0876 49.8988 24.8258C49.8988 21.564 52.549 18.9103 55.8066 18.9103C59.0684 18.9103 61.7221 21.564 61.7221 24.8258C61.7221 28.0876 59.0683 30.7409 55.8066 30.7409Z" fill="black"/>
<path fill-rule="evenodd" clip-rule="evenodd" d="M0.549738 12.568C0.791209 11.2411 1.53448 10.0877 2.64341 9.32014C3.75221 8.55216 5.09372 8.26195 6.42048 8.50342L55.8983 17.4983C59.5188 17.5436 62.5158 20.2219 63.0524 23.7048C63.0707 23.8236 63.0861 23.9433 63.0986 24.0639C63.2192 24.0466 63.3383 24.0246 63.4558 23.9982C65.5428 23.5293 67.1077 21.6663 67.1077 19.4399L67.1077 10.439C67.1077 7.85976 65.0096 5.76157 62.4303 5.76157L29.4305 5.76117C27.2045 5.76117 25.3935 3.95001 25.3935 1.72417C25.3935 1.33288 25.7108 1.01583 26.1019 1.01583C26.4931 1.01583 26.8103 1.33288 26.8103 1.72417C26.8103 3.16901 27.9858 4.34435 29.4305 4.34435L62.4303 4.34475C65.7906 4.34475 68.5246 7.07876 68.5246 10.439L68.5246 19.4399C68.5246 22.5719 66.1485 25.1576 63.1048 25.4946C62.768 29.1934 59.6752 32.1042 55.9011 32.1528L6.42048 41.1478C5.09372 41.3893 3.75235 41.0991 2.64341 40.3315C1.53461 39.5638 0.791209 38.4101 0.549738 37.0829C0.365115 36.0498 1.04995 35.0878 2.0582 34.9044L2.82392 34.7652L2.58882 33.4723C2.40367 32.4522 3.07907 31.4781 4.09755 31.2937L33.1257 26.0167C34.1415 25.8323 35.1187 26.5089 35.3037 27.5248L35.5388 28.8182L48.6646 26.432C48.6382 26.3146 48.6144 26.1962 48.5934 26.0769C48.5217 25.6702 48.482 25.2528 48.482 24.8258C48.482 24.3988 48.5217 23.9814 48.5934 23.5747C48.6144 23.4554 48.6382 23.337 48.6646 23.2196L35.5388 20.8334L35.3037 22.1262C35.1183 23.1455 34.1438 23.8201 33.1253 23.6347L4.09729 18.3578C3.0897 18.1745 2.40367 17.2122 2.58882 16.1789L2.82392 14.8861L2.0582 14.7469C1.04477 14.5625 0.366178 13.5964 0.549738 12.568ZM2.40289 15.1775L1.99344 15.1031C0.784078 14.8831 -0.0254005 13.7295 0.193284 12.5044L0.193498 12.5032C0.452151 11.0819 1.24939 9.84468 2.43734 9.02242C3.62503 8.19982 5.06396 7.88851 6.48525 8.14717C6.48527 8.14717 6.48522 8.14717 6.48525 8.14717L55.9336 17.1367C59.7153 17.1989 62.8418 19.9978 63.4084 23.6376C65.3182 23.1932 66.7457 21.4812 66.7457 19.4399L66.7457 10.439C66.7457 8.05973 64.8096 6.12366 62.4303 6.12366L29.4305 6.12326C27.0045 6.12326 25.0314 4.14997 25.0314 1.72417C25.0314 1.13277 25.5109 0.653736 26.1019 0.653736C26.693 0.653736 27.1724 1.13286 27.1724 1.72417C27.1724 2.96902 28.1857 3.98226 29.4305 3.98226L62.4303 3.98266C65.9905 3.98266 68.8867 6.87879 68.8867 10.439L68.8867 19.4399C68.8867 22.6591 66.5185 25.3322 63.4336 25.8158C62.9512 29.5498 59.785 32.4497 55.9365 32.5144L6.48532 41.504C6.48529 41.504 6.48534 41.504 6.48532 41.504C5.06399 41.7627 3.62513 41.4514 2.43734 40.6292C1.24955 39.8068 0.452144 38.5693 0.193498 37.1477L0.193295 37.1466C-0.0267447 35.9153 0.790593 34.7669 1.99339 34.5481L2.40289 34.4737L2.23258 33.537C2.01174 32.3204 2.81747 31.1576 4.03279 30.9375M4.03279 30.9375L33.061 25.6604C34.2735 25.4404 35.4391 26.2474 35.66 27.4599L35.8303 28.3972L48.2371 26.1417C48.1618 25.7152 48.1199 25.2761 48.1199 24.8258C48.1199 24.3755 48.1618 23.9364 48.2371 23.5099L35.8303 21.2544L35.66 22.191C35.4388 23.4069 34.2759 24.2121 33.0606 23.9909C33.0605 23.9909 33.0606 23.9909 33.0606 23.9909L4.03253 18.714C2.8306 18.4954 2.01169 17.3468 2.23241 16.1151L2.23258 16.1142L2.40289 15.1775M4.35045 16.9635L33.3785 22.2404C33.6295 22.2858 33.865 22.1189 33.9098 21.8729L34.1446 20.5816L4.21762 15.1407L3.98279 16.4322C3.93697 16.6764 4.09954 16.918 4.35045 16.9635ZM4.5091 15.5617L4.33867 16.499C4.3297 16.5468 4.36285 16.5978 4.41514 16.6073L33.443 21.8841C33.443 21.8841 33.4429 21.8841 33.443 21.8841C33.4954 21.8935 33.5442 21.8593 33.5535 21.8081C33.5535 21.8081 33.5535 21.8081 33.5535 21.8081L33.7236 20.8731L4.5091 15.5617ZM4.33891 33.1543L4.50895 34.0893L33.7234 28.7784L33.5534 27.8432C33.5443 27.793 33.4946 27.7577 33.4426 27.767C33.4426 27.767 33.4426 27.767 33.4426 27.767L4.41508 33.0441C4.36121 33.0539 4.32958 33.1061 4.33814 33.1502L4.33891 33.1543ZM33.3783 27.4107L4.35031 32.6878C4.09516 32.7342 3.93631 32.9799 3.98266 33.2191L4.21749 34.5103L34.1445 29.0699L33.9096 27.7783C33.8646 27.531 33.6263 27.366 33.3783 27.4107ZM1.94371 12.8215C1.89682 13.0632 2.0594 13.3069 2.31136 13.3528L49.113 21.8609C49.7151 20.5046 50.7155 19.3656 51.9659 18.5912C52.1257 18.4922 52.2896 18.3992 52.4572 18.3125L6.16745 9.89725C4.1969 9.5389 2.30206 10.8509 1.94371 12.8215ZM51.4488 18.4972L6.10267 10.2535C4.32891 9.93093 2.62254 11.1124 2.29995 12.8863L2.2992 12.8904C2.29075 12.934 2.32232 12.9867 2.37615 12.9965L48.903 21.4547C49.486 20.2633 50.3669 19.2454 51.4488 18.4972ZM3.65622 38.8686C4.37495 39.3664 5.24242 39.5539 6.10263 39.3973L51.449 31.1537C50.367 30.4056 49.4861 29.3877 48.9031 28.1962L2.37612 36.6543C2.32333 36.6639 2.29072 36.7156 2.29944 36.7615L2.29997 36.7643C2.45639 37.6248 2.9373 38.3708 3.65622 38.8686ZM49.1131 27.79L2.31136 36.2981C2.0578 36.3441 1.89802 36.5885 1.94371 36.8291C2.11731 37.7841 2.65218 38.6138 3.45004 39.1662C4.24777 39.7188 5.21273 39.9273 6.16745 39.7536L52.4576 31.3383C52.2899 31.2516 52.126 31.1586 51.9662 31.0597C50.7157 30.2854 49.7152 29.1465 49.1131 27.79ZM50.2607 24.8255C50.2607 27.8878 52.7491 30.3786 55.8064 30.3786C58.8682 30.3786 61.3599 27.8874 61.3599 24.8255C61.3599 21.7637 58.8683 19.2721 55.8064 19.2721C52.7493 19.2721 50.2607 21.7632 50.2607 24.8255ZM49.8986 24.8255C49.8986 28.0874 52.5487 30.7406 55.8064 30.7406C59.0682 30.7406 61.7219 28.0874 61.7219 24.8255C61.7219 21.5637 59.0683 18.91 55.8064 18.91C52.5488 18.91 49.8986 21.5637 49.8986 24.8255Z" fill="black"/>
</svg>
