<svg width="50" height="50" viewBox="0 0 50 50" fill="none" xmlns="http://www.w3.org/2000/svg">
<path d="M20.106 36.4861H29.9246V48.0796H20.106V36.4861Z" fill="#FDA1A5"/>
<path fill-rule="evenodd" clip-rule="evenodd" d="M22.3632 36.6432C21.6667 36.6432 21.102 37.2147 21.102 37.9198V48.4593C21.102 49.1643 20.5373 49.7358 19.8407 49.7358C19.1441 49.7358 18.5794 49.1643 18.5794 48.4593V37.9198C18.5794 35.8047 20.2735 34.0902 22.3632 34.0902H27.6671C29.7569 34.0902 31.451 35.8047 31.451 37.9198V48.4593C31.451 49.1643 30.8863 49.7358 30.1897 49.7358C29.4931 49.7358 28.9284 49.1643 28.9284 48.4593V37.9198C28.9284 37.2147 28.3637 36.6432 27.6671 36.6432H22.3632Z" fill="black"/>
<path fill-rule="evenodd" clip-rule="evenodd" d="M37.2887 0.0493164C37.9852 0.0493164 39.2129 0.620839 39.2129 1.32585V12.53L49.1312 21.3133C49.6554 21.7776 49.7086 22.5841 49.2499 23.1146C48.7912 23.6452 47.9943 23.699 47.4701 23.2347L44.3874 20.5048V47.1827H48.3006C48.9972 47.1827 49.5619 47.7542 49.5619 48.4593C49.5619 49.1643 48.9972 49.7358 48.3006 49.7358H1.73005C1.03346 49.7358 0.468764 49.1643 0.468764 48.4593C0.468764 47.7542 1.03346 47.1827 1.73005 47.1827H5.64327V20.4615L2.56801 23.2281C2.04737 23.6965 1.25014 23.649 0.787353 23.1221C0.324564 22.5952 0.371459 21.7883 0.892097 21.3199L20.8047 3.40595C23.2052 1.24636 26.8259 1.25767 29.2132 3.43222L35.0539 8.3304V1.32585C35.0539 0.620839 36.5921 0.0493164 37.2887 0.0493164ZM8.16585 18.1921L22.4806 5.31413C23.9209 4.01838 26.0933 4.02516 27.5257 5.32989L37.1079 14.058L41.8649 18.2709V47.1827H8.16585V18.1921Z" fill="black"/>
<path fill-rule="evenodd" clip-rule="evenodd" d="M25.0154 24.958C27.9089 24.958 30.2545 22.5839 30.2545 19.6555C30.2545 16.727 27.9089 14.3529 25.0154 14.3529C22.1218 14.3529 19.7762 16.727 19.7762 19.6555C19.7762 22.5839 22.1218 24.958 25.0154 24.958Z" fill="black"/>
<path fill-rule="evenodd" clip-rule="evenodd" d="M25.0154 24.958C27.9089 24.958 30.2545 22.5839 30.2545 19.6555C30.2545 16.727 27.9089 14.3529 25.0154 14.3529C22.1218 14.3529 19.7762 16.727 19.7762 19.6555C19.7762 22.5839 22.1218 24.958 25.0154 24.958Z" fill="black"/>
<path fill-rule="evenodd" clip-rule="evenodd" d="M25.0152 22.221C26.3664 22.221 27.5177 21.1034 27.5177 19.6553C27.5177 18.2072 26.3664 17.0896 25.0152 17.0896C23.6641 17.0896 22.5128 18.2072 22.5128 19.6553C22.5128 21.1034 23.6641 22.221 25.0152 22.221ZM30.2545 19.6555C30.2545 22.5839 27.9089 24.958 25.0154 24.958C22.1218 24.958 19.7762 22.5839 19.7762 19.6555C19.7762 16.727 22.1218 14.3529 25.0154 14.3529C27.9089 14.3529 30.2545 16.727 30.2545 19.6555Z" fill="black"/>
</svg>
