<svg width="50" height="52" viewBox="0 0 50 52" fill="none" xmlns="http://www.w3.org/2000/svg">
<path fill-rule="evenodd" clip-rule="evenodd" d="M24.4773 2.62908C24.6632 2.57816 24.8745 2.57816 25.0604 2.62908C34.0251 5.08477 39.3781 11.6714 42.5595 19.4386C45.75 27.2282 46.6924 36.0727 46.8711 42.7031C46.8894 43.3816 46.3323 43.9632 45.6033 43.9632H33.8839V27.1225C33.8839 24.9762 32.1349 23.2362 29.9775 23.2362H19.5602C17.4027 23.2362 15.6538 24.9762 15.6538 27.1225V43.9632H3.93437C3.20542 43.9632 2.64827 43.3816 2.66656 42.7031C2.84527 36.0727 3.78773 27.2281 6.97823 19.4386C10.1596 11.6713 15.5125 5.08473 24.4773 2.62908ZM16.9354 46.5541C16.9422 46.5542 16.9491 46.5542 16.9559 46.5542C16.9628 46.5542 16.9696 46.5542 16.9765 46.5541H32.5612C32.5681 46.5542 32.5749 46.5542 32.5818 46.5542C32.5886 46.5542 32.5955 46.5542 32.6023 46.5541H41.6969V50.4404C41.6969 51.1558 42.2799 51.7358 42.999 51.7358C43.7182 51.7358 44.3012 51.1558 44.3012 50.4404V46.5541H45.6033C47.751 46.5541 49.5333 44.816 49.4745 42.6337C49.2922 35.871 48.333 26.6687 44.9712 18.461C41.6003 10.231 35.7504 2.87004 25.7518 0.131154C25.1134 -0.0437173 24.4243 -0.0437175 23.7859 0.131151C13.7873 2.87001 7.93735 10.231 4.56646 18.4609C1.20468 26.6686 0.245462 35.871 0.0631831 42.6337C0.00436186 44.816 1.78668 46.5541 3.93437 46.5541H5.23652V50.4404C5.23652 51.1558 5.81952 51.7358 6.53868 51.7358C7.25784 51.7358 7.84083 51.1558 7.84083 50.4404V46.5541H16.9354ZM31.2796 43.9632H18.2581V27.1225C18.2581 26.4071 18.8411 25.8271 19.5602 25.8271H29.9775C30.6966 25.8271 31.2796 26.4071 31.2796 27.1225V43.9632Z" fill="black"/>
<path fill-rule="evenodd" clip-rule="evenodd" d="M31.2796 43.9632H18.2581V27.1225C18.2581 26.4071 18.8411 25.8271 19.5602 25.8271H29.9775C30.6966 25.8271 31.2796 26.4071 31.2796 27.1225V43.9632Z" fill="#FDA1A5"/>
</svg>
