<svg width="52" height="52" viewBox="0 0 52 52" fill="none" xmlns="http://www.w3.org/2000/svg">
<path fill-rule="evenodd" clip-rule="evenodd" d="M15.1853 15.1564H8.12764C6.25634 15.1564 4.46167 15.9005 3.13684 17.2233C1.81403 18.5481 1.06995 20.3428 1.06995 22.2141V30.28C1.06995 32.1513 1.81403 33.946 3.13684 35.2708C4.46167 36.5936 6.25634 37.3377 8.12764 37.3377H15.1853V44.3954C15.1853 46.2667 15.9294 48.0614 17.2522 49.3862C18.5771 50.709 20.3717 51.4531 22.243 51.4531H30.309C32.1803 51.4531 33.9749 50.709 35.2998 49.3862C36.6226 48.0614 37.3667 46.2667 37.3667 44.3954V37.3377H44.4244C46.2957 37.3377 48.0903 36.5936 49.4152 35.2708C50.738 33.946 51.4821 32.1513 51.4821 30.28V22.2141C51.4821 20.3428 50.738 18.5481 49.4152 17.2233C48.0903 15.9005 46.2957 15.1564 44.4244 15.1564H37.3667V8.09871C37.3667 6.22741 36.6226 4.43274 35.2998 3.10791C33.9749 1.7851 32.1803 1.04102 30.309 1.04102H22.243C20.3717 1.04102 18.5771 1.7851 17.2522 3.10791C15.9294 4.43274 15.1853 6.22741 15.1853 8.09871V15.1564Z" fill="#FDA1A5"/>
<path fill-rule="evenodd" clip-rule="evenodd" d="M15.1853 15.1564H8.12764C6.25634 15.1564 4.46167 15.9005 3.13684 17.2233C1.81403 18.5481 1.06995 20.3428 1.06995 22.2141V30.28C1.06995 32.1513 1.81403 33.946 3.13684 35.2708C4.46167 36.5936 6.25634 37.3377 8.12764 37.3377H15.1853V44.3954C15.1853 46.2667 15.9294 48.0614 17.2522 49.3862C18.5771 50.709 20.3717 51.4531 22.243 51.4531H30.309C32.1803 51.4531 33.9749 50.709 35.2998 49.3862C36.6226 48.0614 37.3667 46.2667 37.3667 44.3954V37.3377H44.4244C46.2957 37.3377 48.0903 36.5936 49.4152 35.2708C50.738 33.946 51.4821 32.1513 51.4821 30.28V22.2141C51.4821 20.3428 50.738 18.5481 49.4152 17.2233C48.0903 15.9005 46.2957 15.1564 44.4244 15.1564H37.3667V8.09871C37.3667 6.22741 36.6226 4.43274 35.2998 3.10791C33.9749 1.7851 32.1803 1.04102 30.309 1.04102H22.243C20.3717 1.04102 18.5771 1.7851 17.2522 3.10791C15.9294 4.43274 15.1853 6.22741 15.1853 8.09871V15.1564ZM16.1936 17.1729C16.7501 17.1729 17.2018 16.7212 17.2018 16.1646V8.09871C17.2018 6.76178 17.7322 5.4793 18.6779 4.53357C19.6236 3.58783 20.9061 3.0575 22.243 3.0575H30.309C31.6459 3.0575 32.9284 3.58783 33.8741 4.53357C34.8198 5.4793 35.3502 6.76178 35.3502 8.09871V16.1646C35.3502 16.7212 35.8019 17.1729 36.3584 17.1729H44.4244C45.7613 17.1729 47.0438 17.7032 47.9895 18.649C48.9352 19.5947 49.4656 20.8772 49.4656 22.2141V30.28C49.4656 31.617 48.9352 32.8994 47.9895 33.8452C47.0438 34.7909 45.7613 35.3212 44.4244 35.3212H36.3584C35.8019 35.3212 35.3502 35.7729 35.3502 36.3295V44.3954C35.3502 45.7324 34.8198 47.0148 33.8741 47.9606C32.9284 48.9063 31.6459 49.4366 30.309 49.4366H22.243C20.9061 49.4366 19.6236 48.9063 18.6779 47.9606C17.7322 47.0148 17.2018 45.7324 17.2018 44.3954V36.3295C17.2018 35.7729 16.7501 35.3212 16.1936 35.3212H8.12764C6.79071 35.3212 5.50823 34.7909 4.5625 33.8452C3.61677 32.8994 3.08643 31.617 3.08643 30.28V22.2141C3.08643 20.8772 3.61677 19.5947 4.5625 18.649C5.50823 17.7032 6.79071 17.1729 8.12764 17.1729H16.1936Z" fill="black"/>
<path fill-rule="evenodd" clip-rule="evenodd" d="M17.005 2.86014C18.3953 1.47195 20.2788 0.690918 22.2431 0.690918H30.309C32.2732 0.690918 34.1568 1.47195 35.5471 2.86014C36.9353 4.25044 37.7167 6.13437 37.7167 8.09861V14.8063H44.4244C46.3886 14.8063 48.2722 15.5873 49.6625 16.9755C51.0507 18.3658 51.8321 20.2498 51.8321 22.214V30.2799C51.8321 32.2442 51.051 34.1277 49.6629 35.518C48.2726 36.9062 46.3886 37.6876 44.4244 37.6876H37.7167V44.3953C37.7167 46.3596 36.9356 48.2431 35.5475 49.6334C34.1572 51.0216 32.2732 51.803 30.309 51.803H22.2431C20.2788 51.803 18.3953 51.022 17.005 49.6338C15.6168 48.2435 14.8354 46.3596 14.8354 44.3953V37.6876H8.12767C6.16342 37.6876 4.27987 36.9066 2.88957 35.5184C1.50138 34.1281 0.719971 32.2442 0.719971 30.2799V22.214C0.719971 20.2498 1.50101 18.3662 2.88919 16.9759C4.27949 15.5877 6.16342 14.8063 8.12767 14.8063H14.8354V8.09861C14.8354 6.13437 15.6168 4.25044 17.005 2.86014ZM17.4996 3.35549C17.4994 3.35562 17.4997 3.35536 17.4996 3.35549C18.7589 2.09828 20.4649 1.39092 22.2431 1.39092H30.309C32.0872 1.39092 33.7928 2.09791 35.0521 3.35511C36.3096 4.61447 37.0167 6.32026 37.0167 8.09861V15.5063H44.4244C46.2026 15.5063 47.9084 16.2134 49.1677 17.4707C50.425 18.73 51.1321 20.4357 51.1321 22.214V30.2799C51.1321 32.0582 50.425 33.7639 49.1677 35.0233C47.9084 36.2806 46.2026 36.9876 44.4244 36.9876H37.0167V44.3953C37.0167 46.1736 36.3096 47.8793 35.0523 49.1386C33.793 50.396 32.0873 51.103 30.309 51.103H22.2431C20.4648 51.103 18.7591 50.396 17.4997 49.1386C16.2424 47.8793 15.5354 46.1736 15.5354 44.3953V36.9876H8.12767C6.34932 36.9876 4.64353 36.2805 3.38417 35.0231C2.12696 33.7637 1.41997 32.0581 1.41997 30.2799V22.214C1.41997 20.4358 2.12696 18.7302 3.38417 17.4709C4.64353 16.2134 6.34932 15.5063 8.12767 15.5063H15.5354V8.09861C15.5354 6.32044 16.2423 4.61481 17.4996 3.35549ZM22.2431 3.4074C20.9988 3.4074 19.8054 3.90096 18.9254 4.78096C18.0454 5.66095 17.5518 6.85437 17.5518 8.09861V16.1646C17.5518 16.9144 16.9435 17.5228 16.1936 17.5228H8.12767C6.88342 17.5228 5.69 18.0164 4.81001 18.8963C3.93001 19.7763 3.43645 20.9698 3.43645 22.214V30.2799C3.43645 31.5242 3.93001 32.7176 4.81001 33.5976C5.69 34.4776 6.88342 34.9711 8.12767 34.9711H16.1936C16.9435 34.9711 17.5518 35.5795 17.5518 36.3294V44.3953C17.5518 45.6396 18.0454 46.833 18.9254 47.713C19.8054 48.593 20.9988 49.0865 22.2431 49.0865H30.309C31.5532 49.0865 32.7467 48.593 33.6266 47.713C34.5066 46.833 35.0002 45.6396 35.0002 44.3953V36.3294C35.0002 35.5795 35.6086 34.9711 36.3584 34.9711H44.4244C45.6686 34.9711 46.862 34.4776 47.742 33.5976C48.622 32.7176 49.1156 31.5242 49.1156 30.2799V22.214C49.1156 20.9698 48.622 19.7763 47.742 18.8963C46.862 18.0164 45.6686 17.5228 44.4244 17.5228H36.3584C35.6086 17.5228 35.0002 16.9144 35.0002 16.1646V8.09861C35.0002 6.85437 34.5066 5.66095 33.6266 4.78096C32.7467 3.90096 31.5532 3.4074 30.309 3.4074H22.2431ZM18.4304 4.28598C19.4419 3.27451 20.8134 2.7074 22.2431 2.7074H30.309C31.7386 2.7074 33.1102 3.27451 34.1216 4.28598C35.1331 5.29745 35.7002 6.669 35.7002 8.09861V16.1646C35.7002 16.5278 35.9952 16.8228 36.3584 16.8228H44.4244C45.854 16.8228 47.2255 17.3899 48.237 18.4014C49.2485 19.4128 49.8156 20.7844 49.8156 22.214V30.2799C49.8156 31.7096 49.2485 33.0811 48.237 34.0926C47.2255 35.104 45.854 35.6712 44.4244 35.6712H36.3584C35.9952 35.6712 35.7002 35.9661 35.7002 36.3294V44.3953C35.7002 45.8249 35.1331 47.1965 34.1216 48.208C33.1102 49.2194 31.7386 49.7865 30.309 49.7865H22.2431C20.8134 49.7865 19.4419 49.2194 18.4304 48.208C17.419 47.1965 16.8518 45.8249 16.8518 44.3953V36.3294C16.8518 35.9661 16.5569 35.6712 16.1936 35.6712H8.12767C6.69805 35.6712 5.3265 35.104 4.31503 34.0926C3.30357 33.0811 2.73645 31.7096 2.73645 30.2799V22.214C2.73645 20.7844 3.30357 19.4128 4.31503 18.4014C5.3265 17.3899 6.69805 16.8228 8.12767 16.8228H16.1936C16.5569 16.8228 16.8518 16.5278 16.8518 16.1646V8.09861C16.8518 6.669 17.419 5.29745 18.4304 4.28598Z" fill="black"/>
</svg>
