<svg width="64" height="39" viewBox="0 0 64 39" fill="none" xmlns="http://www.w3.org/2000/svg">
<path fill-rule="evenodd" clip-rule="evenodd" d="M8.37608 4.99218C8.37608 4.14704 9.08124 3.46191 9.95108 3.46191H54.0511C54.9209 3.46191 55.6261 4.14704 55.6261 4.99218V14.1738C55.6261 15.019 56.3312 15.7041 57.2011 15.7041C58.0709 15.7041 58.7761 15.019 58.7761 14.1738V4.99218C58.7761 2.45674 56.6606 0.401367 54.0511 0.401367H9.95108C7.34154 0.401367 5.22609 2.45674 5.22609 4.99218V14.1738C5.22609 15.019 5.93124 15.7041 6.80109 15.7041C7.67093 15.7041 8.37608 15.019 8.37608 14.1738V4.99218Z" fill="black"/>
<path fill-rule="evenodd" clip-rule="evenodd" d="M38.3011 14.1738H47.7511V20.2948H38.3011V14.1738ZM35.1511 20.2948V14.1738C35.1511 12.4835 36.5614 11.1132 38.3011 11.1132H47.7511C49.4908 11.1132 50.9011 12.4835 50.9011 14.1738V20.2948H57.2011C60.6805 20.2948 63.5011 23.0354 63.5011 26.4159V32.537C63.5011 35.9176 60.6805 38.6581 57.2011 38.6581H6.8011C3.32171 38.6581 0.501099 35.9176 0.501099 32.537V26.4159C0.501099 23.0354 3.3217 20.2948 6.8011 20.2948H13.1011V14.1738C13.1011 12.4835 14.5114 11.1132 16.2511 11.1132H25.7011C27.4408 11.1132 28.8511 12.4835 28.8511 14.1738V20.2948H35.1511ZM25.7011 20.2948V14.1738H16.2511V20.2948H25.7011ZM6.8011 23.3554C5.0614 23.3554 3.6511 24.7256 3.6511 26.4159V32.537C3.6511 34.2273 5.0614 35.5976 6.8011 35.5976H57.2011C58.9408 35.5976 60.3511 34.2273 60.3511 32.537V26.4159C60.3511 24.7256 58.9408 23.3554 57.2011 23.3554H6.8011Z" fill="black"/>
<path fill-rule="evenodd" clip-rule="evenodd" d="M38.3011 14.1738H47.7511V20.2948H38.3011V14.1738ZM25.7011 20.2948V14.1738H16.2511V20.2948H25.7011Z" fill="#FDA1A5"/>
</svg>
