<svg width="61" height="39" viewBox="0 0 61 39" fill="none" xmlns="http://www.w3.org/2000/svg">
<path d="M4.94511 28.0146C2.6723 28.0146 0.829834 29.8353 0.829834 32.0813C0.829834 35.7136 3.80963 38.6582 7.48539 38.6582H54.024C57.6997 38.6582 60.6795 35.7136 60.6795 32.0813C60.6795 29.8353 58.8371 28.0146 56.5643 28.0146H4.94511Z" fill="#FDA1A5"/>
<path fill-rule="evenodd" clip-rule="evenodd" d="M26.0297 1.95776C26.0297 1.09819 26.7349 0.401367 27.6047 0.401367H33.9047C34.7745 0.401367 35.4797 1.09819 35.4797 1.95776C35.4797 2.81733 34.7745 3.51415 33.9047 3.51415H27.6047C26.7349 3.51415 26.0297 2.81733 26.0297 1.95776ZM4.94511 28.0146C2.6723 28.0146 0.829834 29.8353 0.829834 32.0813C0.829834 35.7136 3.80963 38.6582 7.48539 38.6582H54.024C57.6997 38.6582 60.6795 35.7136 60.6795 32.0813C60.6795 29.8353 58.8371 28.0146 56.5643 28.0146H4.94511ZM3.97982 32.081C3.97982 31.5542 4.41199 31.1271 4.94511 31.1271H56.5643C57.0974 31.1271 57.5295 31.5542 57.5295 32.081C57.5295 33.9942 55.9601 35.5452 54.024 35.5452H7.48539C5.54931 35.5452 3.97982 33.9942 3.97982 32.081Z" fill="black"/>
<path fill-rule="evenodd" clip-rule="evenodd" d="M14.2774 13.1539C9.76081 16.0033 7.12986 19.6679 7.12986 23.2952C7.12986 24.1548 6.42471 24.8516 5.55487 24.8516C4.68502 24.8516 3.97988 24.1548 3.97988 23.2952C3.97988 18.1365 7.64889 13.6427 12.5823 10.5302C17.5655 7.38633 24.1606 5.422 30.7547 5.422C37.3489 5.422 43.9439 7.38633 48.9272 10.5302C53.8606 13.6427 57.5296 18.1365 57.5296 23.2952C57.5296 24.1548 56.8245 24.8516 55.9546 24.8516C55.0848 24.8516 54.3796 24.1548 54.3796 23.2952C54.3796 19.6679 51.7487 16.0033 47.2321 13.1539C42.7654 10.3359 36.7605 8.53478 30.7547 8.53478C24.749 8.53478 18.7441 10.3359 14.2774 13.1539Z" fill="black"/>
</svg>
