<svg width="61" height="52" viewBox="0 0 61 52" fill="none" xmlns="http://www.w3.org/2000/svg">
<path fill-rule="evenodd" clip-rule="evenodd" d="M0.442871 1.58061C0.442871 0.707664 1.14477 0 2.01062 0H3.87627C7.37927 0 10.4571 2.34327 11.4157 5.74019L12.4962 9.56868H52.2343C57.7546 9.56868 61.5455 15.1682 59.5342 20.3512L54.5393 33.2228C53.3636 36.2526 50.4663 38.2464 47.2394 38.2464H23.2492C19.7462 38.2464 16.6685 35.9031 15.7098 32.5062L8.39995 6.60534C7.82474 4.56719 5.97807 3.16123 3.87627 3.16123H2.01062C1.14477 3.16123 0.442871 2.45356 0.442871 1.58061ZM13.3884 12.7299L18.7256 31.6411C19.3008 33.6792 21.1474 35.0852 23.2492 35.0852H47.2394C49.1756 35.0852 50.9139 33.8889 51.6193 32.071L56.6142 19.1994C57.821 16.0896 55.5465 12.7299 52.2343 12.7299H13.3884Z" fill="black"/>
<path fill-rule="evenodd" clip-rule="evenodd" d="M53.213 46.994C53.213 49.6128 51.1073 51.7358 48.5098 51.7358C45.9122 51.7358 43.8065 49.6128 43.8065 46.994C43.8065 44.3752 45.9122 42.2522 48.5098 42.2522C51.1073 42.2522 53.213 44.3752 53.213 46.994ZM21.4843 51.7358C24.0818 51.7358 26.1875 49.6128 26.1875 46.994C26.1875 44.3752 24.0818 42.2522 21.4843 42.2522C18.8868 42.2522 16.7811 44.3752 16.7811 46.994C16.7811 49.6128 18.8868 51.7358 21.4843 51.7358Z" fill="#FDA1A5"/>
<path fill-rule="evenodd" clip-rule="evenodd" d="M48.5098 49.6299C49.928 49.6299 51.1071 48.4661 51.1071 46.994C51.1071 45.522 49.928 44.3581 48.5098 44.3581C47.0915 44.3581 45.9124 45.522 45.9124 46.994C45.9124 48.4661 47.0915 49.6299 48.5098 49.6299ZM21.4843 49.6299C22.9026 49.6299 24.0816 48.4661 24.0816 46.994C24.0816 45.522 22.9026 44.3581 21.4843 44.3581C20.066 44.3581 18.887 45.522 18.887 46.994C18.887 48.4661 20.066 49.6299 21.4843 49.6299ZM48.5098 51.7358C51.1073 51.7358 53.213 49.6128 53.213 46.994C53.213 44.3752 51.1073 42.2522 48.5098 42.2522C45.9122 42.2522 43.8065 44.3752 43.8065 46.994C43.8065 49.6128 45.9122 51.7358 48.5098 51.7358ZM26.1875 46.994C26.1875 49.6128 24.0818 51.7358 21.4843 51.7358C18.8868 51.7358 16.7811 49.6128 16.7811 46.994C16.7811 44.3752 18.8868 42.2522 21.4843 42.2522C24.0818 42.2522 26.1875 44.3752 26.1875 46.994Z" fill="black"/>
</svg>
