<svg width="56" height="48" viewBox="0 0 56 48" fill="none" xmlns="http://www.w3.org/2000/svg">
<path fill-rule="evenodd" clip-rule="evenodd" d="M13.4845 4.15052C13.6004 3.4782 14.1784 2.98743 14.8543 2.98743H41.0406C41.7165 2.98743 42.2945 3.4782 42.4105 4.15052L44.8121 18.0791H11.0828L13.4845 4.15052ZM9.40583 20.8868C9.42265 20.8871 9.43942 20.8871 9.45614 20.8868H46.4388C46.4555 20.8871 46.4723 20.8871 46.4891 20.8868H48.84C51.1439 20.8868 53.0115 22.7724 53.0115 25.0984V31.7668C53.0115 34.0928 51.1438 35.9784 48.84 35.9784H7.0549C4.75109 35.9784 2.88348 34.0928 2.88348 31.7668V25.0984C2.88348 22.7724 4.75109 20.8868 7.0549 20.8868H9.40583ZM8.26003 18.0791L10.7447 3.66897C11.0925 1.65198 12.8266 0.179688 14.8543 0.179688H41.0406C43.0684 0.179688 44.8024 1.65198 45.1502 3.66897L47.6349 18.0791H48.84C52.6797 18.0791 55.7924 21.2217 55.7924 25.0984V31.7668C55.7924 35.0653 53.5389 37.8325 50.5015 38.5845V40.9901C50.5015 44.7157 47.5102 47.7358 43.8201 47.7358C40.1301 47.7358 37.1388 44.7157 37.1388 40.9901V38.7862H18.7562V40.9901C18.7562 44.7157 15.7648 47.7358 12.0748 47.7358C8.38478 47.7358 5.39343 44.7157 5.39343 40.9901V38.5845C2.35603 37.8325 0.102539 35.0653 0.102539 31.7668V25.0984C0.102539 21.2217 3.21522 18.0791 7.0549 18.0791H8.26003ZM39.9197 40.9901V38.7862H47.7206V40.9901C47.7206 43.165 45.9743 44.9281 43.8201 44.9281C41.666 44.9281 39.9197 43.165 39.9197 40.9901ZM15.9752 38.7862H8.17438V40.9901C8.17438 43.165 9.92066 44.9281 12.0748 44.9281C14.2289 44.9281 15.9752 43.165 15.9752 40.9901V38.7862ZM12.0748 31.4158C13.5358 31.4158 14.7202 30.0802 14.7202 28.4326C14.7202 26.785 13.5358 25.4494 12.0748 25.4494C10.6138 25.4494 9.42935 26.785 9.42935 28.4326C9.42935 30.0802 10.6138 31.4158 12.0748 31.4158ZM46.4656 28.4326C46.4656 30.0802 45.2812 31.4158 43.8201 31.4158C42.3591 31.4158 41.1747 30.0802 41.1747 28.4326C41.1747 26.785 42.3591 25.4494 43.8201 25.4494C45.2812 25.4494 46.4656 26.785 46.4656 28.4326Z" fill="black"/>
<path fill-rule="evenodd" clip-rule="evenodd" d="M39.9197 40.9901V38.7862H47.7206V40.9901C47.7206 43.165 45.9743 44.9281 43.8201 44.9281C41.666 44.9281 39.9197 43.165 39.9197 40.9901ZM15.9752 38.7862H8.17438V40.9901C8.17438 43.165 9.92066 44.9281 12.0748 44.9281C14.2289 44.9281 15.9752 43.165 15.9752 40.9901V38.7862Z" fill="#FDA1A5"/>
</svg>
