<svg width="86" height="49" viewBox="0 0 86 49" fill="none" xmlns="http://www.w3.org/2000/svg">
<g id="Logo">
<g id="Group">
<path id="Vector" fill-rule="evenodd" clip-rule="evenodd" d="M28.9186 2.28934C29.1825 2.48045 30.0522 3.63712 30.1975 3.9306C30.8995 4.94472 31.7871 6.62122 32.1959 7.76999C32.9107 9.84629 33.5141 11.4347 34.1048 13.5757C34.1602 13.8034 34.1774 13.7398 34.2247 13.8977C34.604 15.4335 35.0895 17.0782 35.5231 18.6051C35.5687 18.7654 35.6409 18.9178 35.6934 19.1121L36.2325 21.2223C36.3187 21.5861 36.3682 21.585 36.3959 21.7061C36.6572 22.847 36.8775 23.7533 37.1789 24.9014C37.2222 25.0925 37.2667 25.2648 37.2943 25.4587C37.6731 28.1268 38.7042 31.4859 39.1959 34.158C39.2109 34.3951 39.2832 34.464 39.3169 34.6856C39.6604 36.9497 40.1597 39.3192 40.3523 41.5948C40.3869 42.0037 40.3662 42.4635 40.4106 42.8584C40.4229 42.9675 40.4639 43.0342 40.4796 43.1358L40.5595 44.0341C40.6155 44.8746 40.6935 45.6774 39.8464 45.9147C39.5955 45.985 39.5017 45.9209 39.3084 45.8327C39.0057 45.6945 39.229 45.8151 38.932 45.5595C37.8224 44.1882 37.5347 41.8817 36.1111 40.0401C36.0882 40.0142 35.7457 39.59 35.7306 39.5667C35.558 39.2984 34.0401 38.1061 33.5965 37.8315C33.5371 37.7947 33.5362 37.7838 33.4816 37.7398C30.8718 35.6404 26.2831 35.2499 23.0363 34.7874C21.4403 34.7241 19.0161 34.9175 17.694 34.7379C17.3885 34.6963 16.9497 34.7518 16.6318 34.7041C16.2642 34.6489 14.768 34.6813 14.5283 34.6453C14.2424 34.6024 13.7788 34.6138 13.4788 34.599C13.1669 34.5836 12.7876 34.5088 12.4724 34.51C11.8084 34.5124 9.36069 34.3201 8.93889 34.2238C7.58458 33.9145 6.24134 34.0199 4.81067 33.4695C4.44302 33.3281 4.46933 33.3946 4.17494 33.2772C3.22638 32.85 2.19267 32.2228 1.28423 31.8242L0.82646 31.4847C0.773292 31.4439 0.748443 31.4024 0.739258 31.3582V31.2562C0.747096 31.2006 0.76316 31.1399 0.768899 31.0711L0.887376 31.0735C1.53845 31.0857 1.90117 31.0287 2.56669 31.14C3.0855 31.2267 3.61307 31.3271 4.14545 31.3695C4.69806 31.4134 5.19382 31.5107 5.77569 31.5417C7.40979 31.6287 9.4829 31.6474 11.0971 31.61C13.5261 31.5536 18.3031 30.8103 20.311 30.0018C20.5339 29.912 20.7196 29.8401 20.9505 29.7548C21.0674 29.7115 21.138 29.6511 21.2467 29.6081C21.442 29.5308 21.7015 29.5367 21.9233 29.3672L22.5092 29.0667C22.7233 28.9914 22.6534 28.9793 22.8068 28.8913C23.1858 28.6739 23.2108 28.7203 23.6677 28.4225C23.7761 28.3518 23.8636 28.3177 23.9763 28.259L25.0258 27.5245C25.1784 27.4824 25.3369 27.2922 25.4332 27.176C26.5297 25.8521 25.2691 25.2295 23.9439 25.669C22.8339 26.037 20.9525 25.4916 19.997 24.8101C19.6732 24.5791 19.8053 24.7465 19.5929 24.5056C19.5609 24.4693 19.5785 24.4862 19.5481 24.4618C19.3298 24.2863 19.4055 24.3109 19.3207 24.2465C18.3145 23.4836 18.096 22.5983 17.6011 21.6309C17.5192 21.4709 17.4391 20.5204 17.4391 20.401C17.4388 19.7591 17.501 18.9664 17.8869 18.4247C18.1862 18.1065 18.6999 17.4778 19.0205 17.2864C19.2097 17.1734 19.8173 16.9306 20.0449 16.8624L20.6599 16.7672C20.9817 16.7136 21.7838 16.7696 22.0502 16.8057C22.5869 16.8783 23.098 17.0637 23.5781 17.2896C23.718 17.3555 23.8256 17.4195 23.9389 17.4893C24.1552 17.6227 24.761 17.991 24.9466 18.1648C24.9917 18.2071 25.0262 18.262 25.0722 18.3043C25.2535 18.471 25.2767 18.4523 25.5195 18.713C26.0387 19.2704 26.2747 19.7243 26.6275 20.4077C26.8025 20.7465 27.034 21.8248 27.0361 22.2231C27.0386 22.7169 27.0825 22.7632 27.3006 23.0895C28.7237 25.2187 30.2055 19.1172 30.1887 15.8743C30.1817 14.5137 30.2072 12.2685 29.9549 11.0498C29.8608 10.5953 29.882 10.2227 29.7727 9.79019C29.3734 7.14885 28.3622 3.77262 26.0343 2.32914C25.6603 2.09723 25.2929 1.83323 24.8233 1.73752C24.4844 1.66844 24.6776 1.64392 24.2335 1.61178C23.9522 1.58238 23.9161 1.6423 23.6573 1.51228C23.4284 1.39728 23.4258 1.35499 23.4497 1.05878C23.4496 0.986714 23.4441 1.03286 23.4687 0.975329C23.5749 0.727001 24.245 0.568032 24.5251 0.466323C26.3161 -0.185409 27.7679 1.45592 28.9186 2.28934V2.28934Z" fill="#549CDC"/>
<path id="Vector_2" fill-rule="evenodd" clip-rule="evenodd" d="M62.3635 1.62346C62.5334 1.93339 62.3015 3.01939 62.2185 3.38422C62.1866 3.52402 62.1474 3.58877 62.1085 3.74544C61.9317 4.45719 62.0132 4.04749 61.8422 4.48071C61.7833 4.63003 61.767 4.69736 61.6918 4.83116C61.6331 4.93555 61.5662 5.02276 61.5039 5.11508C61.402 5.26611 61.3516 5.45215 61.2506 5.59867C61.0971 5.82164 61.1824 5.90997 60.8104 6.39652L60.6162 6.70353C60.5506 6.80522 60.4821 6.89604 60.4136 7.0022C60.3114 7.16055 60.3352 7.15849 60.1931 7.2832C60.0908 7.373 60.0832 7.45271 60.0111 7.57297C59.9382 7.69482 59.8719 7.74392 59.79 7.85322C59.7138 7.95485 59.6507 8.04312 59.5789 8.14356C59.5019 8.25125 59.429 8.29088 59.3468 8.41301C59.2703 8.52671 59.0332 8.8967 58.9397 8.97915L58.0319 10.0479C57.9314 10.2123 57.8589 10.2221 57.8019 10.3194L57.5857 10.6047C57.505 10.6956 57.4814 10.7879 57.3935 10.8843C57.3498 10.9324 57.3194 10.9525 57.2764 11.0032C57.1231 11.184 57.0146 11.2454 56.8893 11.3835C56.7026 11.5894 56.5473 11.7128 56.3616 11.9474C56.259 12.077 56.2085 12.1714 56.092 12.2679C55.8313 12.4839 55.6021 12.8004 55.3286 13.0097C55.1953 13.1117 55.1821 13.2028 55.0413 13.3125C54.8743 13.4428 54.756 13.6101 54.584 13.7406C54.4562 13.8377 54.3946 13.9523 54.2632 14.0396L53.794 14.456C53.7041 14.5419 53.7244 14.5194 53.6248 14.5821C53.5018 14.6596 53.4499 14.7535 53.296 14.8438C53.041 14.9934 52.8494 15.2049 52.6039 15.3623C51.4332 16.1131 50.3889 16.8326 49.1053 17.4467L48.0584 17.9072C47.8621 17.9838 47.6816 18.0891 47.5477 18.1354C47.2242 18.247 46.9405 18.3406 46.5978 18.3981C44.9297 18.6779 44.1416 18.1302 45.4626 16.7426C45.7013 16.4918 45.9272 16.3058 46.1535 16.0172C46.2397 15.9414 46.3539 15.592 46.5896 15.2741C46.6994 15.1261 46.8363 14.7462 46.8923 14.5456C47.2348 13.3201 47.3818 13.2628 47.2812 11.9079C47.2475 11.4539 47.1112 11.0538 47.0461 10.6126C47.0225 10.4524 46.9462 10.3814 46.9037 10.2248C46.8179 9.90909 46.7777 9.76929 46.6073 9.49003C46.0449 8.732 45.3558 7.90068 44.4692 7.49609C44.3453 7.43959 43.8037 7.33594 43.6187 7.31105C42.3104 7.13478 41.643 7.66918 40.758 8.54737C39.5981 9.69813 39.2899 11.1327 39.2833 12.7296C39.2824 12.9354 39.3162 13.0148 39.3139 13.2284C39.3061 13.9405 39.7383 14.9519 40.0848 15.55C40.5889 16.4198 42.002 17.1488 41.931 17.8451C41.7989 19.1408 39.4949 18.2895 38.8225 18.0077C38.3153 17.8005 36.8284 17.2134 36.5817 17.0268C36.5354 16.9918 36.4251 16.8062 36.1732 16.7854C36.1198 17.0131 36.2413 17.3565 36.3412 17.5888L36.4695 18.1294C36.4738 18.1356 36.4801 18.1377 36.4818 18.1485C36.8026 19.1766 37.0318 20.4077 37.3901 21.3971C37.8846 22.7631 38.7532 26.9611 39.1067 28.6892C39.7928 31.672 41.0698 36.4123 41.4 38.9976C41.4218 39.1688 41.4897 39.3032 41.5201 39.4936C41.8324 41.4488 41.9164 44.338 41.9105 46.2984C41.908 47.1033 42.0186 47.9894 42.9733 48.2531C44.6496 48.7161 44.7131 46.5435 44.7007 45.5635C44.6693 43.0748 45.0475 41.3304 45.2225 39.0312C45.2787 38.2948 45.4485 37.3487 45.6329 36.6061L46.2797 34.0736C46.3305 33.9708 46.3702 33.9762 46.3861 33.832C46.5919 31.968 48.8791 27.8203 49.9395 26.064C50.1559 25.7283 50.0759 25.8765 50.2438 25.6603C50.3501 25.5233 50.3152 25.4785 50.5218 25.231C50.8414 24.8482 51.0619 24.3248 51.3998 23.9859C51.5263 23.8589 51.7301 23.4753 51.9931 23.1631C52.0497 23.0958 52.0672 23.0185 52.1322 22.9488C52.3923 22.6702 52.3445 22.6797 52.5782 22.3329C52.6831 22.1772 52.7633 22.0538 52.8635 21.9106C53.0691 21.6166 53.0407 21.721 53.1775 21.5163C53.5505 20.9581 53.425 21.1679 53.8137 20.7372C54.0278 20.4999 54.2079 20.1672 54.4223 19.9297C54.5366 19.8032 54.627 19.7062 54.7121 19.5112C54.7723 19.3734 55.1775 18.9616 55.3507 18.7345L55.9499 17.9175C56.0677 17.7559 56.1522 17.6776 56.2646 17.5245L57.1425 16.2791C57.7663 15.3011 58.5332 14.2837 59.1008 13.251C59.2211 13.0623 59.6318 12.2739 59.8155 12.2385L60.2107 11.5923C60.2611 11.4932 60.2839 11.4567 60.3424 11.3703C60.5321 11.09 60.4315 11.3418 60.5979 10.9477C60.6693 10.7787 60.7526 10.7555 60.8649 10.5071C60.9145 10.3975 60.9326 10.4147 60.9914 10.3093L61.8214 8.7017C61.9233 8.32359 61.9169 8.35708 62.0821 8.06954C62.1325 7.98183 62.124 7.94448 62.1612 7.85339C62.2494 7.6377 63.2965 5.41189 63.2829 5.23419C63.5167 4.63812 63.6619 4.32358 63.6968 3.67524C63.7176 3.28978 63.7094 3.06444 63.6976 2.67467C63.679 2.0558 63.6322 1.77551 63.3038 1.24295C63.2281 1.12017 63.2841 1.18072 63.1629 1.11768L63.0713 1.39137C62.9156 1.44034 62.9212 1.56297 62.8049 1.58836C62.6832 1.6149 62.5037 1.60223 62.3634 1.62346H62.3635Z" fill="#FC444B"/>
<path id="Vector_3" fill-rule="evenodd" clip-rule="evenodd" d="M60.2432 19.7372L59.9656 20.2555C59.8164 20.5421 59.6844 21.1342 59.6136 21.4905C59.4768 22.1787 59.7442 22.7706 59.045 23.3106C58.8831 23.4358 58.6687 23.4615 58.4645 23.3598C58.0463 23.1514 58.1782 23.2681 57.9802 23.0449C57.8234 22.8682 57.8291 22.9262 57.638 22.5913C57.2605 21.9297 57.1001 20.9441 56.8417 20.2348C56.753 19.9911 56.676 19.1376 56.5964 18.9214C56.3653 18.8887 56.3443 19.058 56.2579 19.2215L55.3963 20.3368C55.3138 20.4303 55.3067 20.4025 55.2264 20.5216C54.8954 21.0242 52.2367 24.5567 52.1612 25.0248C52.1285 25.2262 51.0301 26.9026 50.8646 27.2163C50.5462 27.8196 49.8023 28.9394 49.6092 29.4405C49.5632 29.5599 49.5701 29.6071 49.5057 29.7199L49.2336 30.2124C48.8786 30.6439 48.1955 32.9041 47.909 33.5147L47.6858 34.0572C47.5361 34.4483 47.4894 34.8522 47.3444 35.2474L46.7307 37.7238C46.6809 37.9327 46.6652 38.2159 46.604 38.3929C46.5192 38.6381 46.5496 38.8059 46.5089 39.0626C46.437 39.5147 46.3794 39.9473 46.3252 40.4167C46.1725 41.7385 45.3942 45.9962 46.899 45.9772C47.149 45.974 47.2411 45.8812 47.4027 45.7993C47.9 45.5471 48.2471 44.5903 48.4131 44.0975C48.5339 43.739 48.6199 43.3934 48.794 43.0937C50.2775 39.3522 53.7047 36.312 57.8412 35.6406C61.7865 34.5495 65.2638 34.7391 69.3568 34.7178C69.528 34.7157 69.5801 34.6857 69.7698 34.6865C73.2862 34.5933 76.3587 34.4385 79.8386 33.8885C79.9337 33.8786 80.1418 33.8752 80.2517 33.8574C80.3517 33.8412 80.4904 33.7699 80.5917 33.7539L81.3548 33.5997C81.9963 33.444 85.7394 32.0235 85.7394 31.1891C85.4757 31.0139 85.0509 31.0702 84.6125 31.0705C84.3036 31.0708 83.3858 31.26 82.9677 31.3198C80.3677 31.6921 77.6603 31.5875 75.0438 31.6009C72.5275 31.4673 65.3438 30.4516 62.8451 28.3892C62.7664 28.3243 62.7377 28.3164 62.6398 28.2695C62.3467 28.1291 62.537 28.1408 62.2509 28.0088L61.4995 27.4903C61.3873 27.4021 60.9878 26.9385 60.9208 26.8004C60.7025 26.3501 60.8205 25.7644 61.3743 25.5924C62.1486 25.3521 62.5018 25.9544 64.2224 25.7432C64.6748 25.6877 64.6286 25.6604 64.9407 25.5447C65.7151 25.2576 65.9487 25.2308 66.6601 24.7226L67.2002 24.3179C67.6637 23.8558 68.3337 23.0892 68.6545 22.4979C68.9717 21.9131 69.0173 21.4677 69.1321 20.8553L69.1359 19.8547C68.8525 17.8681 67.4575 16.7853 65.3856 16.7759C64.7276 16.773 64.5101 16.8694 64.0234 16.9609C62.8715 17.1776 60.917 18.6054 60.2432 19.7372Z" fill="#F2C708"/>
<path id="Vector_4" fill-rule="evenodd" clip-rule="evenodd" d="M53.2692 10.9961C53.1408 11.2649 52.7908 12.452 52.6983 12.7791C52.5889 13.1656 52.4051 13.6073 52.3784 14.0169C52.6601 13.998 53.5009 13.2467 53.7052 13.0451C53.8034 12.9482 53.8731 12.909 53.9715 12.8097C54.7897 11.9843 55.8234 11.1656 56.535 10.2971C56.5801 10.248 56.7106 10.0676 56.764 9.99523C56.764 9.1059 57.3149 7.2852 57.5744 6.38993C58.2501 4.37478 59.699 2.28441 61.8475 1.72282C61.9742 1.68968 62.1199 1.6043 62.3636 1.62359C62.5038 1.60236 62.6834 1.61503 62.805 1.5885C62.9213 1.56311 62.9738 1.48783 63.1295 1.43886L63.163 1.11781C63.1335 1.00493 63.0153 0.908379 62.926 0.853714L62.611 0.666488C62.2295 0.449719 61.2185 0.424289 60.7964 0.503574C56.2418 1.35917 54.9647 7.44955 53.2692 10.9961V10.9961Z" fill="#F2C708"/>
<path id="Vector_5" fill-rule="evenodd" clip-rule="evenodd" d="M28.8774 11.0062C28.7939 10.3503 28.8973 10.5676 28.5236 10.1485C27.2503 8.72034 25.3288 5.98655 24.7848 4.36232C24.4084 3.23832 24.2334 2.77956 24.2334 1.6116C23.9521 1.5822 23.916 1.64212 23.6572 1.5121C23.4283 1.39709 23.4257 1.3548 23.4496 1.05859C23.1512 1.20511 23.2842 1.36881 23.0689 1.66689C23.0101 1.74829 22.986 1.82418 22.967 1.91864C22.9435 2.03582 22.9471 2.0824 22.9258 2.20107C22.8659 2.53563 22.8112 2.3306 22.8113 3.11628C22.8114 4.50694 23.6089 7.10749 24.3431 8.00469C24.5509 8.4184 24.8946 9.22649 25.1266 9.5789C25.174 9.65077 25.2254 9.69411 25.2692 9.76074C26.1907 11.1614 27.1938 12.9168 28.0857 14.4033C28.165 14.5568 28.3697 14.9066 28.491 15.0301C28.7177 15.2611 28.9056 15.7384 29.1219 15.7563C29.1516 13.7801 29.1167 12.8825 28.8774 11.0062Z" fill="#FC444B"/>
<path id="Vector_6" fill-rule="evenodd" clip-rule="evenodd" d="M43.3734 15.8461C42.8585 15.8422 41.3086 15.6339 41.0425 14.7881C40.9884 14.6164 40.9879 14.3103 41.1511 14.1501C41.3373 13.9672 41.4271 14.1723 41.5503 14.3281C41.865 14.7258 42.6191 15.0292 43.0642 15.0303C43.8374 15.0322 44.4022 14.8674 45.0437 14.328C45.044 14.3278 45.4517 13.924 45.5499 14.2511C45.6801 14.6154 45.5225 14.9057 45.3757 15.0417C44.7229 15.5668 44.1775 15.8521 43.3734 15.8461V15.8461Z" fill="#FC444B"/>
</g>
</g>
</svg>
