<svg width="31" height="31" viewBox="0 0 31 31" fill="none" xmlns="http://www.w3.org/2000/svg">
<g id="Group">
<path id="Rectangle (Stroke)" fill-rule="evenodd" clip-rule="evenodd" d="M2.98927 10.3169V18.3169C2.98927 23.7017 7.35452 28.067 12.7393 28.067H18.7394C24.1242 28.067 28.4894 23.7017 28.4894 18.3169V10.3169H2.98927ZM2.23927 8.06689C1.41083 8.06689 0.739258 8.73847 0.739258 9.5669V18.3169C0.739258 24.9444 6.11187 30.317 12.7393 30.317H18.7394C25.3668 30.317 30.7394 24.9444 30.7394 18.3169V9.5669C30.7394 8.73847 30.0679 8.06689 29.2394 8.06689H2.23927Z" fill="black"/>
<path id="Rectangle (Stroke)_2" fill-rule="evenodd" clip-rule="evenodd" d="M21.8505 2.56691H9.62819C6.34994 2.56691 3.62665 4.943 3.08658 8.06693H28.3921C27.8521 4.943 25.1288 2.56691 21.8505 2.56691ZM9.62819 0.316895C4.71897 0.316895 0.739258 4.2966 0.739258 9.20583C0.739258 9.81948 1.23672 10.3169 1.85038 10.3169H29.6283C30.242 10.3169 30.7394 9.81948 30.7394 9.20582C30.7394 4.2966 26.7597 0.316895 21.8505 0.316895H9.62819Z" fill="black"/>
</g>
</svg>
