<svg id="Layer_1" data-name="Layer 1" xmlns="http://www.w3.org/2000/svg" xmlns:xlink="http://www.w3.org/1999/xlink" viewBox="0 0 612 435.32"><defs><style>.cls-1{fill:#fff;}.cls-2{fill:#dcdcdb;}.cls-3{fill:#e0f2f7;stroke:#231f20;stroke-miterlimit:10;opacity:0.5;}.cls-4,.cls-50{font-size:17.63px;fill:#262626;font-family:Raleway-ExtraBoldItalic, Raleway;font-weight:800;font-style:italic;}.cls-28,.cls-4{letter-spacing:0.04em;}.cls-5{letter-spacing:0.03em;}.cls-50,.cls-6{letter-spacing:0.04em;}.cls-7{letter-spacing:0.03em;}.cls-8{letter-spacing:0.03em;}.cls-9{letter-spacing:0.01em;}.cls-10{letter-spacing:0.03em;}.cls-11{letter-spacing:0.01em;}.cls-12{letter-spacing:0.02em;}.cls-13{letter-spacing:0.03em;}.cls-14{letter-spacing:0.02em;}.cls-15{letter-spacing:0.01em;}.cls-16{letter-spacing:0.03em;}.cls-17{letter-spacing:0.04em;}.cls-18{letter-spacing:0.03em;}.cls-19{letter-spacing:0.02em;}.cls-20{letter-spacing:0.03em;}.cls-21{letter-spacing:0.03em;}.cls-22{letter-spacing:0.01em;}.cls-23{letter-spacing:0.03em;}.cls-24{letter-spacing:0.02em;}.cls-25{letter-spacing:0.03em;}.cls-26{letter-spacing:0.03em;}.cls-27{letter-spacing:0.02em;}.cls-29{letter-spacing:0.03em;}.cls-30{letter-spacing:0.02em;}.cls-31{letter-spacing:0em;}.cls-32{letter-spacing:-0.02em;}.cls-33{letter-spacing:0.04em;}.cls-34{letter-spacing:-0.01em;}.cls-35{letter-spacing:0.03em;}.cls-36{letter-spacing:0.01em;}.cls-37{letter-spacing:0.03em;}.cls-38{letter-spacing:0.01em;}.cls-39{letter-spacing:-0.02em;}.cls-40{letter-spacing:0.02em;}.cls-41{letter-spacing:0.03em;}.cls-42{letter-spacing:0.03em;}.cls-43{letter-spacing:0.03em;}.cls-44{letter-spacing:0.03em;}.cls-45{letter-spacing:0.03em;}.cls-46{letter-spacing:0.02em;}.cls-47{letter-spacing:0.03em;}.cls-48{letter-spacing:0.02em;}.cls-49{letter-spacing:0em;}.cls-51{letter-spacing:0.01em;}.cls-52{letter-spacing:-0.07em;}</style></defs><title>Prize guide 01</title><path class="cls-1" d="M169.92,251.26a4.57,4.57,0,0,1,0,.52l6.5-.58Z"/><path class="cls-1" d="M103.44,298.52q1.64-1.86,3.43-3.59l-9.65,1.28A47.91,47.91,0,0,0,103.44,298.52Z"/><path class="cls-2" d="M169.87,251.78l6.5-.58-6.45.06A4.57,4.57,0,0,1,169.87,251.78Z"/><path class="cls-1" d="M169.87,251.78l6.5-.58-6.45.06A4.57,4.57,0,0,1,169.87,251.78Z"/><rect class="cls-3" y="1.01" width="612" height="434.3"/><text class="cls-4" transform="translate(23.75 77.44) scale(0.51 1)">Spin Game Dis<tspan class="cls-5" x="128.04" y="0">c</tspan><tspan class="cls-6" x="138.29" y="0">ou</tspan><tspan class="cls-7" x="160.74" y="0">n</tspan><tspan x="171.74" y="0">t Pri</tspan><tspan class="cls-8" x="208.31" y="0">z</tspan><tspan class="cls-6" x="217.11" y="0">es</tspan><tspan class="cls-9" x="236.79" y="0"> </tspan><tspan class="cls-10" x="241.03" y="0">w</tspan><tspan x="255.73" y="0">on, a</tspan><tspan class="cls-11" x="299.43" y="0">r</tspan><tspan x="306.55" y="0">e au</tspan><tspan class="cls-12" x="345" y="0">t</tspan><tspan x="352.35" y="0">omati</tspan><tspan class="cls-5" x="404.76" y="0">c</tspan><tspan class="cls-6" x="415" y="0">al</tspan><tspan class="cls-13" x="433.27" y="0">l</tspan><tspan class="cls-14" x="439.48" y="0">y</tspan><tspan x="449.2" y="0" xml:space="preserve"> applied </tspan><tspan class="cls-12" x="527.81" y="0">t</tspan><tspan class="cls-6" x="535.16" y="0">o pu</tspan><tspan class="cls-15" x="573.91" y="0">r</tspan><tspan x="581.03" y="0">chase, o</tspan><tspan class="cls-14" x="654.74" y="0">r</tspan><tspan x="662.01" y="0" xml:space="preserve"> sa</tspan><tspan class="cls-16" x="687.75" y="0">v</tspan><tspan x="697.75" y="0">ed in </tspan><tspan class="cls-16" x="746.05" y="0">U</tspan><tspan class="cls-17" x="759.24" y="0">ser</tspan><tspan class="cls-18" x="786.51" y="0">’</tspan><tspan class="cls-17" x="791.55" y="0">s a</tspan><tspan class="cls-5" x="817.3" y="0">cc</tspan><tspan x="837.79" y="0">ou</tspan><tspan class="cls-5" x="860.23" y="0">n</tspan><tspan x="871.24" y="0">t </tspan><tspan class="cls-14" x="883.55" y="0">f</tspan><tspan x="890.53" y="0">o</tspan><tspan class="cls-19" x="901.62" y="0">r</tspan><tspan class="cls-17" x="908.89" y="0"> </tspan><tspan class="cls-20" x="913.61" y="0">l</tspan><tspan class="cls-17" x="919.93" y="0">a</tspan><tspan class="cls-21" x="931.78" y="0">t</tspan><tspan x="939.13" y="0">e</tspan><tspan class="cls-14" x="949.64" y="0">r</tspan><tspan x="956.91" y="0" xml:space="preserve"> pu</tspan><tspan class="cls-22" x="984.56" y="0">r</tspan><tspan x="991.68" y="0">chase </tspan><tspan class="cls-23" x="1049.36" y="0">o</tspan><tspan class="cls-24" x="1060.31" y="0">f</tspan><tspan x="0" y="28.66" xml:space="preserve"> the same p</tspan><tspan class="cls-15" x="102.95" y="28.66">r</tspan><tspan class="cls-6" x="110.07" y="28.66">oduct un</tspan><tspan class="cls-5" x="189.46" y="28.66">l</tspan><tspan class="cls-6" x="195.79" y="28.66">ess </tspan><tspan class="cls-25" x="229.37" y="28.66">o</tspan><tspan class="cls-6" x="240.3" y="28.66">therwise s</tspan><tspan class="cls-12" x="330.85" y="28.66">t</tspan><tspan class="cls-6" x="338.21" y="28.66">a</tspan><tspan class="cls-26" x="350.06" y="28.66">t</tspan><tspan class="cls-6" x="357.41" y="28.66">ed on Dis</tspan><tspan class="cls-5" x="438.86" y="28.66">c</tspan><tspan x="449.11" y="28.66">ou</tspan><tspan class="cls-5" x="471.56" y="28.66">n</tspan><tspan class="cls-6" x="482.56" y="28.66">t pri</tspan><tspan class="cls-8" x="519.42" y="28.66">z</tspan><tspan x="528.22" y="28.66">e d</tspan><tspan class="cls-5" x="555.3" y="28.66">e</tspan><tspan class="cls-27" x="565.73" y="28.66">t</tspan><tspan x="573.08" y="28.66">ails. </tspan><tspan class="cls-6"><tspan x="0" y="57.31">Dis</tspan><tspan class="cls-5" x="27.46" y="57.31">c</tspan><tspan x="37.7" y="57.31">ou</tspan><tspan class="cls-7" x="60.15" y="57.31">n</tspan><tspan class="cls-28" x="71.15" y="57.31">ts and </tspan><tspan class="cls-5" x="132.15" y="57.31">c</tspan><tspan x="142.4" y="57.31">oupons a</tspan><tspan class="cls-15" x="224.34" y="57.31">r</tspan><tspan x="231.47" y="57.31">e p</tspan><tspan class="cls-15" x="258.27" y="57.31">r</tspan><tspan x="265.4" y="57.31">om</tspan><tspan class="cls-25" x="292.98" y="57.31">o</tspan><tspan class="cls-28" x="303.91" y="57.31">tiona</tspan><tspan class="cls-22" x="350.92" y="57.31">l</tspan><tspan x="356.88" y="57.31"> </tspan><tspan class="cls-29" x="361.61" y="57.31">o</tspan><tspan class="cls-14" x="372.56" y="57.31">ff</tspan><tspan x="384.29" y="57.31">ers</tspan><tspan class="cls-9" x="411.55" y="57.31"> </tspan><tspan class="cls-28" x="415.78" y="57.31">with Expir</tspan><tspan class="cls-30" x="504.64" y="57.31">y</tspan><tspan x="514.36" y="57.31" xml:space="preserve"> da</tspan><tspan class="cls-12" x="542.78" y="57.31">t</tspan><tspan class="cls-17" x="550.14" y="57.31">es. NO </tspan><tspan class="cls-24" x="611.26" y="57.31">C</tspan><tspan class="cls-21" x="623.3" y="57.31">A</tspan><tspan class="cls-17" x="635.05" y="57.31">SH</tspan><tspan class="cls-31" x="659.57" y="57.31"> </tspan><tspan class="cls-32" x="663.65" y="57.31">V</tspan><tspan class="cls-33" x="674.63" y="57.31">A</tspan><tspan class="cls-34" x="686.61" y="57.31">L</tspan><tspan class="cls-17" x="696.34" y="57.31">UE - # numbe</tspan><tspan class="cls-11" x="816.57" y="57.31">r</tspan><tspan class="cls-33" x="823.7" y="57.31">ed</tspan></tspan><tspan x="0" y="85.97">Spin Game P</tspan><tspan class="cls-15" x="111.87" y="85.97">r</tspan><tspan class="cls-6" x="119" y="85.97">oduct Pri</tspan><tspan class="cls-35" x="200.2" y="85.97">z</tspan><tspan class="cls-6" x="209" y="85.97">es</tspan><tspan class="cls-36" x="228.68" y="85.97"> </tspan><tspan class="cls-20" x="232.91" y="85.97">w</tspan><tspan class="cls-6" x="247.62" y="85.97">on a</tspan><tspan class="cls-11" x="286.38" y="85.97">r</tspan><tspan x="293.5" y="85.97">e au</tspan><tspan class="cls-12" x="331.95" y="85.97">t</tspan><tspan x="339.3" y="85.97">omati</tspan><tspan class="cls-5" x="391.71" y="85.97">c</tspan><tspan class="cls-6" x="401.96" y="85.97">al</tspan><tspan class="cls-13" x="420.22" y="85.97">l</tspan><tspan class="cls-14" x="426.43" y="85.97">y</tspan><tspan x="436.15" y="85.97" xml:space="preserve"> applied </tspan><tspan class="cls-12" x="514.76" y="85.97">t</tspan><tspan x="522.12" y="85.97">o pu</tspan><tspan class="cls-15" x="560.86" y="85.97">r</tspan><tspan x="567.98" y="85.97">chase during checkout. </tspan><tspan x="0" y="114.62">Subject </tspan><tspan class="cls-12" x="72.72" y="114.62">t</tspan><tspan class="cls-6" x="80.08" y="114.62">o shipping and handling </tspan><tspan class="cls-30" x="302.07" y="114.62">f</tspan><tspan class="cls-6" x="309.06" y="114.62">ees</tspan><tspan class="cls-36" x="339.25" y="114.62"> </tspan><tspan x="343.48" y="114.62">whe</tspan><tspan class="cls-15" x="379.89" y="114.62">r</tspan><tspan class="cls-6" x="387.02" y="114.62">e appli</tspan><tspan class="cls-5" x="449.06" y="114.62">c</tspan><tspan x="459.3" y="114.62">ab</tspan><tspan class="cls-5" x="482.74" y="114.62">l</tspan><tspan class="cls-6" x="489.07" y="114.62">e.</tspan><tspan class="cls-6"><tspan x="0" y="143.28">Winner</tspan><tspan class="cls-23" x="64.01" y="143.28">’</tspan><tspan class="cls-28" x="69.06" y="143.28">s a</tspan><tspan class="cls-15" x="94.8" y="143.28">r</tspan><tspan x="101.93" y="143.28">e </tspan><tspan class="cls-15" x="117.16" y="143.28">r</tspan><tspan x="124.29" y="143.28">esponsib</tspan><tspan class="cls-5" x="203.87" y="143.28">l</tspan><tspan class="cls-28" x="210.2" y="143.28">e </tspan><tspan class="cls-30" x="225.44" y="143.28">f</tspan><tspan x="232.42" y="143.28">o</tspan><tspan class="cls-14" x="243.51" y="143.28">r</tspan><tspan class="cls-28" x="250.78" y="143.28" xml:space="preserve"> shipping and handling, un</tspan><tspan class="cls-5" x="489.07" y="143.28">l</tspan><tspan x="495.4" y="143.28">ess </tspan><tspan class="cls-25" x="528.97" y="143.28">o</tspan><tspan x="539.91" y="143.28">therwise s</tspan><tspan class="cls-12" x="630.46" y="143.28">t</tspan><tspan class="cls-28" x="637.81" y="143.28">a</tspan><tspan class="cls-21" x="649.66" y="143.28">t</tspan><tspan class="cls-28" x="657.02" y="143.28">ed in pri</tspan><tspan class="cls-37" x="729.86" y="143.28">z</tspan><tspan class="cls-28" x="738.67" y="143.28">e d</tspan><tspan class="cls-5" x="765.75" y="143.28">e</tspan><tspan class="cls-21" x="776.17" y="143.28">t</tspan><tspan class="cls-17" x="783.53" y="143.28">ails</tspan></tspan><tspan x="0" y="171.94">Pri</tspan><tspan class="cls-35" x="24.26" y="171.94">z</tspan><tspan class="cls-6" x="33.06" y="171.94">es a</tspan><tspan class="cls-15" x="69.32" y="171.94">r</tspan><tspan class="cls-6" x="76.45" y="171.94">e p</tspan><tspan class="cls-15" x="103.25" y="171.94">r</tspan><tspan x="110.37" y="171.94">o</tspan><tspan class="cls-5" x="121.47" y="171.94">c</tspan><tspan class="cls-6" x="131.71" y="171.94">essed as an o</tspan><tspan class="cls-38" x="252.15" y="171.94">r</tspan><tspan class="cls-6" x="259.31" y="171.94">de</tspan><tspan class="cls-14" x="281.67" y="171.94">r</tspan><tspan class="cls-36" x="288.94" y="171.94"> </tspan><tspan x="293.17" y="171.94">within 2</tspan><tspan class="cls-39" x="363.87" y="171.94">-</tspan><tspan x="370.62" y="171.94">3 days </tspan><tspan class="cls-29" x="433.33" y="171.94">o</tspan><tspan class="cls-40" x="444.28" y="171.94">f</tspan><tspan class="cls-6" x="451.3" y="171.94"> </tspan><tspan class="cls-15" x="456.02" y="171.94">r</tspan><tspan class="cls-6" x="463.15" y="171.94">e</tspan><tspan class="cls-5" x="473.66" y="171.94">c</tspan><tspan x="483.9" y="171.94">eiving the </tspan><tspan class="cls-5" x="576.62" y="171.94">c</tspan><tspan x="586.87" y="171.94">o</tspan><tspan class="cls-41" x="597.96" y="171.94">n</tspan><tspan x="608.98" y="171.94">firmation shipping d</tspan><tspan class="cls-5" x="789.06" y="171.94">e</tspan><tspan class="cls-21" x="799.49" y="171.94">t</tspan><tspan class="cls-17" x="806.84" y="171.94">ails and appli</tspan><tspan class="cls-5" x="930.72" y="171.94">c</tspan><tspan class="cls-17" x="940.97" y="171.94">ab</tspan><tspan class="cls-42" x="964.4" y="171.94">l</tspan><tspan class="cls-33" x="970.73" y="171.94">e payme</tspan><tspan class="cls-5" x="1046.42" y="171.94">n</tspan><tspan x="1057.42" y="171.94" xml:space="preserve">ts.  </tspan><tspan x="0" y="200.59">Pri</tspan><tspan class="cls-35" x="24.26" y="200.59">z</tspan><tspan class="cls-6" x="33.06" y="200.59">es</tspan><tspan class="cls-36" x="52.74" y="200.59"> </tspan><tspan class="cls-20" x="56.98" y="200.59">w</tspan><tspan class="cls-6" x="71.68" y="200.59">on that a</tspan><tspan class="cls-11" x="153.28" y="200.59">r</tspan><tspan class="cls-6" x="160.4" y="200.59">e p</tspan><tspan class="cls-43" x="187.21" y="200.59">h</tspan><tspan x="198.09" y="200.59">ysi</tspan><tspan class="cls-5" x="222.69" y="200.59">c</tspan><tspan class="cls-6" x="232.93" y="200.59">a</tspan><tspan class="cls-22" x="244.78" y="200.59">l</tspan><tspan class="cls-6" x="250.74" y="200.59" xml:space="preserve"> i</tspan><tspan class="cls-12" x="260.86" y="200.59">t</tspan><tspan class="cls-6" x="268.22" y="200.59">ems o</tspan><tspan class="cls-14" x="320.2" y="200.59">r</tspan><tspan x="327.47" y="200.59" xml:space="preserve"> p</tspan><tspan class="cls-15" x="343.76" y="200.59">r</tspan><tspan x="350.89" y="200.59">oducts</tspan><tspan class="cls-36" x="412.27" y="200.59"> </tspan><tspan x="416.5" y="200.59">wil</tspan><tspan class="cls-15" x="443.13" y="200.59">l</tspan><tspan x="449.09" y="200.59" xml:space="preserve"> be he</tspan><tspan class="cls-10" x="502.24" y="200.59">l</tspan><tspan class="cls-6" x="508.55" y="200.59">d in </tspan><tspan class="cls-44" x="546.35" y="200.59">U</tspan><tspan class="cls-6" x="559.54" y="200.59">ser</tspan><tspan class="cls-29" x="586.8" y="200.59">’</tspan><tspan class="cls-6" x="591.84" y="200.59">s i</tspan><tspan class="cls-45" x="611.13" y="200.59">n</tspan><tspan class="cls-16" x="622.03" y="200.59">v</tspan><tspan x="632.03" y="200.59">e</tspan><tspan class="cls-5" x="642.54" y="200.59">n</tspan><tspan class="cls-12" x="653.55" y="200.59">t</tspan><tspan x="660.9" y="200.59">or</tspan><tspan class="cls-14" x="679.57" y="200.59">y</tspan><tspan x="689.29" y="200.59"> </tspan><tspan class="cls-14" x="694.02" y="200.59">f</tspan><tspan x="701" y="200.59">o</tspan><tspan class="cls-14" x="712.09" y="200.59">r</tspan><tspan x="719.36" y="200.59" xml:space="preserve"> 14 days FREE i</tspan><tspan class="cls-46" x="850.8" y="200.59">f</tspan><tspan x="857.82" y="200.59" xml:space="preserve"> n</tspan><tspan class="cls-25" x="873.64" y="200.59">o</tspan><tspan x="884.57" y="200.59">t shipped during checkout. </tspan><tspan x="0" y="229.25">Pri</tspan><tspan class="cls-35" x="24.26" y="229.25">z</tspan><tspan class="cls-6" x="33.06" y="229.25">es n</tspan><tspan class="cls-25" x="68.56" y="229.25">o</tspan><tspan x="79.5" y="229.25">t shipped </tspan><tspan class="cls-5" x="167.68" y="229.25">B</tspan><tspan class="cls-30" x="179.92" y="229.25">y</tspan><tspan x="189.64" y="229.25" xml:space="preserve"> Spin Shoppe</tspan><tspan class="cls-14" x="305.27" y="229.25">r</tspan><tspan class="cls-36" x="312.53" y="229.25"> </tspan><tspan x="316.76" y="229.25">wil</tspan><tspan class="cls-22" x="343.39" y="229.25">l</tspan><tspan x="349.35" y="229.25" xml:space="preserve"> be au</tspan><tspan class="cls-12" x="404.11" y="229.25">t</tspan><tspan x="411.46" y="229.25">omati</tspan><tspan class="cls-47" x="463.87" y="229.25">c</tspan><tspan class="cls-6" x="474.12" y="229.25">al</tspan><tspan class="cls-43" x="492.38" y="229.25">l</tspan><tspan class="cls-30" x="498.59" y="229.25">y</tspan><tspan class="cls-6" x="508.31" y="229.25" xml:space="preserve"> be </tspan><tspan class="cls-41" x="539.86" y="229.25">e</tspan><tspan class="cls-48" x="550.3" y="229.25">x</tspan><tspan x="559.82" y="229.25">changed </tspan><tspan class="cls-14" x="642.84" y="229.25">f</tspan><tspan x="649.82" y="229.25">o</tspan><tspan class="cls-14" x="660.92" y="229.25">r</tspan><tspan x="668.18" y="229.25"> </tspan><tspan class="cls-5" x="672.91" y="229.25">S</tspan><tspan class="cls-12" x="683.96" y="229.25">t</tspan><tspan x="691.32" y="229.25">o</tspan><tspan class="cls-22" x="702.41" y="229.25">r</tspan><tspan x="709.53" y="229.25">e c</tspan><tspan class="cls-22" x="735.1" y="229.25">r</tspan><tspan x="742.23" y="229.25">edit af</tspan><tspan class="cls-21" x="801.44" y="229.25">t</tspan><tspan x="808.8" y="229.25">e</tspan><tspan class="cls-14" x="819.31" y="229.25">r</tspan><tspan x="826.57" y="229.25" xml:space="preserve"> 30 days f</tspan><tspan class="cls-11" x="912.47" y="229.25">r</tspan><tspan x="919.59" y="229.25">om da</tspan><tspan class="cls-12" x="975.6" y="229.25">t</tspan><tspan x="982.95" y="229.25">e issued.</tspan><tspan class="cls-44"><tspan x="0" y="257.9">U</tspan><tspan class="cls-28" x="13.19" y="257.9">ser</tspan><tspan class="cls-23" x="40.45" y="257.9">’</tspan><tspan class="cls-28" x="45.5" y="257.9">s a</tspan><tspan class="cls-15" x="71.24" y="257.9">r</tspan><tspan class="cls-6" x="78.37" y="257.9">e </tspan><tspan class="cls-15" x="93.6" y="257.9">r</tspan><tspan class="cls-6" x="100.73" y="257.9">esponsib</tspan><tspan class="cls-5" x="180.31" y="257.9">l</tspan><tspan class="cls-6" x="186.64" y="257.9">e </tspan><tspan class="cls-14" x="201.88" y="257.9">f</tspan><tspan class="cls-6" x="208.86" y="257.9">o</tspan><tspan class="cls-14" x="219.95" y="257.9">r</tspan><tspan class="cls-28" x="227.22" y="257.9" xml:space="preserve"> all, Duties, s</tspan><tspan class="cls-12" x="342.03" y="257.9">t</tspan><tspan class="cls-28" x="349.39" y="257.9">o</tspan><tspan class="cls-38" x="360.48" y="257.9">r</tspan><tspan class="cls-28" x="367.64" y="257.9">age, and o</tspan><tspan class="cls-14" x="461.84" y="257.9">r</tspan><tspan class="cls-6" x="469.11" y="257.9" xml:space="preserve"> and </tspan><tspan class="cls-25" x="513.35" y="257.9">o</tspan><tspan class="cls-6" x="524.29" y="257.9">the</tspan><tspan class="cls-14" x="553.47" y="257.9">r</tspan><tspan class="cls-28" x="560.74" y="257.9"> </tspan><tspan class="cls-14" x="565.46" y="257.9">f</tspan><tspan class="cls-6" x="572.44" y="257.9">ees associa</tspan><tspan class="cls-12" x="676.22" y="257.9">t</tspan><tspan class="cls-33" x="683.58" y="257.9">ed af</tspan><tspan class="cls-21" x="729.81" y="257.9">t</tspan><tspan class="cls-28" x="737.17" y="257.9">e</tspan><tspan class="cls-14" x="747.68" y="257.9">r</tspan><tspan class="cls-28" x="754.94" y="257.9" xml:space="preserve"> 14 days f</tspan><tspan class="cls-22" x="839.43" y="257.9">r</tspan><tspan class="cls-28" x="846.55" y="257.9">om da</tspan><tspan class="cls-21" x="902.56" y="257.9">t</tspan><tspan class="cls-28" x="909.91" y="257.9">e </tspan><tspan class="cls-23" x="925.15" y="257.9">o</tspan><tspan class="cls-24" x="936.1" y="257.9">f</tspan><tspan class="cls-36" x="943.12" y="257.9"> </tspan><tspan class="cls-28" x="947.35" y="257.9">winning pri</tspan><tspan class="cls-37" x="1047.07" y="257.9">z</tspan><tspan class="cls-28" x="1055.87" y="257.9">e</tspan></tspan><tspan x="0" y="286.56">Pri</tspan><tspan class="cls-35" x="24.26" y="286.56">z</tspan><tspan class="cls-6" x="33.06" y="286.56">es a</tspan><tspan class="cls-15" x="69.32" y="286.56">r</tspan><tspan class="cls-6" x="76.45" y="286.56">e shipped f</tspan><tspan class="cls-15" x="174.86" y="286.56">r</tspan><tspan x="181.99" y="286.56">om Canadian </tspan><tspan class="cls-49" x="306.32" y="286.56">L</tspan><tspan x="316.27" y="286.56">o</tspan><tspan class="cls-5" x="327.36" y="286.56">c</tspan><tspan class="cls-6" x="337.61" y="286.56">ation, pri</tspan><tspan class="cls-8" x="418.83" y="286.56">z</tspan><tspan class="cls-6" x="427.63" y="286.56">es shipped outside </tspan><tspan class="cls-18" x="599.6" y="286.56">o</tspan><tspan class="cls-46" x="610.55" y="286.56">f</tspan><tspan x="617.57" y="286.56" xml:space="preserve"> Canada maybe subject </tspan><tspan class="cls-21" x="833.78" y="286.56">t</tspan><tspan x="841.14" y="286.56">o cus</tspan><tspan class="cls-21" x="887.81" y="286.56">t</tspan><tspan class="cls-17" x="895.17" y="286.56">oms </tspan><tspan class="cls-14" x="936.64" y="286.56">f</tspan><tspan x="943.63" y="286.56">ees</tspan><tspan class="cls-36" x="973.82" y="286.56"> </tspan><tspan x="978.05" y="286.56">which</tspan><tspan class="cls-36" x="1030.77" y="286.56"> </tspan><tspan class="cls-20" x="1035.01" y="286.56">w</tspan><tspan x="1049.71" y="286.56">ou</tspan><tspan class="cls-20" x="1072.16" y="286.56">l</tspan><tspan class="cls-17" x="1078.48" y="286.56">d </tspan><tspan x="0" y="315.22">be the</tspan><tspan class="cls-49" x="56.01" y="315.22"> </tspan><tspan class="cls-6" x="60.08" y="315.22">Winner</tspan><tspan class="cls-29" x="124.09" y="315.22">’</tspan><tspan class="cls-6" x="129.14" y="315.22">s </tspan><tspan class="cls-41" x="143.03" y="315.22">e</tspan><tspan class="cls-6" x="153.47" y="315.22">xpense</tspan></text><text class="cls-50" transform="translate(183.1 408.73) scale(0.51 1)">Al<tspan class="cls-22" x="18.39" y="0">l</tspan><tspan x="24.35" y="0" xml:space="preserve"> rig</tspan><tspan class="cls-5" x="53.63" y="0">h</tspan><tspan x="64.63" y="0">ts </tspan><tspan class="cls-15" x="86.11" y="0">r</tspan><tspan x="93.23" y="0">eser</tspan><tspan class="cls-44" x="131.01" y="0">v</tspan><tspan x="141" y="0">ed and</tspan><tspan class="cls-51" x="202.88" y="0"> </tspan><tspan class="cls-52" x="207.08" y="0">T</tspan><tspan x="216.32" y="0">erms Subject </tspan><tspan class="cls-21" x="337.52" y="0">t</tspan><tspan class="cls-28" x="344.87" y="0">o Change.</tspan></text><image width="1424" height="281" transform="translate(161 6.61) scale(0.17)" xlink:href="C:%5CUsers%5CRoshun%20Home%2001%5CDownloads%5Ccoollogo_com-12459267.png"/></svg>