<svg id="Layer_1" data-name="Layer 1" xmlns="http://www.w3.org/2000/svg" viewBox="0 0 612 558.12"><defs><style>.cls-1{fill:#e0f2f7;stroke:#231f20;stroke-miterlimit:10;opacity:0.5;}.cls-2{font-size:17.63px;fill:#262626;font-family:Raleway-ExtraBoldItalic, Raleway;font-weight:800;font-style:italic;}.cls-18,.cls-2{letter-spacing:0.04em;}.cls-3{letter-spacing:0.03em;}.cls-4{letter-spacing:0.03em;}.cls-5{letter-spacing:0.04em;}.cls-6{letter-spacing:0.01em;}.cls-7{letter-spacing:0.02em;}.cls-8{letter-spacing:0.03em;}.cls-9{letter-spacing:0.01em;}.cls-10{letter-spacing:0.03em;}.cls-11{letter-spacing:0.02em;}.cls-12{letter-spacing:0.03em;}.cls-13{letter-spacing:0.01em;}.cls-14{letter-spacing:0em;}.cls-15{letter-spacing:0.04em;}.cls-16{letter-spacing:0.03em;}.cls-17{letter-spacing:0.02em;}.cls-19{letter-spacing:0.02em;}.cls-20{letter-spacing:0.03em;}.cls-21{letter-spacing:0.03em;}.cls-22{letter-spacing:0.01em;}.cls-23{letter-spacing:0.01em;}.cls-24{letter-spacing:0.03em;}.cls-25{letter-spacing:0.03em;}.cls-26{letter-spacing:0.01em;}.cls-27{letter-spacing:0.03em;}.cls-28{letter-spacing:0.03em;}.cls-29{letter-spacing:0.03em;}.cls-30{letter-spacing:0.04em;}.cls-31{letter-spacing:0.02em;}.cls-32{letter-spacing:0.03em;}.cls-33{letter-spacing:0.04em;}.cls-34{letter-spacing:0.03em;}.cls-35{letter-spacing:0.02em;}.cls-36{letter-spacing:-0.02em;}.cls-37{letter-spacing:-0.01em;}.cls-38{letter-spacing:-0.01em;}.cls-39{letter-spacing:0.02em;}.cls-40{letter-spacing:0.01em;}.cls-41{letter-spacing:0.01em;}.cls-42{letter-spacing:-0.07em;}.cls-43{letter-spacing:0.02em;}.cls-44{letter-spacing:0em;}.cls-45{letter-spacing:0.03em;}.cls-46{letter-spacing:0.03em;}.cls-47{letter-spacing:0.02em;}.cls-48{letter-spacing:0.03em;}.cls-49{letter-spacing:-0.01em;}.cls-50{letter-spacing:0.03em;}.cls-51{letter-spacing:0.03em;}.cls-52{letter-spacing:0.02em;}.cls-53{letter-spacing:0.03em;}.cls-54{letter-spacing:0.03em;}.cls-55{letter-spacing:0.03em;}.cls-56{letter-spacing:0.01em;}.cls-57{fill:#d2c43d;}.cls-58{fill:#c9b92e;}.cls-59{fill:#b2afaf;}.cls-60{fill:#aba8a8;}.cls-61{fill:#aba8a7;}.cls-62{fill:#a5a2a2;}.cls-63{fill:#9b9898;}.cls-64{fill:#636060;}.cls-65{fill:#484545;}.cls-66{fill:#494646;}.cls-67{fill:#4b4949;}.cls-68{fill:#676564;}.cls-69{fill:#848181;}.cls-70{fill:#a19e9e;}.cls-71{fill:#c5c4c4;}.cls-72{fill:#d2c33d;}.cls-73{fill:#c7c5c5;}.cls-74{fill:#d1d0cf;}.cls-75{fill:#8a8787;}.cls-76{fill:#d1cfcf;}.cls-77{fill:#cfcdcd;}.cls-78{fill:#a7a4a4;}.cls-79{fill:#565353;}.cls-80{fill:#cdcbcb;}.cls-81{fill:#747070;}.cls-82{fill:#494747;}.cls-83{fill:#858281;}.cls-84{fill:#b6b3b3;}.cls-85{fill:#afacac;}.cls-86{fill:#4b4948;}.cls-87{fill:#878383;}.cls-88{fill:#4a4848;}.cls-89{fill:#494746;}.cls-90{fill:#bbb8b8;}.cls-91{fill:#646161;}.cls-92{fill:#6b6868;}.cls-93{fill:#545252;}.cls-94{fill:#a8a5a5;}.cls-95{fill:#fff;}.cls-96{fill:#cecccc;}.cls-97{fill:#524f4f;}.cls-98{fill:#8b8888;}.cls-99{fill:#d3d1d1;}.cls-100{fill:#7c7978;}.cls-101{fill:#cab92f;}.cls-102{fill:#d1c23b;}.cls-103{fill:#caba2f;}.cls-104{fill:#dad8d8;}.cls-105{fill:#d9d7d7;}.cls-106{fill:#a6a2a2;}.cls-107{fill:#f2f1f0;}.cls-108{fill:#656261;}.cls-109{fill:#edebeb;}.cls-110{fill:#d0cece;}.cls-111{fill:#575453;}.cls-112{fill:#b8b6b6;}.cls-113{fill:#5a5757;}.cls-114{fill:#827f7f;}.cls-115{fill:#b5b2b2;}.cls-116{fill:#7e7a7a;}.cls-117{fill:#5f5d5c;}.cls-118{fill:#5c5959;}.cls-119{fill:#b7b4b4;}.cls-120{fill:#807d7d;}.cls-121{fill:#8a8686;}.cls-122{fill:#7e7b7b;}.cls-123{fill:#8d8989;}.cls-124{fill:#dddcdb;}.cls-125{fill:#545151;}.cls-126{fill:#aca9a9;}.cls-127{fill:#868383;}.cls-128{fill:#cccaca;}.cls-129{fill:#a5a1a1;}.cls-130{fill:#dbd9d9;}.cls-131{fill:#4c4949;}.cls-132{fill:#555252;}.cls-133{fill:#767272;}.cls-134{fill:#dcdada;}.cls-135{fill:#8f8c8c;}.cls-136{fill:#666363;}.cls-137{fill:#d7d6d5;}.cls-138{fill:#8f8b8b;}.cls-139{fill:#939090;}.cls-140{fill:#787575;}.cls-141{fill:#969292;}.cls-142{fill:#5f5c5b;}.cls-143{fill:#8d8a8a;}.cls-144{fill:#fefefe;}.cls-145{fill:#d2d0d0;}.cls-146{fill:#4c4a4a;}.cls-147{fill:#767373;}.cls-148{fill:#d7d5d5;}.cls-149{fill:#878484;}.cls-150{fill:#5e5b5b;}.cls-151{letter-spacing:0.01em;}</style></defs><title>22 How It Works V02</title><rect class="cls-1" x="-0.1" width="612" height="558.12"/><text class="cls-2" transform="translate(27.3 89.88) scale(0.51 1)">Spinit2win<tspan class="cls-3" x="94.08" y="0">.</tspan><tspan class="cls-4" x="98.79" y="0">c</tspan><tspan class="cls-5" x="109.03" y="0">om sponsors and</tspan><tspan class="cls-6" x="260.79" y="0"> </tspan><tspan class="cls-7" x="265.06" y="0">A</tspan><tspan class="cls-5" x="276.72" y="0">d</tspan><tspan class="cls-8" x="288.57" y="0">v</tspan><tspan class="cls-5" x="298.57" y="0">ertising </tspan><tspan class="cls-9" x="371.59" y="0">r</tspan><tspan class="cls-10" x="378.71" y="0">e</tspan><tspan class="cls-8" x="389.03" y="0">v</tspan><tspan class="cls-5" x="399.03" y="0">enue p</tspan><tspan class="cls-6" x="458.79" y="0">r</tspan><tspan class="cls-11" x="465.92" y="0">o</tspan><tspan class="cls-5" x="476.71" y="0">vide p</tspan><tspan class="cls-6" x="530.88" y="0">r</tspan><tspan class="cls-5" x="538" y="0">om</tspan><tspan class="cls-12" x="565.59" y="0">o</tspan><tspan class="cls-5" x="576.52" y="0">tiona</tspan><tspan class="cls-13" x="623.53" y="0">l</tspan><tspan x="629.49" y="0" xml:space="preserve"> dis</tspan><tspan class="cls-4" x="660.63" y="0">c</tspan><tspan x="670.88" y="0">ou</tspan><tspan class="cls-4" x="693.33" y="0">n</tspan><tspan x="704.33" y="0">ts and Spin</tspan><tspan class="cls-14" x="804.53" y="0"> </tspan><tspan class="cls-15" x="808.6" y="0">Whee</tspan><tspan class="cls-9" x="859.06" y="0">l</tspan><tspan x="865.02" y="0" xml:space="preserve"> pri</tspan><tspan class="cls-16" x="894.29" y="0">z</tspan><tspan x="903.09" y="0">es.</tspan><tspan class="cls-10"><tspan x="0" y="28.66">R</tspan><tspan class="cls-5" x="11.89" y="28.66">egis</tspan><tspan class="cls-17" x="48.53" y="28.66">t</tspan><tspan class="cls-18" x="55.88" y="28.66">e</tspan><tspan class="cls-7" x="66.39" y="28.66">r</tspan><tspan class="cls-5" x="73.66" y="28.66"> </tspan><tspan class="cls-19" x="78.38" y="28.66">f</tspan><tspan class="cls-5" x="85.37" y="28.66">o</tspan><tspan class="cls-7" x="96.46" y="28.66">r</tspan><tspan class="cls-18" x="103.73" y="28.66" xml:space="preserve"> FREE Spin Shoppe</tspan><tspan class="cls-7" x="268.22" y="28.66">r</tspan><tspan class="cls-18" x="275.48" y="28.66" xml:space="preserve"> a</tspan><tspan class="cls-4" x="292.06" y="28.66">cc</tspan><tspan class="cls-5" x="312.55" y="28.66">ou</tspan><tspan class="cls-4" x="335" y="28.66">n</tspan><tspan class="cls-5" x="346" y="28.66">t </tspan><tspan class="cls-17" x="358.31" y="28.66">t</tspan><tspan class="cls-5" x="365.67" y="28.66">o </tspan><tspan class="cls-4" x="381.48" y="28.66">c</tspan><tspan class="cls-18" x="391.73" y="28.66">ol</tspan><tspan class="cls-20" x="409.24" y="28.66">l</tspan><tspan class="cls-5" x="415.57" y="28.66">ect </tspan><tspan class="cls-9" x="448.72" y="28.66">r</tspan><tspan x="455.85" y="28.66">e</tspan><tspan class="cls-21" x="466.16" y="28.66">w</tspan><tspan class="cls-5" x="480.87" y="28.66">a</tspan><tspan class="cls-22" x="492.72" y="28.66">r</tspan><tspan class="cls-5" x="499.88" y="28.66">ds </tspan><tspan class="cls-19" x="525.63" y="28.66">f</tspan><tspan class="cls-5" x="532.61" y="28.66">o</tspan><tspan class="cls-19" x="543.7" y="28.66">r</tspan><tspan class="cls-23" x="550.97" y="28.66"> </tspan><tspan class="cls-24" x="555.18" y="28.66">y</tspan><tspan class="cls-18" x="565.14" y="28.66">ou</tspan><tspan class="cls-7" x="587.59" y="28.66">r</tspan><tspan class="cls-18" x="594.86" y="28.66" xml:space="preserve"> chan</tspan><tspan class="cls-4" x="643.95" y="28.66">c</tspan><tspan class="cls-18" x="654.2" y="28.66">e </tspan><tspan class="cls-25" x="669.43" y="28.66">t</tspan><tspan class="cls-18" x="676.79" y="28.66">o spin it 2</tspan><tspan class="cls-26" x="762.86" y="28.66"> </tspan><tspan class="cls-18" x="767.09" y="28.66">win</tspan><tspan class="cls-23" x="798.39" y="28.66"> </tspan><tspan class="cls-27" x="802.61" y="28.66">y</tspan><tspan class="cls-18" x="812.57" y="28.66">ou</tspan><tspan class="cls-7" x="835.02" y="28.66">r</tspan><tspan class="cls-18" x="842.28" y="28.66" xml:space="preserve"> n</tspan><tspan class="cls-28" x="858.1" y="28.66">e</tspan><tspan class="cls-18" x="868.54" y="28.66">xt pu</tspan><tspan class="cls-13" x="913.65" y="28.66">r</tspan><tspan class="cls-18" x="920.78" y="28.66">chase </tspan></tspan><tspan x="0" y="57.31">Spin Poi</tspan><tspan class="cls-29" x="71.7" y="57.31">n</tspan><tspan x="82.7" y="57.31">ts a</tspan><tspan class="cls-6" x="116.03" y="57.31">r</tspan><tspan class="cls-5" x="123.16" y="57.31">e gi</tspan><tspan class="cls-8" x="155.36" y="57.31">v</tspan><tspan class="cls-5" x="165.36" y="57.31">en </tspan><tspan class="cls-17" x="191.68" y="57.31">t</tspan><tspan x="199.04" y="57.31">o </tspan><tspan class="cls-6" x="214.86" y="57.31">r</tspan><tspan class="cls-5" x="221.98" y="57.31">egis</tspan><tspan class="cls-17" x="258.62" y="57.31">t</tspan><tspan x="265.98" y="57.31">e</tspan><tspan class="cls-9" x="276.49" y="57.31">r</tspan><tspan x="283.61" y="57.31">ed Spin Shoppers FREE</tspan><tspan class="cls-26" x="487.22" y="57.31"> </tspan><tspan x="491.45" y="57.31">with no pu</tspan><tspan class="cls-13" x="584.89" y="57.31">r</tspan><tspan x="592.02" y="57.31">chase ne</tspan><tspan class="cls-4" x="671.3" y="57.31">c</tspan><tspan x="681.55" y="57.31">essar</tspan><tspan class="cls-22" x="729.83" y="57.31">y</tspan><tspan class="cls-30" x="739.44" y="57.31" xml:space="preserve">.  </tspan><tspan class="cls-5"><tspan x="0" y="85.97">Col</tspan><tspan class="cls-4" x="29.84" y="85.97">l</tspan><tspan x="36.17" y="85.97">ect poi</tspan><tspan class="cls-4" x="97.38" y="85.97">n</tspan><tspan x="108.38" y="85.97">ts </tspan><tspan class="cls-31" x="129.86" y="85.97">b</tspan><tspan class="cls-19" x="141.18" y="85.97">y</tspan><tspan x="150.9" y="85.97"> </tspan><tspan class="cls-4" x="155.62" y="85.97">c</tspan><tspan class="cls-18" x="165.87" y="85.97">omp</tspan><tspan class="cls-20" x="205.02" y="85.97">le</tspan><tspan x="221.77" y="85.97">ting Ca</tspan><tspan class="cls-32" x="286.31" y="85.97">p</tspan><tspan class="cls-17" x="297.74" y="85.97">t</tspan><tspan class="cls-18" x="305.09" y="85.97">cha </tspan><tspan class="cls-17" x="343.09" y="85.97">t</tspan><tspan x="350.45" y="85.97">asks </tspan><tspan class="cls-7" x="396.08" y="85.97">f</tspan><tspan x="403.07" y="85.97">ound at spinit2win</tspan><tspan class="cls-3" x="569.45" y="85.97">.</tspan><tspan class="cls-4" x="574.15" y="85.97">c</tspan><tspan class="cls-33" x="584.4" y="85.97">om </tspan></tspan><tspan x="0" y="114.62">Spin Poi</tspan><tspan class="cls-29" x="71.7" y="114.62">n</tspan><tspan x="82.7" y="114.62">ts ha</tspan><tspan class="cls-34" x="127.13" y="114.62">v</tspan><tspan x="137.12" y="114.62">e NO </tspan><tspan class="cls-35" x="184.21" y="114.62">C</tspan><tspan class="cls-17" x="196.25" y="114.62">A</tspan><tspan x="208" y="114.62">SH</tspan><tspan class="cls-14" x="232.53" y="114.62"> </tspan><tspan class="cls-36" x="236.6" y="114.62">V</tspan><tspan x="247.59" y="114.62">A</tspan><tspan class="cls-37" x="259.56" y="114.62">L</tspan><tspan class="cls-5" x="269.29" y="114.62" xml:space="preserve">UE  and is a p</tspan><tspan class="cls-6" x="389.84" y="114.62">r</tspan><tspan class="cls-5" x="396.97" y="114.62">om</tspan><tspan class="cls-12" x="424.55" y="114.62">o</tspan><tspan x="435.48" y="114.62">tiona</tspan><tspan class="cls-6" x="482.49" y="114.62">l</tspan><tspan x="488.45" y="114.62"> </tspan><tspan class="cls-32" x="493.18" y="114.62">o</tspan><tspan class="cls-19" x="504.13" y="114.62">ff</tspan><tspan class="cls-5" x="515.86" y="114.62">e</tspan><tspan class="cls-38" x="526.37" y="114.62">r</tspan><tspan class="cls-5" x="533.16" y="114.62">, </tspan><tspan class="cls-7" x="542.82" y="114.62">f</tspan><tspan x="549.8" y="114.62">o</tspan><tspan class="cls-39" x="560.89" y="114.62">r</tspan><tspan x="568.16" y="114.62"> </tspan><tspan class="cls-6" x="572.88" y="114.62">r</tspan><tspan class="cls-5" x="580.01" y="114.62">egis</tspan><tspan class="cls-17" x="616.65" y="114.62">t</tspan><tspan x="624.01" y="114.62">e</tspan><tspan class="cls-13" x="634.52" y="114.62">r</tspan><tspan x="641.64" y="114.62">ed Spin Shoppers </tspan><tspan x="0" y="143.28">Spin Poi</tspan><tspan class="cls-29" x="71.7" y="143.28">n</tspan><tspan x="82.7" y="143.28">ts a</tspan><tspan class="cls-6" x="116.03" y="143.28">r</tspan><tspan class="cls-5" x="123.16" y="143.28">e </tspan><tspan class="cls-6" x="138.39" y="143.28">r</tspan><tspan class="cls-5" x="145.52" y="143.28">edeemab</tspan><tspan class="cls-4" x="228.82" y="143.28">l</tspan><tspan class="cls-5" x="235.15" y="143.28">e </tspan><tspan class="cls-7" x="250.39" y="143.28">f</tspan><tspan x="257.37" y="143.28">o</tspan><tspan class="cls-7" x="268.47" y="143.28">r</tspan><tspan class="cls-5" x="275.73" y="143.28"> </tspan><tspan class="cls-6" x="280.46" y="143.28">r</tspan><tspan class="cls-10" x="287.58" y="143.28">e</tspan><tspan class="cls-21" x="297.9" y="143.28">w</tspan><tspan class="cls-5" x="312.6" y="143.28">a</tspan><tspan class="cls-40" x="324.45" y="143.28">r</tspan><tspan class="cls-5" x="331.61" y="143.28">ds </tspan><tspan class="cls-32" x="357.36" y="143.28">o</tspan><tspan class="cls-19" x="368.31" y="143.28">ff</tspan><tspan class="cls-5" x="380.04" y="143.28">e</tspan><tspan class="cls-6" x="390.55" y="143.28">r</tspan><tspan class="cls-5" x="397.67" y="143.28">ed </tspan><tspan class="cls-31" x="424.76" y="143.28">b</tspan><tspan class="cls-19" x="436.08" y="143.28">y</tspan><tspan class="cls-5" x="445.8" y="143.28" xml:space="preserve"> spinit2win</tspan><tspan class="cls-12" x="542.63" y="143.28">.</tspan><tspan class="cls-4" x="547.33" y="143.28">c</tspan><tspan x="557.58" y="143.28">om and its affilia</tspan><tspan class="cls-17" x="707.33" y="143.28">t</tspan><tspan x="714.68" y="143.28">es.</tspan><tspan x="0" y="171.94">Spin poi</tspan><tspan class="cls-4" x="71.98" y="171.94">n</tspan><tspan class="cls-5" x="82.99" y="171.94">ts </tspan><tspan class="cls-4" x="104.47" y="171.94">c</tspan><tspan class="cls-5" x="114.71" y="171.94">an be </tspan><tspan class="cls-6" x="169.2" y="171.94">r</tspan><tspan class="cls-5" x="176.32" y="171.94">edeemed </tspan><tspan class="cls-7" x="263.28" y="171.94">f</tspan><tspan x="270.26" y="171.94">o</tspan><tspan class="cls-7" x="281.36" y="171.94">r</tspan><tspan class="cls-5" x="288.62" y="171.94" xml:space="preserve"> Spin game</tspan><tspan class="cls-41" x="387.69" y="171.94"> </tspan><tspan class="cls-42" x="391.89" y="171.94">T</tspan><tspan class="cls-5" x="401.13" y="171.94">okens – 1000 Spin Poi</tspan><tspan class="cls-4" x="593.78" y="171.94">n</tspan><tspan x="604.78" y="171.94">ts pe</tspan><tspan class="cls-43" x="648.34" y="171.94">r</tspan><tspan class="cls-30" x="655.61" y="171.94" xml:space="preserve"> spin</tspan><tspan x="0" y="200.59">Spin</tspan><tspan class="cls-41" x="39.2" y="200.59"> </tspan><tspan class="cls-42" x="43.4" y="200.59">T</tspan><tspan class="cls-5" x="52.64" y="200.59">okens a</tspan><tspan class="cls-9" x="121.8" y="200.59">r</tspan><tspan x="128.92" y="200.59">e used </tspan><tspan class="cls-17" x="191.77" y="200.59">t</tspan><tspan x="199.13" y="200.59">o p</tspan><tspan class="cls-21" x="226.51" y="200.59">l</tspan><tspan class="cls-5" x="232.83" y="200.59">a</tspan><tspan class="cls-19" x="244.68" y="200.59">y</tspan><tspan class="cls-5" x="254.39" y="200.59" xml:space="preserve"> Spin Game on spinit2win</tspan><tspan class="cls-12" x="478.72" y="200.59">.</tspan><tspan class="cls-4" x="483.43" y="200.59">c</tspan><tspan x="493.67" y="200.59">om.</tspan><tspan x="0" y="229.25">Spin Shoppers p</tspan><tspan class="cls-21" x="143.95" y="229.25">l</tspan><tspan class="cls-5" x="150.26" y="229.25">ays game </tspan><tspan class="cls-17" x="241.18" y="229.25">t</tspan><tspan x="248.54" y="229.25">o</tspan><tspan class="cls-44" x="259.63" y="229.25"> </tspan><tspan class="cls-5" x="263.7" y="229.25">WIN Pri</tspan><tspan class="cls-16" x="330.52" y="229.25">z</tspan><tspan class="cls-5" x="339.32" y="229.25">e, </tspan><tspan class="cls-45" x="359.49" y="229.25">E</tspan><tspan class="cls-34" x="370.09" y="229.25">v</tspan><tspan class="cls-5" x="380.09" y="229.25">er</tspan><tspan class="cls-19" x="398.18" y="229.25">y</tspan><tspan x="407.9" y="229.25" xml:space="preserve"> spin is a</tspan><tspan class="cls-44" x="485.72" y="229.25"> </tspan><tspan class="cls-5" x="489.79" y="229.25">Winne</tspan><tspan class="cls-39" x="546.22" y="229.25">r</tspan><tspan x="0" y="257.9">Spinit2win</tspan><tspan class="cls-3" x="94.08" y="257.9">.</tspan><tspan class="cls-4" x="98.79" y="257.9">c</tspan><tspan class="cls-5" x="109.03" y="257.9">om Spin</tspan><tspan class="cls-44" x="180.54" y="257.9"> </tspan><tspan class="cls-5" x="184.61" y="257.9">Whee</tspan><tspan class="cls-13" x="235.06" y="257.9">l</tspan><tspan class="cls-5" x="241.03" y="257.9"> </tspan><tspan class="cls-46" x="245.75" y="257.9">o</tspan><tspan class="cls-7" x="256.7" y="257.9">ff</tspan><tspan class="cls-5" x="268.43" y="257.9">ers a chan</tspan><tspan class="cls-4" x="361.36" y="257.9">c</tspan><tspan x="371.61" y="257.9">e </tspan><tspan class="cls-17" x="386.84" y="257.9">t</tspan><tspan x="394.2" y="257.9">o</tspan><tspan class="cls-26" x="405.29" y="257.9"> </tspan><tspan x="409.52" y="257.9">win Dis</tspan><tspan class="cls-4" x="473" y="257.9">c</tspan><tspan x="483.25" y="257.9">ou</tspan><tspan class="cls-4" x="505.7" y="257.9">n</tspan><tspan class="cls-5" x="516.7" y="257.9">ts, Coupons, Pri</tspan><tspan class="cls-16" x="654.74" y="257.9">z</tspan><tspan x="663.54" y="257.9">es </tspan><tspan class="cls-32" x="687.95" y="257.9">of</tspan><tspan class="cls-7" x="698.9" y="257.9">f</tspan><tspan x="710.62" y="257.9">e</tspan><tspan class="cls-13" x="721.13" y="257.9">r</tspan><tspan x="728.26" y="257.9">ed </tspan><tspan class="cls-47" x="755.35" y="257.9">b</tspan><tspan class="cls-7" x="766.67" y="257.9">y</tspan><tspan x="776.38" y="257.9" xml:space="preserve"> spinit2win</tspan><tspan class="cls-12" x="873.21" y="257.9">.</tspan><tspan class="cls-4" x="877.92" y="257.9">c</tspan><tspan x="888.17" y="257.9">om</tspan><tspan class="cls-17"><tspan x="0" y="286.56">E</tspan><tspan class="cls-8" x="10.6" y="286.56">v</tspan><tspan class="cls-5" x="20.6" y="286.56">er</tspan><tspan class="cls-19" x="38.69" y="286.56">y</tspan><tspan class="cls-18" x="48.41" y="286.56" xml:space="preserve"> spin</tspan><tspan class="cls-44" x="90.36" y="286.56"> </tspan><tspan class="cls-5" x="94.43" y="286.56">Wins a</tspan><tspan class="cls-14" x="155.01" y="286.56"> </tspan><tspan class="cls-18" x="159.08" y="286.56">Winne</tspan><tspan class="cls-38" x="215.51" y="286.56">r</tspan><tspan class="cls-5" x="222.3" y="286.56">, </tspan><tspan class="cls-48" x="231.96" y="286.56">S</tspan><tspan class="cls-21" x="242.9" y="286.56">w</tspan><tspan class="cls-5" x="257.6" y="286.56">ag, Dis</tspan><tspan class="cls-4" x="318.14" y="286.56">c</tspan><tspan class="cls-18" x="328.39" y="286.56">ou</tspan><tspan class="cls-29" x="350.83" y="286.56">n</tspan><tspan class="cls-5" x="361.84" y="286.56">ts, Coupons, Spin Poi</tspan><tspan class="cls-4" x="547.31" y="286.56">n</tspan><tspan class="cls-5" x="558.32" y="286.56">ts, </tspan><tspan class="cls-49" x="584.73" y="286.56">F</tspan><tspan class="cls-9" x="594.22" y="286.56">r</tspan><tspan class="cls-15" x="601.35" y="286.56">ee Spins, FREE Pri</tspan><tspan class="cls-50" x="758.25" y="286.56">z</tspan><tspan class="cls-18" x="767.06" y="286.56">es.</tspan></tspan><tspan x="0" y="315.22">Spin Shoppers a</tspan><tspan class="cls-9" x="144.23" y="315.22">r</tspan><tspan x="151.35" y="315.22">e </tspan><tspan class="cls-6" x="166.59" y="315.22">r</tspan><tspan class="cls-5" x="173.72" y="315.22">esponsib</tspan><tspan class="cls-4" x="253.3" y="315.22">l</tspan><tspan class="cls-5" x="259.63" y="315.22">e </tspan><tspan class="cls-7" x="274.87" y="315.22">f</tspan><tspan x="281.85" y="315.22">o</tspan><tspan class="cls-7" x="292.94" y="315.22">r</tspan><tspan x="300.21" y="315.22" xml:space="preserve"> shipping and handling and a</tspan><tspan class="cls-51" x="562.48" y="315.22">n</tspan><tspan class="cls-19" x="573.39" y="315.22">y</tspan><tspan x="583.11" y="315.22" xml:space="preserve"> cus</tspan><tspan class="cls-17" x="618.7" y="315.22">t</tspan><tspan x="626.05" y="315.22">om </tspan><tspan class="cls-14" x="658.36" y="315.22">F</tspan><tspan class="cls-15" x="668.11" y="315.22">e</tspan><tspan class="cls-52" x="678.62" y="315.22">e</tspan><tspan class="cls-32" x="688.88" y="315.22">’</tspan><tspan x="693.93" y="315.22">s that a</tspan><tspan class="cls-13" x="762.51" y="315.22">r</tspan><tspan x="769.63" y="315.22">e appli</tspan><tspan class="cls-4" x="831.67" y="315.22">c</tspan><tspan x="841.91" y="315.22">ab</tspan><tspan class="cls-4" x="865.35" y="315.22">l</tspan><tspan x="871.68" y="315.22">e </tspan><tspan class="cls-25" x="886.91" y="315.22">t</tspan><tspan x="894.27" y="315.22">o Pri</tspan><tspan class="cls-50" x="934.35" y="315.22">z</tspan><tspan x="943.15" y="315.22">es</tspan><tspan class="cls-26" x="962.83" y="315.22"> </tspan><tspan class="cls-21" x="967.06" y="315.22">w</tspan><tspan x="981.77" y="315.22">on *</tspan><tspan x="0" y="343.87">Spin</tspan><tspan class="cls-44" x="39.2" y="343.87"> </tspan><tspan class="cls-5" x="43.27" y="343.87">Whee</tspan><tspan class="cls-13" x="93.73" y="343.87">l</tspan><tspan class="cls-5" x="99.69" y="343.87" xml:space="preserve"> Game</tspan><tspan class="cls-14" x="156.35" y="343.87"> </tspan><tspan x="160.42" y="343.87">Winnings a</tspan><tspan class="cls-6" x="260.14" y="343.87">r</tspan><tspan class="cls-5" x="267.27" y="343.87">e applied di</tspan><tspan class="cls-6" x="373.64" y="343.87">r</tspan><tspan class="cls-5" x="380.76" y="343.87">ect</tspan><tspan class="cls-48" x="409.19" y="343.87">l</tspan><tspan class="cls-19" x="415.39" y="343.87">y</tspan><tspan x="425.11" y="343.87" xml:space="preserve"> during checkout o</tspan><tspan class="cls-7" x="592.25" y="343.87">r</tspan><tspan x="599.51" y="343.87" xml:space="preserve"> in </tspan><tspan class="cls-34" x="625.45" y="343.87">U</tspan><tspan class="cls-30" x="638.64" y="343.87">se</tspan><tspan class="cls-43" x="658.32" y="343.87">r</tspan><tspan x="665.59" y="343.87" xml:space="preserve"> a</tspan><tspan class="cls-4" x="682.16" y="343.87">cc</tspan><tspan x="702.66" y="343.87">ou</tspan><tspan class="cls-4" x="725.1" y="343.87">n</tspan><tspan x="736.11" y="343.87">t</tspan><tspan class="cls-26" x="743.69" y="343.87"> </tspan><tspan class="cls-21" x="747.92" y="343.87">w</tspan><tspan class="cls-30" x="762.63" y="343.87">al</tspan><tspan class="cls-53" x="780.9" y="343.87">le</tspan><tspan class="cls-15" x="797.65" y="343.87">t </tspan><tspan class="cls-43" x="809.96" y="343.87">f</tspan><tspan class="cls-30" x="816.94" y="343.87">o</tspan><tspan class="cls-43" x="828.03" y="343.87">r</tspan><tspan x="835.3" y="343.87"> </tspan><tspan class="cls-54" x="840.03" y="343.87">l</tspan><tspan class="cls-30" x="846.34" y="343.87">a</tspan><tspan class="cls-25" x="858.19" y="343.87">t</tspan><tspan x="865.54" y="343.87">e</tspan><tspan class="cls-43" x="876.05" y="343.87">r</tspan><tspan class="cls-30" x="883.32" y="343.87" xml:space="preserve"> use.</tspan><tspan x="0" y="372.53">Spin</tspan><tspan class="cls-44" x="39.2" y="372.53"> </tspan><tspan class="cls-5" x="43.27" y="372.53">Whee</tspan><tspan class="cls-13" x="93.73" y="372.53">l</tspan><tspan class="cls-5" x="99.69" y="372.53" xml:space="preserve"> Game Odds and pri</tspan><tspan class="cls-55" x="276.33" y="372.53">z</tspan><tspan class="cls-5" x="285.13" y="372.53">es a</tspan><tspan class="cls-6" x="321.38" y="372.53">r</tspan><tspan class="cls-5" x="328.51" y="372.53">e based on</tspan><tspan class="cls-6" x="425.62" y="372.53"> </tspan><tspan class="cls-19" x="429.89" y="372.53">A</tspan><tspan class="cls-5" x="441.54" y="372.53">d </tspan><tspan class="cls-6" x="458.12" y="372.53">r</tspan><tspan class="cls-10" x="465.25" y="372.53">e</tspan><tspan class="cls-34" x="475.56" y="372.53">v</tspan><tspan class="cls-5" x="485.56" y="372.53">enue gene</tspan><tspan class="cls-40" x="577.44" y="372.53">r</tspan><tspan class="cls-30" x="584.6" y="372.53">a</tspan><tspan class="cls-25" x="596.44" y="372.53">t</tspan><tspan x="603.8" y="372.53">ed f</tspan><tspan class="cls-13" x="638.19" y="372.53">r</tspan><tspan x="645.31" y="372.53">om</tspan><tspan class="cls-13" x="672.89" y="372.53"> </tspan><tspan class="cls-43" x="677.16" y="372.53">A</tspan><tspan class="cls-30" x="688.82" y="372.53">d Sponsors</tspan><tspan class="cls-26" x="787.3" y="372.53"> </tspan><tspan x="791.53" y="372.53">whi</tspan><tspan class="cls-4" x="822.83" y="372.53">l</tspan><tspan x="829.17" y="372.53">e Spin Shoppers a</tspan><tspan class="cls-13" x="988.63" y="372.53">r</tspan><tspan x="995.76" y="372.53">e using si</tspan><tspan class="cls-25" x="1078.87" y="372.53">t</tspan><tspan x="1086.22" y="372.53">es</tspan><tspan x="0" y="401.18">Spin Shoppers </tspan><tspan class="cls-4" x="132.38" y="401.18">c</tspan><tspan x="142.63" y="401.18">ol</tspan><tspan class="cls-4" x="160.14" y="401.18">l</tspan><tspan class="cls-5" x="166.47" y="401.18">ecting spin poi</tspan><tspan class="cls-4" x="297.68" y="401.18">n</tspan><tspan class="cls-5" x="308.69" y="401.18">ts on Spinit2win</tspan><tspan class="cls-12" x="451.15" y="401.18">.</tspan><tspan class="cls-4" x="455.86" y="401.18">c</tspan><tspan x="466.11" y="401.18">om</tspan><tspan class="cls-26" x="493.69" y="401.18"> </tspan><tspan class="cls-34" x="497.92" y="401.18">v</tspan><tspan x="507.92" y="401.18">arious pages gene</tspan><tspan class="cls-56" x="672.16" y="401.18">r</tspan><tspan class="cls-30" x="679.32" y="401.18">a</tspan><tspan class="cls-25" x="691.17" y="401.18">t</tspan><tspan x="698.53" y="401.18">es pri</tspan><tspan class="cls-16" x="747.48" y="401.18">z</tspan><tspan class="cls-15" x="756.28" y="401.18">es </tspan><tspan class="cls-7" x="780.69" y="401.18">f</tspan><tspan x="787.67" y="401.18">o</tspan><tspan class="cls-7" x="798.76" y="401.18">r</tspan><tspan x="806.03" y="401.18" xml:space="preserve"> Spin Game </tspan></text><path class="cls-57" d="M290.57,40.85c0-3.14.18-6.27.28-9.4,0-.95,0-.95-.88-.84l-6.4.86c-.36.05-.55,0-.53-.43.07-1.51.13-3,.14-4.52,0-.5.34-.5.64-.54l5.21-.66,7.67-1c2.39-.3,4.77-.6,7.15-.92.32,0,.41,0,.4.34-.06,1.56-.11,3.11-.16,4.67a.43.43,0,0,1-.45.47c-2.12.25-4.22.54-6.34.76-.73.07-1.05.24-1.07,1.09-.07,3.36-.24,6.72-.37,10.08A19.54,19.54,0,0,1,291,41,.61.61,0,0,1,290.57,40.85Z"/><path class="cls-57" d="M275.83,40.7c.11-3.41.23-6.82.34-10.24,0-1,.08-2,.08-3,0-.4.17-.54.51-.58,1.51-.19,3-.36,4.55-.56.53-.08.36.29.35.51-.05,2.14-.11,4.27-.18,6.41q-.14,4.4-.28,8.81a2.46,2.46,0,0,1-.1,1c-.39-.4-.25-.9-.25-1.36s-.22-.72-.72-.72h-3.3A1.28,1.28,0,0,1,275.83,40.7Z"/><path class="cls-58" d="M275.83,40.7c1.55,0,3.09,0,4.64,0,.44,0,.63.13.61.6s0,1.14,0,1.72c-.06,2.3-.13,4.61-.18,6.92,0,.34-.15.41-.45.45-1.44.18-2.88.37-4.31.58-.5.07-.7-.06-.68-.62C275.62,47.13,275.72,43.92,275.83,40.7Z"/><path class="cls-58" d="M290.57,40.85a34.84,34.84,0,0,0,4.79-.13c.15,0,.33.09.5.13-.07,2.41-.13,4.81-.19,7.22,0,.31-.15.43-.45.47-1.51.18-3,.37-4.53.58-.33.05-.45,0-.44-.38C290.36,46.11,290.35,43.48,290.57,40.85Z"/><path class="cls-59" d="M296.61,49.45a1.06,1.06,0,0,1-1,.85c-1.61.24-3.22.47-4.84.63a1.4,1.4,0,0,1-1.69-1.58c.1-4,.16-7.92.35-11.88.06-1.38.06-2.75.12-4.13,0-.58-.12-.78-.79-.68-1.8.27-3.62.45-5.44.64-.35,0-.56.16-.58.54,0,.67-.1,1.35-.12,2-.12,3.91-.2,7.82-.35,11.73,0,1-.08,1.95-.13,2.93s-.37,1.47-1.4,1.65a35.59,35.59,0,0,1-4.83.59c-1.1,0-1.63-.49-1.6-1.6.09-3.81.17-7.62.33-11.42.1-2.53.22-5.06.28-7.59,0-1.43.09-2.86.16-4.28a3.21,3.21,0,0,1,.19-.8c0-.08.11-.21.2-.07s0,.19,0,.29a28.34,28.34,0,0,0-.2,3.44q-.22,6.37-.44,12.76c-.07,2-.21,4-.17,6.08a6.31,6.31,0,0,0,0,1.79c.29.84.64,1,1.51,1,1.37-.15,2.73-.34,4.09-.51a1.44,1.44,0,0,0,1.5-1.6c.16-3.85.26-7.71.38-11.56,0-.57.05-1.15.09-1.72.11-.93,0-1.86,0-2.79,0-1.11.25-1.3,1.34-1.33,1.55,0,3.08-.37,4.62-.52.2,0,.4-.07.6-.07.79,0,1.08.23,1,1-.06,1.61-.05,3.21-.15,4.82s-.12,3.4-.18,5.11c-.07,1.87-.18,3.75-.18,5.64a1.72,1.72,0,0,0,.08.81,1.05,1.05,0,0,0,1.28.86,7.61,7.61,0,0,0,2.42-.38,18.31,18.31,0,0,1,1.94-.23,1.49,1.49,0,0,0,1.35-.58C296.57,49.27,296.67,49.29,296.61,49.45Z"/><path class="cls-60" d="M296.61,49.45l-.16-.15c0-.6.13-1.19.09-1.78a4.6,4.6,0,0,0,.06-1.17c-.05-1.05.12-2.09.08-3.14a4.9,4.9,0,0,0,.07-1.21,30.62,30.62,0,0,0,0-3.71,11.9,11.9,0,0,1,.12-2.6,7.45,7.45,0,0,1,.11,1.73c-.05-1.27.07-2.46-.08-3.65,0-1,0-2,0-3,0-.12,0-.25.16-.3a1.12,1.12,0,0,1,.16.87,3.11,3.11,0,0,0-.1,1.25c0-1.34,0-1.41,1.36-1.63,1.78-.3,3.58-.42,5.35-.76.2-.19.69-.17.45-.66a1.73,1.73,0,0,0,.57-1.47A40.62,40.62,0,0,1,305,24c0-.11,0-.25.17-.35a1.81,1.81,0,0,1,.27,1.19,32.61,32.61,0,0,0-.13,3.83c0,1.52-.47,2-2,2.14s-3.22.4-4.83.61c-.93.13-1.1.32-1.13,1.25-.06,2.38-.09,4.76-.18,7.14-.12,2.88-.27,5.75-.3,8.63A1.8,1.8,0,0,1,296.61,49.45Z"/><path class="cls-61" d="M289.36,49.75a4.48,4.48,0,0,1-.1-2.21,11.3,11.3,0,0,0,.1-1.42c-.07-2.41.09-4.81.22-7.21a45.49,45.49,0,0,1,.22-5.47c.14-.83-.18-1.11-1-1-1.39.15-2.77.36-4.15.54a6.79,6.79,0,0,1-.9,0c-1.27,0-1.29,0-1.29,1.33v2c0,.22.06.45-.14.63-.21-.32,0-.71-.14-1v-.62c.16-.56,0-1.15.11-1.71l0-.56a.7.7,0,0,1,.63-.34c2.07-.21,4.13-.51,6.2-.75.28,0,.6,0,.54-.43.47-.3.52,0,.47.36-.22,1.5-.06,3-.2,4.51-.17,1.78-.09,3.56-.2,5.34-.16,2.58-.15,5.17-.21,7.76A.34.34,0,0,1,289.36,49.75Z"/><path class="cls-62" d="M274.58,51.41a.71.71,0,0,1-.12-.71,17.34,17.34,0,0,0,.13-3.14c.13-3.35.23-6.7.33-10.05.09-2.85.28-5.69.28-8.55a4.76,4.76,0,0,1,.28-1.67c-.08,2.41-.15,4.81-.24,7.21-.06,1.71-.08,3.41-.15,5.11-.17,3.88-.25,7.77-.37,11.65A.23.23,0,0,1,274.58,51.41Z"/><path class="cls-63" d="M274.58,51.41l.14-.15c.08.14.22.25.17.44a2.26,2.26,0,0,0,1.65.32c1.21-.19,2.43-.31,3.65-.49a2.3,2.3,0,0,0,1.34-.61c.24-1.52.16-3.06.27-4.58,0-.62,0-1.25.05-1.87s-.05-1.33.11-2L282,40c.15-.61,0-1.23.11-1.84s0-1.48,0-2.22c.26.32.07.7.14,1-.06,2.48,0,5-.2,7.44-.15,2.12,0,4.25-.25,6.36a1.3,1.3,0,0,1-1.2,1.23c-1.28.21-2.57.34-3.85.5l-.74.1A1.16,1.16,0,0,1,274.58,51.41Z"/><path class="cls-64" d="M297.08,31.31v-.83l7.22-.93c.22,0,.61-.07.28.36a2.61,2.61,0,0,1-.44.37c-1.69.31-3.4.45-5.09.7a3.34,3.34,0,0,0-1.72.41A.18.18,0,0,1,297.08,31.31Z"/><path class="cls-65" d="M289.66,31.48c.3,0,.36.18.31.45s-.18.2-.36.2a37.43,37.43,0,0,0-4.6.52,13.16,13.16,0,0,0-2.72.35V31.83c.5.59,1.11.44,1.71.36Z"/><path class="cls-66" d="M281.53,50.92c-.36.95-1.25.79-2,.91-1.1.19-2.22.3-3.33.44a1.15,1.15,0,0,1-1.34-.57A30.27,30.27,0,0,0,281.53,50.92Z"/><path class="cls-67" d="M290,49.92l5.87-.65c.07.42-.26.54-.54.56-1.5.14-3,.53-4.48.57C290.48,50.4,290,50.47,290,49.92Z"/><path class="cls-68" d="M290,49.92a.52.52,0,0,0,.56.28,40.62,40.62,0,0,0,4.79-.56c.23,0,.45-.11.52-.37s.17-.14.28-.16c.4.11.23.31.07.5a1.7,1.7,0,0,1-1,.42l-2.08.18a9.26,9.26,0,0,1-2.92.27c-.4,0-.71-.23-.55-.74Z"/><path class="cls-69" d="M289.67,49.74c.06.52.41.64.86.62l2.61-.15a5.53,5.53,0,0,1-2.73.44,1,1,0,0,1-.8-.29.85.85,0,0,1-.25-.61c0-.12,0-.24.16-.3S289.64,49.63,289.67,49.74Z"/><path class="cls-70" d="M295.22,50a3.54,3.54,0,0,0,.73-.36c.17-.12.51-.26.18-.56.47-.58.21-1.28.33-1.92.28,0,.23.13.15.29a4.86,4.86,0,0,1-.16,1.82C296.28,49.94,295.8,50.07,295.22,50Z"/><path class="cls-70" d="M296.91,33.77c.35,1.2,0,2.4.17,3.6h-.2V35.69Z"/><path class="cls-70" d="M296.76,38.29a5.39,5.39,0,0,1,.14,2c0,.57,0,1.14,0,1.71-.33,0-.21-.27-.21-.43a6,6,0,0,1,.05-1.4Z"/><path class="cls-70" d="M296.76,43.11v3.31c-.33,0-.22-.28-.21-.44a5.89,5.89,0,0,1,0-1.39l0-1.92C297,42.71,296.8,42.93,296.76,43.11Z"/><path class="cls-61" d="M296.59,44.59c.1.6-.14,1.24.16,1.83-.05.35.14.74-.14,1.06a.31.31,0,0,0-.15-.29A10.76,10.76,0,0,1,296.59,44.59Z"/><path class="cls-61" d="M296.76,43.11c0-.16,0-.34-.15-.44a10.14,10.14,0,0,1,.13-2.46c.11.61-.14,1.24.16,1.83C296.85,42.4,297,42.79,296.76,43.11Z"/><path class="cls-71" d="M282.31,30.43V27.48h.08v2.95Z"/><path class="cls-59" d="M282,42.49a5.09,5.09,0,0,1-.11,2A6.58,6.58,0,0,1,282,42.49Z"/><path class="cls-59" d="M282.11,38.11A4.57,4.57,0,0,1,282,40,5.41,5.41,0,0,1,282.11,38.11Z"/><path class="cls-59" d="M282.26,33.56a4.12,4.12,0,0,1-.11,1.71A4.93,4.93,0,0,1,282.26,33.56Z"/><path class="cls-70" d="M297.08,31.31a20.15,20.15,0,0,1,4-.69c1-.17,2-.23,3.05-.34a6.28,6.28,0,0,1-2.31.44c-1.26.23-2.55.33-3.83.49a.82.82,0,0,0-.79.84,2.87,2.87,0,0,1-.13,1Z"/><path class="cls-58" d="M245,39.34q-1.75,4.62-3.5,9.26a.59.59,0,0,1-.59.43c-1.59.07-3.19.14-4.78.25-.43,0-.47-.24-.57-.52-.5-1.45-1-2.91-1.53-4.43a3.78,3.78,0,0,0-.6,1.25c-.45,1.13-.87,2.28-1.31,3.42-.1.24-.17.47-.54.49-1.59.07-3.18.18-4.77.27-.31,0-.54,0-.67-.38-1.08-3.25-2.19-6.49-3.29-9.74,0,0,0-.09,0-.14,0-.44.39-.39.66-.4,1.37-.06,2.75,0,4.12-.14a.72.72,0,0,1,.82.35l.89,2.47,1.06-2.47A.75.75,0,0,1,231,39c2.11,0,4.21,0,6.32,0a.8.8,0,0,1,.53.21l.81,2.06.91-2.07a1.54,1.54,0,0,1,.91-.22c1.29,0,2.59,0,3.88-.06C244.69,38.85,245.09,38.81,245,39.34Z"/><path class="cls-58" d="M196,39.16c.07,2.36-.11,4.71-.15,7.06,0,1.52-.11,3-.12,4.56,0,.52-.19.68-.67.7-1.37.05-2.74.11-4.12.2-.48,0-.56-.16-.55-.59.1-2.62.16-5.25.25-7.87,0-.49-.06-.69-.62-.65-2.58.17-5.15.3-7.72.43-1.63.08-1.63.06-1.66,1.69-.06,2.31-.13,4.61-.17,6.92,0,.48-.12.66-.65.67-1.35,0-2.7.14-4,.25-.48,0-.65-.06-.63-.57.13-4.17.24-8.34.36-12.5,0-.5.32-.67.78-.67,1.81,0,3.62-.11,5.43.09a9.16,9.16,0,0,0,1.17,0h11.91A1.75,1.75,0,0,1,196,39.16Z"/><path class="cls-57" d="M197.5,39.31a11.93,11.93,0,0,1,4-8.48c3.61-3.36,7.82-4.49,12.56-2.89a10.48,10.48,0,0,1,6.89,9.46A8.73,8.73,0,0,1,220.8,40a1.62,1.62,0,0,0-1.27-.42,29.82,29.82,0,0,1-3.78-.08c-.39-.2-.33-.58-.32-.91a5.37,5.37,0,0,0-2-4.41,5.27,5.27,0,0,0-4.51-1.3A6.8,6.8,0,0,0,203,39c0,.21,0,.45-.27.56A33.42,33.42,0,0,1,197.5,39.31Z"/><path class="cls-58" d="M215.65,39.31c1.48,0,3,0,4.45,0,.51,0,.73.15.7.65a12.23,12.23,0,0,1-4.92,8.14,11.74,11.74,0,0,1-11,2.18c-4.87-1.44-7.7-5.78-7.42-11a1.06,1.06,0,0,1,.77-.14,31.56,31.56,0,0,0,4,.15,1.74,1.74,0,0,1,.48.14c.26.19.19.49.22.74a5.56,5.56,0,0,0,5.61,5,7,7,0,0,0,6.69-5C215.36,39.87,215.35,39.52,215.65,39.31Z"/><path class="cls-57" d="M196,39.16c-4.56,0-9.13.08-13.68,0-2-.05-4-.06-6-.12-.39,0-.65.08-.79.45.09-3.31.18-6.61.26-9.92,0-.34.13-.49.47-.5,1.47-.06,2.94-.11,4.41-.2.48,0,.43.25.43.56-.08,2.54-.13,5.09-.24,7.64,0,.61.07.77.74.72,2.33-.17,4.66-.24,7-.37.71,0,1.6.13,2.08-.23s.19-1.33.22-2c.09-2.11.15-4.21.2-6.32,0-.39.1-.55.53-.57,1.42-.06,2.84-.17,4.26-.27.35,0,.54,0,.53.46-.12,3.43-.21,6.86-.32,10.29A3.18,3.18,0,0,1,196,39.16Z"/><path class="cls-57" d="M245,39.34a.31.31,0,0,0-.4-.31,34.21,34.21,0,0,1-5,.12c1.09-2.88,2.17-5.77,3.27-8.65,1.33-3.5,2.69-7,4-10.5.21-.54.43-.63,1-.44,1.22.43,2.47.8,3.71,1.18.33.1.5.16.34.58Q248.43,30.32,245,39.34Z"/><path class="cls-72" d="M237.89,39.16h-6.61a1.62,1.62,0,0,0-.92.15.71.71,0,0,1,0-.21,5.33,5.33,0,0,0,.09-5.15c-.73-1.73-1.24-3.55-1.87-5.32-.15-.41-.15-.63.33-.81,1.35-.52,2.68-1.08,4-1.66.4-.18.54-.1.66.3.22.69.49,1.37.8,2.22.31-.82.6-1.49.81-2.18.15-.49.34-.67.88-.47,1.22.43,2.46.83,3.71,1.18.55.15.55.37.37.81-1,2.48-1.92,5-2.91,7.45a2,2,0,0,0,0,1.6A7.69,7.69,0,0,1,237.89,39.16Z"/><path class="cls-57" d="M228.41,39.31a1.14,1.14,0,0,0-.84-.14,30,30,0,0,1-4.24.14c-.19,0-.39,0-.52.19-1.21-3.51-2.41-7-3.63-10.53-.11-.34,0-.47.29-.6,1.36-.56,2.71-1.14,4.05-1.73.32-.13.51-.16.65.25Z"/><path class="cls-73" d="M198.07,47.26c-.28-.25-.33-.89-.76-.76s-.08.67-.14,1A27.86,27.86,0,0,0,197,51.4c0,1.35-.58,1.85-2,1.91s-2.63.15-3.95.25-1.91-.47-1.91-1.7c0-2.13,0-4.26.16-6.39,0-.68-.21-.89-.88-.88-2,0-3.92.16-5.87.3-.43,0-.63.2-.69.59a3,3,0,0,0-.07.51c0,2-.07,4.11-.15,6.16-.05,1.39-.49,1.93-1.86,2s-2.89.14-4.34.17c-1.11,0-1.66-.49-1.61-1.61.1-2.56,0-5.13.26-7.69v-.22c.06-3,0-5.93.2-8.88.13-2.06-.06-4.11.24-6.16.05-.31.06-.63.38-.81.13.16.07.33.07.5-.24.39-.1.82-.14,1.23v.6c.05.6-.09,1.19-.08,1.79a15.74,15.74,0,0,0-.07,2.17v1c0,.61-.06,1.21-.08,1.81a15.83,15.83,0,0,0-.06,2.18v1.16c0,.6-.1,1.2-.09,1.81a15.73,15.73,0,0,0-.06,2.17v1c.05.6-.09,1.2-.08,1.8a14.31,14.31,0,0,0-.07,2.17v1c0,.44,0,.89,0,1.32a1.2,1.2,0,0,0,1.49,1.2,10.22,10.22,0,0,1,1.46-.09,7.39,7.39,0,0,0,1.56-.07,1.64,1.64,0,0,1,.58-.06,1.61,1.61,0,0,0,1.94-1.37c.09-.81,0-1.63,0-2.44s0-1.44,0-2.15a11.25,11.25,0,0,0,.13-2.53c0-.82.58-.79,1.14-.8a6.7,6.7,0,0,0,1.67-.1,7.64,7.64,0,0,1,1.17-.05,5.92,5.92,0,0,0,1.68-.11,12.36,12.36,0,0,1,1.61,0,.85.85,0,0,1,.77.33,45,45,0,0,1,0,5.32,10.14,10.14,0,0,0,0,2.4,1.36,1.36,0,0,0,.7.87,7.78,7.78,0,0,0,2.36,0,7.2,7.2,0,0,1,1.13-.06,5,5,0,0,0,1.5-.09c1.13-.25,1.32-.46,1.32-1.64,0-1.69.18-3.37.15-5.06,0-.28,0-.57.31-.68s.54.15.7.39a2,2,0,0,1,.52,1.33A.13.13,0,0,1,198.07,47.26Z"/><path class="cls-74" d="M252.79,21.23a.72.72,0,0,1,0-.5c.52.41.61,1,.27,1.88-1.32,3.39-2.68,6.77-3.95,10.18s-2.5,6.62-3.8,9.91c-.87,2.19-1.65,4.4-2.47,6.6a2.15,2.15,0,0,1-2.31,1.63c-1.47,0-2.93.18-4.4.19a1.79,1.79,0,0,1-1.92-1.26c-.08-.22-.09-.54-.42-.51s-.34.34-.43.55c-.25.62-.46,1.26-1.27,1.34,0-.38.4-.46.47-.77.25-.53.44-1.09.66-1.64.12-.3.27-.61.65-.6s.46.32.58.59a4.51,4.51,0,0,0,.62,1.4,1,1,0,0,0,.91.37,44.58,44.58,0,0,0,5.42-.36,1.46,1.46,0,0,0,.88-1q2.43-6.28,4.82-12.57c1.72-4.48,3.43-9,5.16-13.46A4.44,4.44,0,0,0,252.79,21.23Z"/><path class="cls-75" d="M234.91,50.21c-.35-.23-.32-.64-.48-1s-.1-.86-.53-.88-.43.52-.58.83c-.21.47-.4.95-.61,1.42a2.35,2.35,0,0,1-1.66.63c-1.42.07-2.84.17-4.26.17-1.16,0-1.5-.25-1.88-1.36-.88-2.56-1.72-5.14-2.66-7.69a1,1,0,0,0-.38-.62c-1.47,4.75-4.31,8.23-9.06,9.93-.53.07-1,.28-1.53.39a1.19,1.19,0,0,1-.77,0,.27.27,0,0,1-.13-.17c0-.37.32-.31.55-.35a12.49,12.49,0,0,0,6.35-3.32,9.31,9.31,0,0,0,2.77-3.6,27.17,27.17,0,0,0,1.45-3.69c.15-.37.48-.29.77-.32q1.54,4.45,3.08,8.92a1.67,1.67,0,0,0,.61.94.47.47,0,0,0,.49.25,48.27,48.27,0,0,0,5.24-.27,1.39,1.39,0,0,0,.88-.45,13.68,13.68,0,0,1,.85-2.18.61.61,0,0,1,1,.17,9.28,9.28,0,0,1,.69,1.91c.13.11.29.21.17.42S235,50.28,234.91,50.21Z"/><path class="cls-76" d="M212.81,51.53A13.73,13.73,0,0,0,221.54,42c.06-.23.1-.54.39-.57s.32.32.39.54q1.35,3.92,2.68,7.85c.44,1.29.65,1.46,2,1.42s2.94-.12,4.41-.17a3.22,3.22,0,0,0,1.29-.46c-.07.32-.41.39-.58.62a2.94,2.94,0,0,1-1.47.15,13.08,13.08,0,0,1-1.88.07c-.26,0-.53-.08-.78.07h-.14a4.12,4.12,0,0,1-1.64,0A1.15,1.15,0,0,1,225,50.7a13.47,13.47,0,0,1-1-3c-.31-.83-.52-1.7-.88-2.52a15.26,15.26,0,0,1-.75-2.05c-.09-.22-.12-.53-.43-.54s-.28.3-.35.49a14.42,14.42,0,0,1-5.15,6.9,12.57,12.57,0,0,1-7.07,2.56,14.06,14.06,0,0,1-5-.43,11.66,11.66,0,0,1-4.15-2.29,8,8,0,0,1-2.2-2.58h.16c.4,0,.52.33.71.56a10.94,10.94,0,0,0,6.8,4.16,12.69,12.69,0,0,0,3.65.17A13.64,13.64,0,0,0,212.81,51.53Z"/><path class="cls-75" d="M252.79,21.23c.33.48.1.95-.07,1.39-1.16,3.07-2.34,6.13-3.51,9.2q-3.37,8.77-6.74,17.56c-.17.44-.37.86-.89,1l-.05-.08a.54.54,0,0,1,.05-.28c.06-.13.17-.23.14-.39a2.46,2.46,0,0,0,.59-1.07L252.49,22Z"/><path class="cls-77" d="M241.13,27.09a1.39,1.39,0,0,1,.31,1.74c-.82,2.23-1.68,4.44-2.52,6.65a5.42,5.42,0,0,0-.44,1.4c0,.24,0,.53.26.62s.38-.23.46-.45l4.29-11.23c.74-1.94,1.48-3.89,2.25-5.82.1-.26.1-.68.54-.71-1.21,3.48-2.6,6.9-3.92,10.34-1.13,3-2.24,5.94-3.37,8.91-.06.17,0,.4-.27.5l-.67-2.12a7.15,7.15,0,0,1,.76-2.48c.65-1.82,1.38-3.6,2.07-5.4a2.27,2.27,0,0,0,.26-1.33Z"/><path class="cls-78" d="M212.81,51.53a5.37,5.37,0,0,1-2.36.69c-4.22.6-8-.33-11-3.51-.44-.46-.82-1-1.22-1.46a6,6,0,0,0-.77-1.49c-.08-.13-.17-.26-.35-.2a.36.36,0,0,0-.21.35,4.34,4.34,0,0,0,0,.51c.08,1.78-.15,3.56-.16,5.34,0,.85-.4,1.17-1.45,1.25-.49.18-1-.06-1.49.13l-1.17,0a10.2,10.2,0,0,1-2.53,0,1,1,0,0,1-.58-.73c-.06-.21-.22-.46.19-.47a.24.24,0,0,1,.11.3,1.54,1.54,0,0,0,1.52.54c1.32-.18,2.65,0,4-.28.29,0,.59,0,.7-.4l.42-.45a7.13,7.13,0,0,0,.11-2,16.53,16.53,0,0,1,.06-2.11c.09-1.67-.07-3.35.12-5a2.64,2.64,0,0,1,.22,1.49.79.79,0,0,0,.36.75c.36.21.46.62.63,1a10.83,10.83,0,0,0,6.6,5.71,13.3,13.3,0,0,0,5.25.44c.24,0,.48-.09.69.1C211.28,52.05,212,51.53,212.81,51.53Z"/><path class="cls-79" d="M217.38,48.29a11.58,11.58,0,0,1-6.67,3.45,1.29,1.29,0,0,0-.26.08,11.67,11.67,0,0,1-9-1.81,11.17,11.17,0,0,1-1.88-1.62c-.12-.15-.45-.31-.06-.53a11.45,11.45,0,0,0,5.69,3.31,13.36,13.36,0,0,0,11.92-3l.23-.17C217.69,48.05,217.52,48.17,217.38,48.29Z"/><path class="cls-78" d="M181.41,52.43a1.4,1.4,0,0,1-1.47,1.46h-1c-.54.18-1.1,0-1.64.14a11.12,11.12,0,0,0-1.52.12,1.34,1.34,0,0,1-1.58-1.37c0-.47,0-.93,0-1.39.34,0,.18.26.21.42.06.34-.11.71.1,1,.12.06.13.17.14.29.15.36.47.37.79.39a41.87,41.87,0,0,0,4.62-.16,1,1,0,0,0,.92-.52,5.45,5.45,0,0,0,.27-2.44c0-.46,0-.93,0-1.39s0-1.21.11-1.81l0-2.62a1.08,1.08,0,0,1,.87-.48c2.18-.08,4.35-.32,6.53-.31.36,0,.75,0,1,.33a1,1,0,0,1,0,.67v1c-.34,0-.19-.26-.22-.42s.08-.61-.09-.9a8,8,0,0,0-2.34-.15c-.53.18-1.1,0-1.63.14h-1.17c-.53.18-1.1-.06-1.63.14s-1-.2-1,.59c-.2.83.05,1.68-.13,2.51l0,2.2C181.35,50.74,181.59,51.59,181.41,52.43Z"/><path class="cls-80" d="M224.9,26.5c.52.06.48.53.59.84,1.17,3.34,2.3,6.68,3.46,10,.09.25.05.75.48.67s.36-.54.4-.86a4.31,4.31,0,0,0-.06-.8c.62.13.27.69.43,1l-.83,2.29C227.84,35.19,226.37,30.85,224.9,26.5Z"/><path class="cls-81" d="M199.51,47.86c0,.7.61.93,1,1.29a11.16,11.16,0,0,0,7.82,2.8c.71,0,1.41-.19,2.12-.13V52a13.43,13.43,0,0,1-6.17-.42A10.86,10.86,0,0,1,197.84,46c-.23-.46-.26-1.15-1-1.23,0,0-.06-.26-.07-.39l-.06-1.84.06-.86a11.12,11.12,0,0,0,2.53,5.84A2.67,2.67,0,0,1,199.51,47.86Z"/><path class="cls-82" d="M189.79,44.13a9,9,0,0,0-2.78-.07c-1.34,0-2.69.17-4,.24a3.22,3.22,0,0,0-1.56.29c-.11-.49.06-.76.59-.79,1.08-.06,2.15-.16,3.23-.21l4.11-.18C190.13,43.27,189.88,43.75,189.79,44.13Z"/><path class="cls-83" d="M241.14,27.71a1.46,1.46,0,0,1-.08,1.39q-1.37,3.58-2.77,7.16c-.08.22,0,.49-.24.66a1.52,1.52,0,0,1,0-1.39C239.12,32.93,240.13,30.32,241.14,27.71Z"/><path class="cls-84" d="M190.11,28.3a1.17,1.17,0,0,1,.26,1c-.07,2.22-.16,4.45-.25,6.68,0,.18.07.44-.21.46s-.26-.19-.25-.36c.12-2.49.05-5,.3-7.48A2,2,0,0,1,190.11,28.3Z"/><path class="cls-85" d="M197.05,29.46c.24-.37,0-.82.21-1.23.33.19.21.51.21.76a38.43,38.43,0,0,1-.14,4.8.73.73,0,0,0,.44.81,14.78,14.78,0,0,0-.72,2.45Z"/><path class="cls-60" d="M181.91,29a4.48,4.48,0,0,1,.33,2.8c-.11,1.54-.07,3.07-.12,4.61,0,.22.12.57-.26.55s-.2-.34-.19-.53q.08-3.48.17-7C181.85,29.26,181.89,29.11,181.91,29Z"/><path class="cls-86" d="M181,52.85c.08.6-.38.69-.77.71-1.57.09-3.15.24-4.74.2-.41,0-.83,0-.82-.62a.81.81,0,0,0,.46.15c1.8-.1,3.6-.19,5.39-.3A2.18,2.18,0,0,0,181,52.85Z"/><path class="cls-66" d="M196,52.11c.1,0,.3,0,.19.19a.8.8,0,0,1-.66.41c-1.54.09-3.07.19-4.61.27-.52,0-1-.11-1.1-.73a5.53,5.53,0,0,0,2.46.12,28.88,28.88,0,0,1,2.94-.1A2.21,2.21,0,0,0,196,52.11Z"/><path class="cls-87" d="M227.68,28.59a8.08,8.08,0,0,1,.37.79L230.33,36a1,1,0,0,1,0,.9c-.17.05-.22-.08-.26-.19-.93-2.51-1.81-5-2.6-7.61C227.43,28.93,227.27,28.66,227.68,28.59Z"/><path class="cls-88" d="M241.72,49.62c.44.15-.06.28,0,.42-.42.45-1,.32-1.52.37-1.31.12-2.63.14-3.95.23a1.23,1.23,0,0,1-.91-.2l-.08-.11-.17-.43.28.05a6.43,6.43,0,0,0,1.64,0c1.32-.06,2.64-.13,3.95-.16C241.23,49.76,241.46,49.63,241.72,49.62Z"/><path class="cls-89" d="M232.57,50c-.19.6-.71.69-1.22.72q-2.47.14-4.95.21c-.27,0-.64,0-.44-.46A31.12,31.12,0,0,0,232.57,50Z"/><path class="cls-90" d="M227.68,28.59c-.27.4,0,.77.1,1.11.78,2.35,1.59,4.68,2.39,7,0,.08.12.14.18.22l-.15.45c-.27-.29-.11-.76-.43-1-.8-2.39-1.61-4.77-2.41-7.15A1,1,0,0,1,227.7,28Z"/><path class="cls-60" d="M189.5,44.47c.39.37-.07.94.31,1.32,0,2.05-.07,4.1-.11,6.16-.2.1-.18.29-.19.47a2.9,2.9,0,0,1-.12-1.72C189.61,48.62,189.48,46.54,189.5,44.47Z"/><path class="cls-91" d="M217.38,48.29c0-.1.15-.22,0-.31a18.17,18.17,0,0,0,2.7-3.36c.34.4-.12.61-.25.86a15.38,15.38,0,0,1-2.09,2.67C217.64,48.23,217.49,48.25,217.38,48.29Z"/><path class="cls-92" d="M222.27,40.61c-.11.45-.63-.07-.77.32l.2-2A8.31,8.31,0,0,1,222.27,40.61Z"/><path class="cls-78" d="M174.61,38.12v-1.9c.42.41.16.9.16,1.36l0,3.2a.16.16,0,0,1-.26,0v-.44C174.67,39.61,174.43,38.85,174.61,38.12Z"/><path class="cls-78" d="M174.18,50.94V50.5c.19-.73-.05-1.49.13-2.22l0-1.9c.44.35.15.8.15,1.21l0,3.35A.17.17,0,0,1,174.18,50.94Z"/><path class="cls-78" d="M174.46,43.27V41.38c.45.35.16.8.16,1.2l0,3.21a.16.16,0,0,1-.26,0v-.3C174.52,44.76,174.28,44,174.46,43.27Z"/><path class="cls-78" d="M174.62,35.63v-.3c.18-.73,0-1.48.13-2.21v-1.9c.44.35.15.8.16,1.21l0,3.2A.17.17,0,0,1,174.62,35.63Z"/><path class="cls-93" d="M234.39,48c-.28-.3-.64-.13-1-.17l.39-1.22C234.24,47,234.17,47.57,234.39,48Z"/><path class="cls-73" d="M196.58,47.54v3.67c0,.17,0,.35-.17.45,0-1.12,0-2.23.05-3.35C196.46,48.05,196.38,47.78,196.58,47.54Z"/><path class="cls-94" d="M218.15,28.55a5.16,5.16,0,0,1,.56,1.59C218.32,29.6,217.66,29.35,218.15,28.55Z"/><path class="cls-74" d="M223.13,45.2a7.35,7.35,0,0,1,.88,2.52A9.1,9.1,0,0,1,223.13,45.2Z"/><path class="cls-74" d="M228,51.53a9.14,9.14,0,0,1,2.66-.14A10.76,10.76,0,0,1,228,51.53Z"/><path class="cls-60" d="M174.62,35.63h.27a6.39,6.39,0,0,1-.11,1.95c-.09-.45.13-.93-.16-1.36Z"/><path class="cls-60" d="M174.63,42.58c-.09-.39.14-.83-.16-1.2,0-.2,0-.4,0-.6h.26A5.2,5.2,0,0,1,174.63,42.58Z"/><path class="cls-60" d="M174.33,45.79h.26a5.2,5.2,0,0,1-.11,1.8c-.09-.4.14-.84-.15-1.21Z"/><path class="cls-60" d="M174.18,50.94h.27c0,.64,0,1.27,0,1.91-.43-.42.07-1-.31-1.46Z"/><path class="cls-60" d="M174.93,32.43c-.1-.4.13-.84-.16-1.21v-.6a.18.18,0,0,1,.27,0A5.49,5.49,0,0,1,174.93,32.43Z"/><path class="cls-78" d="M175,30.62h-.27c.07-.39-.23-.87.28-1.16C175,29.85,175,30.24,175,30.62Z"/><path class="cls-60" d="M189.79,44.13c0-.32.19-.77-.44-.72.43-.22.67-.15.61.38a2.48,2.48,0,0,1-.14,1Z"/><path class="cls-60" d="M181.38,47.21a4.6,4.6,0,0,1-.11,1.81A6.13,6.13,0,0,1,181.38,47.21Z"/><path class="cls-75" d="M237,49.93a2.21,2.21,0,0,1-1.64,0Z"/><path class="cls-74" d="M226.22,51.53h1.64A2,2,0,0,1,226.22,51.53Z"/><path class="cls-95" d="M215.65,39.31a7.1,7.1,0,0,1-7.4,6.08,5.69,5.69,0,0,1-5.47-5.56c0-.13,0-.25,0-.37a7.17,7.17,0,0,1,5.83-6.8,5.87,5.87,0,0,1,7.06,5.77C215.66,38.73,215.65,39,215.65,39.31Z"/><path class="cls-60" d="M181.41,52.43a8.88,8.88,0,0,1,.13-2.52A9.68,9.68,0,0,1,181.41,52.43Z"/><path class="cls-60" d="M181.56,47.71a8.83,8.83,0,0,1,.13-2.51A9.58,9.58,0,0,1,181.56,47.71Z"/><path class="cls-60" d="M190.09,53.15h2.53A4.93,4.93,0,0,1,190.09,53.15Z"/><path class="cls-60" d="M174.46,43.27a6.89,6.89,0,0,1-.13,2.22A7.53,7.53,0,0,1,174.46,43.27Z"/><path class="cls-60" d="M174.61,38.12a7.2,7.2,0,0,1-.13,2.22A7.2,7.2,0,0,1,174.61,38.12Z"/><path class="cls-60" d="M174.31,48.28a6.64,6.64,0,0,1-.13,2.22A7.51,7.51,0,0,1,174.31,48.28Z"/><path class="cls-60" d="M174.76,33.12a7.14,7.14,0,0,1-.13,2.21A7.14,7.14,0,0,1,174.76,33.12Z"/><path class="cls-60" d="M185.53,44.46c.53-.3,1.09-.08,1.63-.14C186.64,44.6,186.08,44.4,185.53,44.46Z"/><path class="cls-60" d="M182.73,44.61c.52-.3,1.09-.08,1.63-.14C183.84,44.75,183.27,44.55,182.73,44.61Z"/><path class="cls-60" d="M177.27,54c.53-.3,1.09-.08,1.64-.14C178.38,54.17,177.82,54,177.27,54Z"/><path class="cls-60" d="M193.79,53.14c.47-.28,1-.08,1.49-.13C194.8,53.27,194.29,53.1,193.79,53.14Z"/><path class="cls-75" d="M234.91,50.21l.34.12h0a3.62,3.62,0,0,0,2.06.17,35.78,35.78,0,0,1,4.27-.17l0,0c-.24.23-.56.16-.84.18-1.64.1-3.27.28-4.92.24C235.41,50.78,235,50.67,234.91,50.21Z"/><path class="cls-75" d="M241.56,50.34l-5.4.3a.94.94,0,0,1-.93-.3,27,27,0,0,0,6.48-.3Z"/><path class="cls-96" d="M214.87,39a6.17,6.17,0,0,1-.59,2.06c-.34,0-.2-.26-.15-.44s-.06-.43.14-.59a4.23,4.23,0,0,0-.15-2.49,4.82,4.82,0,0,0-3.41-2.94,5.26,5.26,0,0,0-5.32,2.07,5,5,0,0,0-.85,5.48c.13.33.48.48.56.84a3.15,3.15,0,0,1-1.42-2.39,6.14,6.14,0,0,1,5.07-6.55,5.08,5.08,0,0,1,6,4.31A1.59,1.59,0,0,0,214.87,39Z"/><path class="cls-97" d="M205,35.75a6.36,6.36,0,0,1,4.3-2.41,5.18,5.18,0,0,1,5,2.88.35.35,0,0,1-.4,0,6.43,6.43,0,0,0-3.17-2.07,5.56,5.56,0,0,0-3.39.4,8.69,8.69,0,0,0-1.78,1.29.52.52,0,0,1-.45.2C205,36,204.92,35.89,205,35.75Z"/><path class="cls-98" d="M205.15,35.94a8.61,8.61,0,0,1,2-1.49,6.4,6.4,0,0,1,3.69-.43,6.61,6.61,0,0,1,3.1,2.07c.29.2.3.63.63.82a4.06,4.06,0,0,1,.25,2.1c-.23-.14-.22-.39-.25-.59a4.75,4.75,0,0,0-3.35-4,5.17,5.17,0,0,0-5.33,1.23,5.55,5.55,0,0,0-2.15,4.62.86.86,0,0,1-.11.33,5,5,0,0,1-.12-2c.28-.31.27-.73.45-1.08A3.89,3.89,0,0,1,205.15,35.94Z"/><path class="cls-92" d="M205.15,35.94l-1.05,1.6c-.13,0-.21,0-.14-.15a3.86,3.86,0,0,1,1-1.64Z"/><path class="cls-99" d="M214.13,40.63c0,.16,0,.33.15.44a4.44,4.44,0,0,1-1.26,1.5A17,17,0,0,0,214.13,40.63Z"/><path class="cls-99" d="M214.12,37.55a2.94,2.94,0,0,1,.15,2.49A9.05,9.05,0,0,0,214.12,37.55Z"/><path class="cls-100" d="M204,37.39l.14.15c-.14.36-.06.84-.54,1A2.17,2.17,0,0,1,204,37.39Z"/><path class="cls-100" d="M214.62,36.91c-.45-.09-.48-.51-.63-.82l.32.13C214.51,36.41,214.52,36.68,214.62,36.91Z"/><path class="cls-100" d="M210.89,34a9.82,9.82,0,0,0-3.69.43A4.71,4.71,0,0,1,210.89,34Z"/><path class="cls-58" d="M339.16,37.84l2,5.51L343.21,38a1.35,1.35,0,0,1,.89-.25h4.49a1.35,1.35,0,0,1,.89.25l1.73,4.92,2-4.92a1.09,1.09,0,0,1,.81-.25c1.42,0,2.84,0,4.25,0a1,1,0,0,1,.81.25c-.56,2-1.43,3.79-2.13,5.68-.85,2.32-1.78,4.62-2.64,6.94a.87.87,0,0,1-1,.68c-1.58,0-3.16.08-4.75.16a.67.67,0,0,1-.78-.55c-.52-1.6-1.09-3.18-1.69-4.94-.65,1.67-1.28,3.17-1.81,4.71a1.21,1.21,0,0,1-1.32,1c-1.56,0-3.12.11-4.67.19a.49.49,0,0,1-.59-.37L333.16,38c0-.37.31-.39.56-.4,1.62-.06,3.24,0,4.87,0A1,1,0,0,1,339.16,37.84Z"/><path class="cls-58" d="M408.53,38.44c-1.44,2.36-3.56,3.79-6.94,4.69.05.32.33.46.53.66q3.6,3.56,7.24,7.09c.39.38.42.58,0,1-1.08,1-2.13,2.12-3.16,3.22-.39.43-.6.45-1,0C401.45,51.39,397.7,47.71,394,44c-.13-.13-.19-.32-.37-.42a29.63,29.63,0,0,0-.31,4.84c0,1.37,0,1.36-1.4,1.42s-2.49.08-3.73.15c-.43,0-.61-.08-.6-.56.09-3.76.15-7.53.37-11.3a1.39,1.39,0,0,1,1-.25c6.18,0,12.35,0,18.52,0C407.86,37.92,408.51,37.64,408.53,38.44Z"/><path class="cls-57" d="M408.53,38.44c-.13-.47-.52-.28-.79-.28H387.93c.07-3.1.14-6.21.22-9.31,0-1.16.07-2.32.08-3.48,0-.44.08-.65.6-.67,4-.13,8.07-.33,12.1-.44A8.58,8.58,0,0,1,410,31.68,9.05,9.05,0,0,1,408.53,38.44Z"/><path class="cls-101" d="M424.59,38l4.6,4.46c2.51,2.46,5,5,7.51,7.39.44.43.42.65,0,1.05-1.07,1-2.12,2.07-3.12,3.16-.43.46-.65.38-1.06,0-3.95-3.93-7.93-7.82-11.88-11.75-.43-.43-.62-.4-1.11,0a4.43,4.43,0,0,0-1.82,4.31c.08.72.3,1.66-.14,2.14s-1.45.19-2.21.24c-.95.07-1.9.08-2.85.13-.37,0-.52-.1-.51-.48.09-3.53.11-7.07.35-10.59a1.41,1.41,0,0,1,1-.26h10A2.41,2.41,0,0,1,424.59,38Z"/><path class="cls-57" d="M424.59,38l-12.24,0c-.07-3.35.18-6.69.22-10,0-1.19.08-2.37.09-3.56,0-.46.12-.64.62-.65,1.45,0,2.9-.07,4.35-.16.6,0,.77.12.74.73-.13,3.52-.21,7.06-.32,10.59v.88c.36,0,.49-.33.68-.52q5.67-5.7,11.32-11.41c.75-.75.75-.75,1.47,0,.91.89,1.79,1.8,2.72,2.65.4.37.41.58,0,1-3.2,3.19-6.37,6.4-9.56,9.59C424.39,37.35,424.12,37.61,424.59,38Z"/><path class="cls-102" d="M361.13,38.15a12.84,12.84,0,0,1,4.36-9.24,12.62,12.62,0,0,1,12.37-3.17,11.51,11.51,0,0,1,8.45,12.42,1.6,1.6,0,0,1-1.13.23,34.2,34.2,0,0,0-4.41.13c-.59-.27-.35-.81-.35-1.23a5.69,5.69,0,0,0-1.34-3.78c-2.9-3.5-8.15-2.82-10.72.72A7.4,7.4,0,0,0,367,37.49c0,.27,0,.6-.33.74C364.84,38.19,363,38.33,361.13,38.15Z"/><path class="cls-58" d="M380.64,38.47c.19-.31.49-.32.81-.32h4.86a11.28,11.28,0,0,1-1.55,5.24,13.55,13.55,0,0,1-14.33,6.9,11.48,11.48,0,0,1-9.3-12.15,1.58,1.58,0,0,1,1-.15H366a1.27,1.27,0,0,1,.83.17c.26.18.22.46.24.71a5.83,5.83,0,0,0,3.75,5.23,6.71,6.71,0,0,0,7.16-1.29,7,7,0,0,0,2.37-3.74A.83.83,0,0,1,380.64,38.47Z"/><path class="cls-72" d="M440.88,38c-1-1.86-2.13-3.65-3-5.57A8.23,8.23,0,0,1,437,28a6.28,6.28,0,0,1,3-4.61,17.65,17.65,0,0,1,7-2.34c.5-.08.64.12.7.58.18,1.51.39,3,.62,4.54.08.55-.08.72-.65.74a7.61,7.61,0,0,0-2.84.67,1.68,1.68,0,0,0-1.15,2.32A15.15,15.15,0,0,0,445,33.29a49,49,0,0,1,2.38,4.54.7.7,0,0,1-.57.23C444.86,38.08,442.87,38.15,440.88,38Z"/><path class="cls-57" d="M359.05,38h-5.87c.88-2.31,1.76-4.63,2.64-6.93,1.4-3.64,2.82-7.27,4.2-10.91.2-.54.4-.66,1-.46,1.34.49,2.7.91,4.06,1.34.35.11.54.18.37.63q-3.17,8.13-6.3,16.27S359.07,38,359.05,38Z"/><path class="cls-57" d="M349.48,38h-6.27a1.51,1.51,0,0,0-.13-.84c-.9-2.64-1.77-5.29-2.71-7.92-.21-.59-.07-.79.48-1,1.36-.5,2.7-1.06,4-1.62.47-.2.74-.2.89.39s.5,1.44.81,2.3c.36-.94.68-1.73,1-2.54.13-.35.25-.51.68-.35,1.41.51,2.83,1,4.27,1.43.51.16.5.37.33.79-1.09,2.76-2.16,5.54-3.26,8.3A1.35,1.35,0,0,0,349.48,38Z"/><path class="cls-103" d="M440.88,38c.21-.29.52-.19.8-.19h5.74c2.05,4.24,1,7.9-3.23,10A19.56,19.56,0,0,1,440.45,49c-.81.2-1.77.62-2.46.28s-.44-1.45-.63-2.22-.34-1.7-.55-2.54c-.15-.63-.06-1,.7-1a8.61,8.61,0,0,0,2.92-.61c1.22-.5,1.45-1,1.29-2.25A20.81,20.81,0,0,0,440.88,38Z"/><path class="cls-57" d="M339.16,37.84h-5.28c-.25,0-.53-.08-.72.18-1-2.88-2-5.77-3-8.65-.12-.34,0-.53.32-.67,1.49-.59,3-1.18,4.46-1.81.44-.19.49.07.58.35Z"/><path class="cls-104" d="M410.61,51.62a1.77,1.77,0,0,0-.73-1.47c.64.06.74-.24.72-.66,0-.24,0-.48,0-.71.06-3,.12-6.06.16-9.08,0-.22.13-.56-.13-.65s-.4.24-.54.46a11.08,11.08,0,0,1-4.69,4.43c-.18.09-.43.19-.5.36-.32.73-.63.31-1,0a2.35,2.35,0,0,1,1.08-.76,11.58,11.58,0,0,0,4.59-4.35,6.86,6.86,0,0,0,.75-1.48c.12-.26.29-.58.61-.54s.34.44.32.71c-.17,2.07,0,4.15-.17,6.23a37.74,37.74,0,0,0,0,5.21c0,.94.4,1.2,1.36,1.25,1.61.09,3.21-.16,4.82-.18.91,0,1.3-.45,1.34-1.43s.07-1.74.08-2.61a2.41,2.41,0,0,1,.7-1.86.91.91,0,0,1,1.29-.1,9.54,9.54,0,0,1,1.09,1q4.91,4.9,9.81,9.78c1,1,1.91,1.05,2.92,0A28,28,0,0,0,438,51.56a1.53,1.53,0,0,1,1.14-.62,18.68,18.68,0,0,0,6.51-2.09,6.34,6.34,0,0,0,1.46-1.06,1.43,1.43,0,0,1,.76-.54.29.29,0,0,1,.22.09c-.24.74-.94,1-1.5,1.43a15.86,15.86,0,0,1-6.74,2.51,2.73,2.73,0,0,0-1.77,1A51.15,51.15,0,0,1,434.3,56a1.87,1.87,0,0,1-2.75-.22c-3.57-3.36-7-6.85-10.5-10.3-.31-.31-.56-.9-1.15-.64a1.45,1.45,0,0,0-.73,1.46c0,.82,0,1.64,0,2.46,0,1.51-.66,2.18-2.16,2.18a33.91,33.91,0,0,1-5.52.07c-.37-.06-.43.23-.34.53a1.88,1.88,0,0,1-.61,1.92c-1.15,1.16-2.3,2.32-3.46,3.46a2,2,0,0,1-2.72.06c-2.93-2.58-5.56-5.48-8.37-8.19-.17-.16-.33-.33-.5-.5a.48.48,0,0,0-.58-.14c-.21.1-.15.31-.16.49a9.08,9.08,0,0,1-.12,1.8,1.62,1.62,0,0,1-1.7,1.44c-1.68.09-3.37.14-5.05.16-.68,0-1.33-.14-1.55-.94a.55.55,0,0,1,.47,0c1,.68,2.16.4,3.24.35.81,0,1.63-.1,2.44-.11,1.29,0,1.75-.48,1.79-1.78,0-.55,0-1.11,0-1.66,0-.72.36-.89,1-.53a4.65,4.65,0,0,1,.89.77l7.68,7.66a9.68,9.68,0,0,0,.9.78,1.55,1.55,0,0,0,1.71.11,3,3,0,0,0,.89-.65c1-1,1.88-2.07,2.87-3A1.4,1.4,0,0,0,410.61,51.62Z"/><path class="cls-105" d="M378.7,51.29a3.11,3.11,0,0,1-2,.82,15,15,0,0,1-8.19-.13,12.2,12.2,0,0,1-6.33-4.49,11.46,11.46,0,0,1-2.23-4.9c0-.23-.1-.43-.36-.45s-.36.22-.45.45q-1.73,4.57-3.47,9.13a2,2,0,0,1-2.3,1.62c-1.66,0-3.32.23-5,.19a2,2,0,0,1-1.95-1.32c-.11-.25-.17-.6-.56-.57s-.31.35-.39.6a2,2,0,0,1-1.85,1.45c-1.7.29-3.42,0-5.13.26a2,2,0,0,1-2.33-1.54q-2.85-8.35-5.69-16.72c-.56-1.67-1.11-3.35-1.66-5a2,2,0,0,1,.29-2.07c.35.22.18.56.21.86-.34.37-.09.77,0,1.12,1.14,3.56,2.36,7.1,3.57,10.64,1.09,3.22,2.19,6.44,3.25,9.67.09.28.18.55.29.82.64,1.62,1,1.92,2.73,1.72a33.73,33.73,0,0,1,3.48-.13c1.57,0,1.91-.25,2.5-1.67.18-.42.26-1,.85-1s.56.63.7,1c.42,1.14.69,1.3,1.93,1.35,1.72.06,3.43-.13,5.14-.18.79,0,1.13-.61,1.38-1.23.94-2.38,1.85-4.77,2.76-7.16.34-.89.7-1.77,1-2.65.14-.38.24-.94.75-.92s.51.62.57,1A12.18,12.18,0,0,0,371.89,52a14.4,14.4,0,0,0,6.07-.81A.63.63,0,0,1,378.7,51.29Z"/><path class="cls-85" d="M378.7,51.29a9.8,9.8,0,0,0-2,.56c-4.35.91-8.45.58-12.06-2.3a12.19,12.19,0,0,1-4.46-7.49c-.08-.39,0-1-.41-1.07s-.44.59-.58.93c-1.26,3.24-2.5,6.48-3.75,9.72a1.83,1.83,0,0,1-2,1.41c-1.6.1-3.21.16-4.82.15-1.26,0-1.58-.25-2-1.46-.12-.35-.08-1-.5-1s-.52.57-.66.94c-.58,1.49-1,1.79-2.59,1.8-1.45,0-2.9.07-4.34.15a1.69,1.69,0,0,1-2-1.34c-.86-2.49-1.7-5-2.55-7.47-1.36-4-2.76-8-4.07-12-.39-1.2-1-2.38-.81-3.73.22,0,.12.27.29.31v.16a17,17,0,0,0,1.11,3.68c1.84,5.5,3.73,11,5.57,16.49.26.77.52,1.54.81,2.3a1.5,1.5,0,0,0,1.57,1.06c1.71,0,3.42,0,5.13-.17a1,1,0,0,0,.66-.22,4.78,4.78,0,0,0,.54-.65c.2-.49.4-1,.62-1.44.14-.29.31-.58.69-.56s.48.32.56.59.31.72.43,1.09a1.38,1.38,0,0,0,1.43,1c1.76-.06,3.51-.14,5.26-.23a1.43,1.43,0,0,0,1.26-1c1.07-2.79,2.16-5.56,3.22-8.35a17.81,17.81,0,0,1,1.26-3c.67-.34.78.13.82.59a9.37,9.37,0,0,0,.74,3,12.64,12.64,0,0,0,6.28,6.88,13.87,13.87,0,0,0,11.55-.14c.55-.24,1-.68,1.67-.64.26.18,0,.28-.06.4l-.35.29a6.45,6.45,0,0,1-1.41.65Z"/><path class="cls-78" d="M431.54,55.41A35.14,35.14,0,0,1,429,52.93L421,45c-.31-.31-.61-.8-1.11-.59a1.63,1.63,0,0,0-.91,1.21,16.69,16.69,0,0,0-.14,3.16c0,1.37-.5,1.86-1.86,1.88s-3,.22-4.5.17c-1.17,0-1.6-.42-1.59-1.56.05-3.71.12-7.43.19-11.14v-.94c-.83.65-.72,1.72-1.44,2.24a.42.42,0,0,1-.15-.32,9.38,9.38,0,0,1,.84-1.82c.14-.3.21-.63.32-.94.2-.6.42-.62.86-.11-.07,2.63-.16,5.25-.22,7.88,0,1.6-.06,3.21-.08,4.81,0,.34,0,.69.49.78a.29.29,0,0,1,.07.2c0,.34.25.37.49.37,1.71,0,3.41-.17,5.11-.22.28,0,.67-.06.67-.51l.32-.48c.22-.57,0-1.17.13-1.74,0-.76,0-1.52,0-2.28,0-.24-.15-.54.16-.71.11.11.14.3.39.08.93-.78,1.15-.73,2,0,3.53,3.21,6.79,6.69,10.19,10,.26.25.69.45.57,1A.26.26,0,0,1,431.54,55.41Z"/><path class="cls-106" d="M410.61,51.62c.31.13.32.39.26.66a1,1,0,0,1-.19.43,24.91,24.91,0,0,1-4.2,4.26,1.47,1.47,0,0,1-1.84-.13c-.3-.26-.62-.5-.9-.77l-8-7.93c-.32-.32-.65-.87-1.13-.67s-.17.76-.2,1.17,0,1,0,1.42a1.42,1.42,0,0,1-1.47,1.53c-1.68.09-3.37.11-5.06.18a1.94,1.94,0,0,1-1.22-.48,1.2,1.2,0,0,1-.33-.93c0-1.52-.05-3,.05-4.55,0-.35-.12-.66-.12-1s-.25-.14-.41-.12c-.46-.15-.17-.45-.14-.71a.62.62,0,0,1,.1-.22c.28-.37.49-.91,1.13-.54-.05,2.12-.09,4.24-.15,6.36a1.26,1.26,0,0,0,.52,1.21.65.65,0,0,0,.76.42c1.7-.15,3.41,0,5.1-.29a.56.56,0,0,0,.34-.17c.09-.05-.07-.17,0-.08s0,0,0,.05a1.3,1.3,0,0,1-1.45-.08,1.61,1.61,0,0,1,.29-.09c1.75-.17,1.75-.17,1.76-1.88,0-.92,0-1.85,0-2.77,0-.28,0-.65.35-.16a1,1,0,0,0,.58,1.09,4.6,4.6,0,0,1,1.15,1l7.73,7.72c1.55,1.54,2.15,1.55,3.62-.07.76-.84,1.54-1.66,2.33-2.47.2-.2.44-.4.43-.73S410.52,51.84,410.61,51.62Z"/><path class="cls-107" d="M336.35,26.76c-.18-.22-.48-.48-.17-.71s.47.13.63.35a8.79,8.79,0,0,1,1,2.22c.09.24.13.58.44.58s.22-.32.3-.49a2.8,2.8,0,0,1,1.56-1.46c1.28-.49,2.52-1,3.79-1.54.23-.09.47-.27.76-.16-.06.36-.37.43-.62.53-1.16.47-2.35.9-3.51,1.38-.45.19-1,.32-1.15.88a2.34,2.34,0,0,0-.08,2.05c.74,2.25,1.58,4.47,2.3,6.72a2.66,2.66,0,0,1,.25,1.54c-.09.32-.17.73-.57.78s-.55-.37-.66-.67c-.52-1.51-1-3-1.55-4.55-.74-2.16-1.48-4.31-2.21-6.48A3.28,3.28,0,0,0,336.35,26.76Z"/><path class="cls-108" d="M431.87,55.4c-1.09-1.11-2.17-2.23-3.27-3.32-2.52-2.48-5-5-7.57-7.42-.91-.85-1.2-.86-2,.12-.06.08-.13.15-.21.24-.2-.23-.11-.46-.11-.68.54-.36.86-1.29,1.44-1.19s1,.83,1.43,1.29l10.3,10.16c.9.89,1.49.9,2.35,0,1.22-1.26,2.54-2.44,3.67-3.79a.25.25,0,0,1,.21.22c-.1.61-.71.92-.9,1.49a39.9,39.9,0,0,1-3,3.07A1.45,1.45,0,0,1,431.87,55.4Z"/><path class="cls-109" d="M353.81,27.71c-.05-.09-.15-.18-.14-.26s.22-.1.3,0a2,2,0,0,1,.61,1c.05.2,0,.47.3.48s.3-.27.37-.45c.58-1.49,1.15-3,1.73-4.48.49-1.27,1-2.54,1.49-3.81a7.56,7.56,0,0,1,.6-1,.22.22,0,0,1,.34-.06c.1.09,0,.18-.07.25A28.23,28.23,0,0,0,358,22.75q-3,7.61-5.88,15.22l-.21.51c-.13.3-.29.62-.68.51s-.42-.45-.41-.78a4.67,4.67,0,0,1,.43-1.51c.85-2.19,1.68-4.38,2.54-6.56A2.77,2.77,0,0,0,353.81,27.71Z"/><path class="cls-110" d="M353.81,27.71a1.47,1.47,0,0,1,.33,1.86c-.89,2.42-1.83,4.82-2.74,7.23a10.14,10.14,0,0,0-.44,1.42c0,.26,0,.59.32.64s.37-.23.46-.46q1.39-3.65,2.81-7.29,2.13-5.52,4.27-11a1.26,1.26,0,0,1,.52-.76c-.64,2.25-1.6,4.39-2.42,6.58-1.8,4.79-3.78,9.52-5.49,14.35a1.81,1.81,0,0,1-.17.3l-.78-2.41a24.18,24.18,0,0,1,1.41-4.07c.55-1.54,1.21-3,1.75-4.57a1.93,1.93,0,0,0,.18-1.13Z"/><path class="cls-111" d="M362.86,46.69c4.47,5.53,12.16,5.69,17.27,2.69a18.84,18.84,0,0,0,3.18-2.52c.27,0,.24.17.22.35a9.34,9.34,0,0,1-2.86,2.56A14.67,14.67,0,0,1,372.88,52a13.48,13.48,0,0,1-5.38-1.06,14.1,14.1,0,0,1-4.47-3.5C362.7,47,362.68,47,362.86,46.69Z"/><path class="cls-112" d="M440.74,41.68c-.34.23-.32-.09-.36-.26-.52-2.28-1.88-4.16-3-6.17a12.61,12.61,0,0,1-1.76-5.59c0-.2.06-.47-.18-.56s-.44.11-.6.28c-.64.67-1.25,1.36-1.9,2-2.12,2.14-4.25,4.26-6.38,6.39-.25.26-.47.55-.79.07.88-.94,1.8-1.84,2.73-2.74,2.2-2.11,4.24-4.38,6.39-6.55.35-.35.74-.72.45-1.3-.07-.2.05-.34.14-.49.83-.32.85-.31.76.29-.22.18-.08.45-.16.67a10.85,10.85,0,0,0,.22,3.68,24.42,24.42,0,0,0,2.6,5.43,15,15,0,0,1,1.72,3.7A1.78,1.78,0,0,1,440.74,41.68Z"/><path class="cls-113" d="M410.27,52.23c.33.27.09.48-.09.65-1.23,1.15-2.24,2.52-3.56,3.59a1.32,1.32,0,0,1-1.84,0,11.06,11.06,0,0,1-.9-.77l-8.09-8a4.34,4.34,0,0,0-1.31-1c-.44-.2-.38-.64-.05-1l10.18,10a1.31,1.31,0,0,0,2.16,0Q408.53,54,410.27,52.23Z"/><path class="cls-114" d="M344.4,52.85a.66.66,0,0,1-.66.33c-1.9.13-3.79.2-5.69.18-.85,0-1.17-.6-1.4-1.27q-2.53-7.47-5.06-15c-.72-2.14-1.47-4.27-2.18-6.41-.12-.35-.39-.73-.06-1.11q1.68,4.89,3.35,9.78,2.07,6.06,4.12,12.11a1.89,1.89,0,0,0,.62,1.06c.12.38.44.38.77.39,1.76,0,3.52-.2,5.28-.21C343.8,52.74,344.12,52.61,344.4,52.85Z"/><path class="cls-80" d="M336.35,26.76c.55.06.51.57.63.9,1,3,2,5.93,3,8.89q.41,1.19.84,2.37c.06.16.12.41.34.39s.31-.23.39-.44a1.27,1.27,0,0,0,0-.92c-.87-2.56-1.74-5.12-2.57-7.7-.21-.65-.48-1.39.32-1.91l0,.5a9.14,9.14,0,0,0,.84,3.17c.68,2,1.41,4.08,2,6.14l-1,2.89c-.81-2.4-1.56-4.65-2.33-6.9s-1.63-4.66-2.44-7A1.59,1.59,0,0,1,336.35,26.76Z"/><path class="cls-115" d="M431.87,55.4c1.05.73,1.59.7,2.48-.19s1.83-1.87,2.75-2.8c.28-.41.66-.75.93-1.17s.93-.54,1.47-.62a16.42,16.42,0,0,0,6.82-2.54,7.18,7.18,0,0,0,2.62-3.56,1.66,1.66,0,0,0,0-.7l.2-1.23a5.14,5.14,0,0,0,0-1.75L449,39.42c.37-.27.36.15.38.27a16.67,16.67,0,0,1,.33,1.85,7.88,7.88,0,0,1-1.24,5.17,1.51,1.51,0,0,1-.58.62c-2.44,2.4-5.53,3.31-8.8,3.8a1.33,1.33,0,0,0-1,.57,27.21,27.21,0,0,1-3.8,4,1.76,1.76,0,0,1-2.75-.3Z"/><path class="cls-99" d="M447.87,47.33a8.36,8.36,0,0,0,1.41-7.58c0-.13,0-.4-.3-.33-.86-2.78-2.55-5.16-3.79-7.76a7.94,7.94,0,0,1-.31-.81c-.19-1.37-.06-1.56,1.31-2a10.89,10.89,0,0,1,1.7-.34c.24,0,.54-.12.63.26a15.42,15.42,0,0,1-2.14.48c-1.25.35-1.44.6-1,1.84A35.65,35.65,0,0,0,447.9,36c1.44,2.61,2.39,5.33,1.71,8.36a5.49,5.49,0,0,1-1.56,2.94Z"/><path class="cls-116" d="M359.51,40.37q-2.19,5.66-4.39,11.32c-.23.6-.56,1.07-1.3,1a20,20,0,0,1-2.79.06c-.16-.46.24-.4.46-.42a14.72,14.72,0,0,1,1.88,0,1.59,1.59,0,0,0,1.22-.41c1.06-2.4,1.93-4.88,2.89-7.32.66-1.68,1.33-3.35,2-5,.25-.23.31-.69.79-.63v.64C360.15,40,359.68,40,359.51,40.37Z"/><path class="cls-117" d="M425.66,37.68c-.26-.2,0-.31.09-.42L435,28c.23,0,.28.1.25.27s-.21.3-.33.43c-2.84,2.86-5.58,5.82-8.49,8.61C426.23,37.5,426.08,37.88,425.66,37.68Z"/><path class="cls-118" d="M438,51l-.14-.15c-.09-.51.14-.62.63-.67a17.18,17.18,0,0,0,7.3-2.3,7.31,7.31,0,0,0,2.05-1.79c.37,0,.25.23.15.41a4.58,4.58,0,0,1-1.33,1.44,16.42,16.42,0,0,1-7.35,2.81C438.9,50.79,438.48,50.93,438,51Z"/><path class="cls-119" d="M448.52,28.79a5.63,5.63,0,0,0-3.27.7.65.65,0,0,0-.32.87c.07.17.15.35-.05.49a2.16,2.16,0,0,1-.33-1.24,1.5,1.5,0,0,1,1-.89,15.83,15.83,0,0,1,2.45-.57c.44-.09.83-.22.8-.78.7-.92.15-1.88.08-2.81-.07-1.12-.39-2.22-.37-3.43.57.32.44.84.5,1.26.22,1.56.42,3.12.59,4.69A1.51,1.51,0,0,1,448.52,28.79Z"/><path class="cls-120" d="M440.74,41.68a13,13,0,0,0-2-4.77,26.72,26.72,0,0,1-2.32-4.63,2.55,2.55,0,0,1-.14-.77c0-.19-.22-.41.15-.47a7.48,7.48,0,0,0,1,2.42c.76,1.41,1.54,2.8,2.31,4.2a10.59,10.59,0,0,1,1.13,2.92C440.92,40.94,441.11,41.35,440.74,41.68Z"/><path class="cls-121" d="M353.82,28.37a.89.89,0,0,1,.09,1c-1.11,3-2.18,5.92-3.43,8.81a1.36,1.36,0,0,1,0-1.27C351.61,34,352.71,31.2,353.82,28.37Z"/><path class="cls-122" d="M438,51a22,22,0,0,1,3.33-.76c2.2-.67,4.36-1.38,6-3.09.27-.28.72-.53.51-1.06a8.33,8.33,0,0,0,1.1-2.24c.35.29.16.62.06.93a7,7,0,0,1-3.31,4,16.68,16.68,0,0,1-6.33,2.1,1.82,1.82,0,0,0-1.62.94,1.51,1.51,0,0,1-.67.65C437.24,51.82,437.83,51.52,438,51Z"/><path class="cls-79" d="M418.05,49.55c.22,0,.36.11.17.35a1.23,1.23,0,0,1-.91.41c-1.69.07-3.37.12-5.06.17a.8.8,0,0,1-.71-.24c-.18-.24-.14-.39.18-.4,1-.15,1.93.06,2.89-.11l1.22,0c.7-.17,1.41.05,2.11-.12A.14.14,0,0,0,418.05,49.55Z"/><path class="cls-123" d="M342.22,38.15c-.36-.11-.33-.46-.42-.71-.8-2.31-1.6-4.62-2.36-6.94-.17-.53-.46-1.08-.1-1.66q1.44,4.17,2.86,8.34C342.31,37.5,342.45,37.82,342.22,38.15Z"/><path class="cls-104" d="M386.49,32.45a26.65,26.65,0,0,0-2.11-3.71c.59.31.84.9,1.23,1.36.26.31.36,1,.8.85s.21-.78.22-1.19c0-1.44.26-2.88.18-4.33a1.12,1.12,0,0,1,.3-.79c.07-.08.18-.24.3-.07s0,.2,0,.31a1.76,1.76,0,0,0-.14.85c0,1.94-.27,3.87-.17,5.82C387.14,32,387.07,32.41,386.49,32.45Z"/><path class="cls-124" d="M366.36,21.57l-.07-.84a1.38,1.38,0,0,1,.6,1.74,41.47,41.47,0,0,1-1.47,4c-.06.17-.21.38-.16.51.46,1.06-.53,1.27-1,1.77-.26-.36-.06-.71.05-1.05.52-1.63,1.26-3.18,1.82-4.8A2.93,2.93,0,0,0,366.36,21.57Z"/><path class="cls-122" d="M366.36,21.57a1.44,1.44,0,0,1,0,1.41c-.61,1.61-1.24,3.21-1.85,4.83-.11.31-.15.66-.23,1l-1,1.19-.11-.06Z"/><path class="cls-125" d="M392,50.63a4.29,4.29,0,0,0,1.84-.11c-.25.69-.84.7-1.32.73-1.48.1-3,.13-4.43.18a1.13,1.13,0,0,1-1-.38c-.19-.24.06-.23.19-.27Z"/><path class="cls-118" d="M344.4,52.85c-2,.24-4.07.27-6.11.34a1,1,0,0,1-1-.45c-.09-.13.08-.14.17-.17a50,50,0,0,0,5.19-.11,5.11,5.11,0,0,0,1.94-.24.15.15,0,0,1,.21,0Z"/><path class="cls-62" d="M386.49,32.45a1.07,1.07,0,0,0,.47-1c0-1.88.1-3.77.15-5.65a1.07,1.07,0,0,1,.31-.93c-.07,3.37-.14,6.73-.2,10.1H387A12.21,12.21,0,0,0,386.49,32.45Z"/><path class="cls-126" d="M419.45,33.23l-.57.66.3-10c.58-.1.45.35.45.64,0,1.28.07,2.57,0,3.85a24.69,24.69,0,0,0-.05,4.3A.54.54,0,0,1,419.45,33.23Z"/><path class="cls-127" d="M425.66,37.68c.34,0,.5-.26.7-.47q4.22-4.26,8.42-8.55c.15-.16.6-.3.22-.67,0-.31.47-.38.38-.73.63.54.14.95-.2,1.32q-1.79,1.91-3.62,3.76c-1.65,1.67-3.32,3.33-5,5-.22.22-.39.52-.76.53Z"/><path class="cls-128" d="M410.89,31.52a14.29,14.29,0,0,0-1.39-3.8c.56.24.55.61.74.84s.21,1,.69.89.26-.77.28-1.17c.05-1,0-2,0-2.92a7.19,7.19,0,0,1,.22-1.39c0-.22.17-.21.37,0-.29,1.27,0,2.57-.21,3.84a14.13,14.13,0,0,0-.07,2.52A1.15,1.15,0,0,1,410.89,31.52Z"/><path class="cls-105" d="M385.69,44.64c.33,0,.3-.69.67-.51s.13.57.13.87c0,1.69,0,3.37,0,5a3.7,3.7,0,0,0,.19,1.24l-.33-.16h0a40.54,40.54,0,0,1,0-5.4V45.6c-.3-.63-.3-.63-.79,0A17.36,17.36,0,0,1,381.17,50a1.54,1.54,0,0,1-.7.32c0-.11.09-.22.14-.33.32-.65,1-.88,1.53-1.32a15.19,15.19,0,0,0,3.12-3.62C385.37,44.9,385.46,44.7,385.69,44.64Z"/><path class="cls-129" d="M410.89,31.52c1-1.89.48-3.94.65-5.92,0-.57-.08-1.16.3-1.66.08,3-.2,6.08-.18,9.12,0,.07-.06.14-.09.22a.63.63,0,0,1-.09-.84c-.22.2-.14.5-.2.76s.07.61-.36.68Z"/><path class="cls-120" d="M344.78,52.24l-.21,0,1-2.38a.59.59,0,0,1,1,.18,11.74,11.74,0,0,1,.78,2,1.73,1.73,0,0,0,1.28.44c.78,0,1.6-.22,2.35.21h2.89a1,1,0,0,1-.36.13c-1.57.07-3.15.14-4.72.17-1.23,0-1.5-.19-1.92-1.34-.12-.32-.23-.64-.37-1s-.14-.5-.44-.49-.38.26-.48.47Z"/><path class="cls-130" d="M419.45,33.23a10.89,10.89,0,0,1-.07-3.37c.17-1.8.05-3.61.11-5.41,0-.23.05-.5-.31-.53,0-.15-.06-.35.11-.41s.27.1.35.24a1.79,1.79,0,0,1,.17.91c.09,2.28-.17,4.55-.17,6.83,0,.4-.05.83.74.75Z"/><path class="cls-131" d="M350.93,52.71c-.81,0-1.62,0-2.43,0a1.11,1.11,0,0,1-1.2-.66,7.17,7.17,0,0,0,2.73.15c1.27,0,2.53-.09,3.8-.15a4.85,4.85,0,0,0,.76-.14,1.17,1.17,0,0,1-1.2.65A7.26,7.26,0,0,0,350.93,52.71Z"/><path class="cls-132" d="M448.82,27.37c.29.45.13.79-.47.94s-1.19.21-1.78.32a3.57,3.57,0,0,0-2,1c-.39-.62.05-.92.5-1.15a7.19,7.19,0,0,1,2.95-.75A1.2,1.2,0,0,0,448.82,27.37Z"/><path class="cls-133" d="M362.86,46.69c-.15.38.16.55.35.77a15.22,15.22,0,0,0,4.25,3.35.22.22,0,0,1-.33,0,12,12,0,0,1-6.19-6.8c-.07-.19-.2-.4.14-.46A19.82,19.82,0,0,0,362.86,46.69Z"/><path class="cls-118" d="M403.74,44.05l-.58-.44A11.91,11.91,0,0,0,408.5,40c.25-.06.27.11.28.28a10.59,10.59,0,0,1-4.73,3.74A.42.42,0,0,1,403.74,44.05Z"/><path class="cls-134" d="M436.28,27.06c0-.13.16-.55-.27-.25-.19.13-.33,0-.49,0a11.13,11.13,0,0,0-2.11-2.33,17.55,17.55,0,0,0-1.3-1.19.52.52,0,0,1,.65.22c.81.79,1.6,1.61,2.42,2.39.58.56.78.51,1.19-.19a5.51,5.51,0,0,1,1.87-2.17A10,10,0,0,0,436.28,27.06Z"/><path class="cls-135" d="M410.92,33.88c.25-.24.15-.54.15-.82s0-.62.44-.77l.06,1c0,1,0,2-.05,3-.42-.37-.66-.27-.76.27a1.59,1.59,0,0,1-.32.86c-.17-.12,0-.34-.13-.47A13.6,13.6,0,0,0,410.92,33.88Z"/><path class="cls-135" d="M403.74,44.05a13.94,13.94,0,0,0,4.94-3.7c.27-.45.32-1.07,1-1.25v.33A10.83,10.83,0,0,1,405,43.76l-1.11.58A.28.28,0,0,1,403.74,44.05Z"/><path class="cls-136" d="M383.46,47.16a.3.3,0,0,0-.15-.3A15.75,15.75,0,0,0,387,40.37v1c0,.34,0,.69-.05,1a6.34,6.34,0,0,0-1.07,1.44h0a9.38,9.38,0,0,1-1.85,3C383.87,47,383.78,47.3,383.46,47.16Z"/><path class="cls-137" d="M436.13,48l-1.25-1.17c.76,0,.7-.47.59-.85a5.69,5.69,0,0,1-.11-1.79c0-.27.08-.68.41-.65s.19.43.21.67a1.71,1.71,0,0,1,0,.32c-.28.23-.13.52-.07.78.14.58.25,1.16.36,1.75C436.32,47.35,436.43,47.7,436.13,48Z"/><path class="cls-138" d="M436.13,48a13.32,13.32,0,0,0-.37-2.52,3.11,3.11,0,0,1-.07-1c.07-.33.17.08.28,0,.27,1.33.53,2.67.81,4C436.43,48.46,436.32,48.17,436.13,48Z"/><path class="cls-139" d="M361.08,43.55c-.19.11-.12.3-.14.46a8.42,8.42,0,0,1-.78-3.23c-.07-.42-.18-.66-.65-.41,0-.49.45-.6.77-.79A14.22,14.22,0,0,0,361.08,43.55Z"/><path class="cls-140" d="M409.64,39.1l-1,1.25a.28.28,0,0,0-.18-.32,13.57,13.57,0,0,0,1.81-3.13c.17.12.12.3.13.47Z"/><path class="cls-104" d="M386.32,45.74v5.4c-.23-.21-.15-.49-.15-.74,0-1.33,0-2.67,0-4C386.17,46.17,386.11,45.93,386.32,45.74Z"/><path class="cls-141" d="M436.44,31c-.18.12-.12.31-.15.47a7.14,7.14,0,0,1-.17-3.78A13.67,13.67,0,0,0,436.44,31Z"/><path class="cls-142" d="M360.28,38.94l-.79.63.67-2,.12,0Z"/><path class="cls-79" d="M346.52,50c-.27-.35-.65-.18-1-.18,0-.45.31-.79.43-1.32A4.34,4.34,0,0,1,346.52,50Z"/><path class="cls-104" d="M405.66,45.82l1.77,1.93.2-.2-1.87-1.82Z"/><path class="cls-143" d="M385.86,43.86c.17-.62.38-1.21,1.07-1.44v.79C386.35,43.06,386.19,43.6,385.86,43.86Z"/><path class="cls-104" d="M385.53,45.59c0-.05,0-.12,0-.15.19-.25.25-.77.62-.68s.09.55.14.84A.49.49,0,0,0,385.53,45.59Z"/><path class="cls-104" d="M414.61,49.73a14.69,14.69,0,0,1-2.89.11.57.57,0,0,0,0-.13Z"/><path class="cls-104" d="M378.71,51.29a2.59,2.59,0,0,1,1.42-.65A1.57,1.57,0,0,1,378.71,51.29Z"/><path class="cls-104" d="M417.94,49.57a6.78,6.78,0,0,1-2.11.12A5.36,5.36,0,0,1,417.94,49.57Z"/><path class="cls-104" d="M418.5,47.33c0,.58.18,1.18-.13,1.74C418.44,48.49,418.24,47.89,418.5,47.33Z"/><path class="cls-99" d="M449.17,40.84a2.51,2.51,0,0,1,0,1.75Z"/><path class="cls-144" d="M393.77,34c0-1,0-2.11,0-3.16,0-.53.17-.65.67-.66,1.95-.06,3.9-.16,5.85-.26a3.67,3.67,0,0,1,4.12,3.16,4,4,0,0,1-3.63,4.39c-2.18.16-4.37.19-6.56.31-.51,0-.63-.15-.62-.62,0-1.05,0-2.11,0-3.16Z"/><path class="cls-95" d="M380.64,38.47A7.42,7.42,0,0,1,375,44.56a6.4,6.4,0,0,1-8.24-6.4A7.44,7.44,0,0,1,374.51,31a6.29,6.29,0,0,1,6.13,5.88C380.67,37.42,380.64,38,380.64,38.47Z"/><path class="cls-143" d="M383.46,47.16a9.58,9.58,0,0,0,1.92-2.51c.15-.27.21-.59.48-.79-.06.26-.11.52-.17.78A14,14,0,0,1,380.61,50a34.85,34.85,0,0,1-3.84,1.59,14.63,14.63,0,0,1-9.33-.57,2.06,2.06,0,0,1-.31-.23h.33a14.05,14.05,0,0,0,15.25-3C383,47.61,383.21,47.39,383.46,47.16Z"/><path class="cls-60" d="M403.48,32.91c.38.63-.11,1.16-.19,1.74-.36,0-.22-.28-.23-.46A2.22,2.22,0,0,0,401.19,32a28.8,28.8,0,0,0-5.57.14c-.48,0-.55.37-.58.78-.06,1.13-.1,2.25-.15,3.38a1,1,0,0,1-.14.6c-.52.15-.35-.26-.34-.46,0-1.33.11-2.66.18-4a1,1,0,0,1,1.17-1c1.48.05,2.94-.12,4.41-.17a3.43,3.43,0,0,1,3.07,1.44A.32.32,0,0,0,403.48,32.91Z"/><path class="cls-145" d="M394.75,36.9c.05-1.39.1-2.78.14-4.17a.68.68,0,0,1,.65-.75,41.76,41.76,0,0,1,5.59-.15,2.32,2.32,0,0,1,2,2.16c0,.23-.08.48.14.66a1.54,1.54,0,0,1-.64.86c-.11,0-.12-.11-.08-.17,1.22-2-.85-3.56-2.5-3.33a35,35,0,0,1-3.55.13c-1.09,0-1.14.12-1.34,1.15a21.8,21.8,0,0,0-.13,2.91C395,36.46,395.18,36.81,394.75,36.9Z"/><path class="cls-146" d="M394.59,31.66c-.09-.43,0-.65.52-.67,1.84,0,3.67-.16,5.51-.23a3.06,3.06,0,0,1,2.69,1.68c0,.32-.22.18-.29.09-1.15-1.37-2.68-1.24-4.21-1.09S396,31.41,394.59,31.66Z"/><path class="cls-147" d="M394.59,31.66a4.28,4.28,0,0,1,1.53-.29c1.44-.08,2.88,0,4.32-.14a2.77,2.77,0,0,1,2.39,1c.11.13.2.41.48.24.19.11.14.31.17.47l-.06.54c-.95-2-2.6-2.09-4.31-1.91a31.7,31.7,0,0,1-3.23.12,1.19,1.19,0,0,0-1.29.78Z"/><path class="cls-148" d="M379.8,38.28c-.05,1.5-.92,2.57-2,3.75a4.87,4.87,0,0,1,.91-1.69,5,5,0,0,0-.61-5.3c-2.72-3.19-6.65-2.07-8.7.68-1.6,2.17-1.52,4.1.23,6.7a3.73,3.73,0,0,1-1.83-2.87c-.51-3.61,2.72-6.44,5.19-6.92a5.74,5.74,0,0,1,6.58,3.87C379.73,37.09,379.61,37.7,379.8,38.28Z"/><path class="cls-149" d="M379.8,38.28c-.26-.18-.2-.48-.24-.72a5.15,5.15,0,0,0-4-4.63,5.8,5.8,0,0,0-6.14,2.14,5.63,5.63,0,0,0-1.48,4c0,.16,0,.32-.13.43a4.72,4.72,0,0,1,.31-3.44A13.83,13.83,0,0,1,370,33.76a6.11,6.11,0,0,1,8.89.83c.08.11.15.22.29.24A5.26,5.26,0,0,1,379.8,38.28Z"/><path class="cls-150" d="M379.18,34.83c-.08.4-.19.16-.31,0a5.65,5.65,0,0,0-5.05-2.41,6.54,6.54,0,0,0-5.11,3c-.18.25-.33.53-.5.8h-.07a.88.88,0,0,1-.05-.15,6.5,6.5,0,0,1,7.93-4A5.83,5.83,0,0,1,379.18,34.83Z"/><text class="cls-2" transform="translate(162.22 526.2) scale(0.51 1)">Al<tspan class="cls-13" x="18.39" y="0">l</tspan><tspan class="cls-5" x="24.35" y="0" xml:space="preserve"> rig</tspan><tspan class="cls-4" x="53.63" y="0">h</tspan><tspan class="cls-5" x="64.63" y="0">ts </tspan><tspan class="cls-6" x="86.11" y="0">r</tspan><tspan class="cls-5" x="93.23" y="0">eser</tspan><tspan class="cls-8" x="131.01" y="0">v</tspan><tspan class="cls-5" x="141" y="0">ed and</tspan><tspan class="cls-151" x="202.88" y="0"> </tspan><tspan class="cls-42" x="207.08" y="0">T</tspan><tspan class="cls-5" x="216.32" y="0">erms Subject </tspan><tspan class="cls-17" x="337.52" y="0">t</tspan><tspan x="344.87" y="0">o Change.</tspan></text></svg>