<svg id="Layer_1" data-name="Layer 1" xmlns="http://www.w3.org/2000/svg" viewBox="0 0 612 428.51"><defs><style>.cls-1{fill:#e0f2f7;stroke:#231f20;stroke-miterlimit:10;opacity:0.5;}.cls-2,.cls-53{font-size:17.6px;fill:#262626;font-family:Raleway-ExtraBoldItalic, Raleway;font-weight:800;font-style:italic;}.cls-2,.cls-47{letter-spacing:0.04em;}.cls-3{letter-spacing:0.03em;}.cls-4{letter-spacing:0.03em;}.cls-5{letter-spacing:0.01em;}.cls-6{letter-spacing:0.03em;}.cls-7{letter-spacing:0.01em;}.cls-8{letter-spacing:0.03em;}.cls-9{letter-spacing:0.03em;}.cls-10{letter-spacing:0.03em;}.cls-11{letter-spacing:0.02em;}.cls-12{letter-spacing:0.04em;}.cls-13{letter-spacing:0.02em;}.cls-14{letter-spacing:0.03em;}.cls-15{letter-spacing:0.04em;}.cls-16{letter-spacing:0.03em;}.cls-17{letter-spacing:0.03em;}.cls-18{letter-spacing:0.02em;}.cls-19{letter-spacing:0.04em;}.cls-20{letter-spacing:0.03em;}.cls-21{letter-spacing:0.01em;}.cls-22{letter-spacing:0.02em;}.cls-23{letter-spacing:0.03em;}.cls-24{letter-spacing:0.03em;}.cls-25{letter-spacing:0.03em;}.cls-26,.cls-53{letter-spacing:0.04em;}.cls-27{letter-spacing:0.03em;}.cls-28{letter-spacing:0.02em;}.cls-29{letter-spacing:0.02em;}.cls-30{letter-spacing:0em;}.cls-31{letter-spacing:-0.02em;}.cls-32{letter-spacing:-0.01em;}.cls-33{letter-spacing:0.03em;}.cls-34{letter-spacing:0.03em;}.cls-35{letter-spacing:0.03em;}.cls-36{letter-spacing:0.01em;}.cls-37{letter-spacing:-0.02em;}.cls-38{letter-spacing:0.02em;}.cls-39{letter-spacing:0.03em;}.cls-40{letter-spacing:0.02em;}.cls-41{letter-spacing:0.03em;}.cls-42{letter-spacing:0.03em;}.cls-43{letter-spacing:0.03em;}.cls-44{letter-spacing:0.03em;}.cls-45{letter-spacing:0.02em;}.cls-46{letter-spacing:0.03em;}.cls-48{letter-spacing:0.01em;}.cls-49{letter-spacing:0.01em;}.cls-50{letter-spacing:0.03em;}.cls-51{letter-spacing:0em;}.cls-52{letter-spacing:0.03em;}.cls-54{letter-spacing:0.01em;}.cls-55{letter-spacing:-0.07em;}.cls-56{fill:#d23e3c;}.cls-57{fill:#c92227;}.cls-58{fill:#d8d6d5;}.cls-59{fill:#c7c5c5;}.cls-60{fill:#dad8d8;}.cls-61{fill:#a9a6a6;}.cls-62{fill:#a19e9e;}.cls-63{fill:#a6a3a3;}.cls-64{fill:#858282;}.cls-65{fill:#d7d5d5;}.cls-66{fill:#d3d1d1;}.cls-67{fill:#a5a2a2;}.cls-68{fill:#a3a0a0;}.cls-69{fill:#c4c2c2;}.cls-70{fill:#4f4c4c;}.cls-71{fill:#aca9a9;}.cls-72{fill:#4a4747;}.cls-73{fill:#686565;}.cls-74{fill:#b5b3b2;}.cls-75{fill:#d5d3d3;}.cls-76{fill:#5b5857;}.cls-77{fill:#a6a3a2;}.cls-78{fill:#b6b4b4;}.cls-79{fill:#4a4847;}.cls-80{fill:#625f5e;}.cls-81{fill:#6c6969;}.cls-82{fill:#5f5c5b;}.cls-83{fill:#787575;}.cls-84{fill:#a5a2a1;}.cls-85{fill:#4b4948;}.cls-86{fill:#4d4b4a;}.cls-87{fill:#aaa7a7;}.cls-88{fill:#b4b1b0;}.cls-89{fill:#4c4a49;}.cls-90{fill:#726f6e;}.cls-91{fill:#494746;}.cls-92{fill:#cccaca;}.cls-93{fill:#b2afaf;}.cls-94{fill:#868282;}.cls-95{fill:#d8d7d6;}.cls-96{fill:#b6b3b3;}.cls-97{fill:#494646;}.cls-98{fill:#787474;}.cls-99{fill:#504d4d;}.cls-100{fill:#8a8787;}.cls-101{fill:#838080;}.cls-102{fill:#dfdedd;}.cls-103{fill:#545151;}.cls-104{fill:#555352;}.cls-105{fill:#4b4848;}.cls-106{fill:#b4b2b2;}.cls-107{fill:#747170;}.cls-108{fill:#52504f;}.cls-109{fill:#4f4d4c;}.cls-110{fill:#aba8a8;}.cls-111{fill:#8e8b8b;}.cls-112{fill:#595756;}.cls-113{fill:#757272;}.cls-114{fill:#747171;}.cls-115{fill:#5e5b5b;}.cls-116{fill:#7b7878;}.cls-117{fill:#939090;}.cls-118{fill:#6f6c6c;}.cls-119{fill:#bab8b8;}.cls-120{fill:#636060;}.cls-121{fill:#7e7b7b;}.cls-122{fill:#cac8c8;}.cls-123{fill:#a8a5a5;}.cls-124{fill:#bbb;}.cls-125{fill:#d8d6d6;}.cls-126{fill:#858181;}.cls-127{fill:#797676;}.cls-128{fill:#fcfbfb;}.cls-129{fill:#fffefe;}.cls-130{fill:#fbfbfa;}.cls-131{fill:#fff;}.cls-132{fill:#c4c1c1;}.cls-133{fill:#6b6868;}.cls-134{fill:#8f8c8c;}</style></defs><title>Prize Guide V02</title><rect class="cls-1" x="1.3" y="-0.52" width="610.7" height="428.84"/><text class="cls-2" transform="translate(25 75) scale(0.51 1)">Spin Game Dis<tspan class="cls-3" x="127.77" y="0">c</tspan><tspan x="138" y="0">ou</tspan><tspan class="cls-3" x="160.4" y="0">n</tspan><tspan x="171.38" y="0">t Pri</tspan><tspan class="cls-4" x="207.87" y="0">z</tspan><tspan x="216.65" y="0">es</tspan><tspan class="cls-5" x="236.29" y="0"> </tspan><tspan class="cls-6" x="240.51" y="0">w</tspan><tspan x="255.19" y="0">on, a</tspan><tspan class="cls-7" x="298.79" y="0">r</tspan><tspan x="305.9" y="0">e au</tspan><tspan class="cls-8" x="344.27" y="0">t</tspan><tspan x="351.6" y="0">omati</tspan><tspan class="cls-9" x="403.9" y="0">c</tspan><tspan x="414.13" y="0">al</tspan><tspan class="cls-10" x="432.36" y="0">l</tspan><tspan class="cls-11" x="438.55" y="0">y</tspan><tspan x="448.25" y="0" xml:space="preserve"> applied </tspan><tspan class="cls-8" x="526.69" y="0">t</tspan><tspan x="534.03" y="0">o pu</tspan><tspan class="cls-7" x="572.69" y="0">r</tspan><tspan class="cls-12" x="579.8" y="0">chase, o</tspan><tspan class="cls-13" x="653.36" y="0">r</tspan><tspan x="660.6" y="0" xml:space="preserve"> sa</tspan><tspan class="cls-14" x="686.3" y="0">v</tspan><tspan class="cls-15" x="696.27" y="0">ed in </tspan><tspan class="cls-14" x="744.47" y="0">U</tspan><tspan class="cls-15" x="757.64" y="0">ser</tspan><tspan class="cls-16" x="784.84" y="0">’</tspan><tspan x="789.87" y="0">s a</tspan><tspan class="cls-17" x="815.56" y="0">cc</tspan><tspan x="836.01" y="0">ou</tspan><tspan class="cls-17" x="858.41" y="0">n</tspan><tspan x="869.39" y="0">t </tspan><tspan class="cls-18" x="881.68" y="0">f</tspan><tspan x="888.65" y="0">o</tspan><tspan class="cls-18" x="899.71" y="0">r</tspan><tspan class="cls-19" x="906.96" y="0"> </tspan><tspan class="cls-20" x="911.68" y="0">l</tspan><tspan x="917.98" y="0">a</tspan><tspan class="cls-8" x="929.8" y="0">t</tspan><tspan x="937.14" y="0">e</tspan><tspan class="cls-18" x="947.63" y="0">r</tspan><tspan class="cls-19" x="954.88" y="0" xml:space="preserve"> pu</tspan><tspan class="cls-21" x="982.47" y="0">r</tspan><tspan class="cls-15" x="989.58" y="0">chase </tspan><tspan class="cls-16" x="1047.14" y="0">o</tspan><tspan class="cls-22" x="1058.07" y="0">f</tspan><tspan x="0" y="28.6" xml:space="preserve"> the same p</tspan><tspan class="cls-7" x="102.73" y="28.6">r</tspan><tspan x="109.84" y="28.6">oduct un</tspan><tspan class="cls-9" x="189.06" y="28.6">l</tspan><tspan x="195.38" y="28.6">ess </tspan><tspan class="cls-23" x="228.88" y="28.6">o</tspan><tspan x="239.79" y="28.6">therwise s</tspan><tspan class="cls-8" x="330.15" y="28.6">t</tspan><tspan x="337.49" y="28.6">a</tspan><tspan class="cls-8" x="349.32" y="28.6">t</tspan><tspan x="356.65" y="28.6">ed on Dis</tspan><tspan class="cls-3" x="437.93" y="28.6">c</tspan><tspan x="448.16" y="28.6">ou</tspan><tspan class="cls-3" x="470.56" y="28.6">n</tspan><tspan x="481.54" y="28.6">t pri</tspan><tspan class="cls-4" x="518.32" y="28.6">z</tspan><tspan x="527.1" y="28.6">e d</tspan><tspan class="cls-24" x="554.13" y="28.6">e</tspan><tspan class="cls-25" x="564.53" y="28.6">t</tspan><tspan class="cls-12" x="571.87" y="28.6">ails. </tspan><tspan x="0" y="57.19">Dis</tspan><tspan class="cls-9" x="27.4" y="57.19">c</tspan><tspan x="37.62" y="57.19">ou</tspan><tspan class="cls-9" x="60.02" y="57.19">n</tspan><tspan class="cls-26" x="71" y="57.19">ts and </tspan><tspan class="cls-9" x="131.87" y="57.19">c</tspan><tspan x="142.09" y="57.19">oupons a</tspan><tspan class="cls-7" x="223.87" y="57.19">r</tspan><tspan x="230.98" y="57.19">e p</tspan><tspan class="cls-7" x="257.72" y="57.19">r</tspan><tspan x="264.83" y="57.19">om</tspan><tspan class="cls-23" x="292.35" y="57.19">o</tspan><tspan class="cls-26" x="303.27" y="57.19">tiona</tspan><tspan class="cls-21" x="350.18" y="57.19">l</tspan><tspan class="cls-26" x="356.13" y="57.19"> </tspan><tspan class="cls-27" x="360.84" y="57.19">o</tspan><tspan class="cls-11" x="371.77" y="57.19">ff</tspan><tspan x="383.47" y="57.19">ers</tspan><tspan class="cls-5" x="410.68" y="57.19"> </tspan><tspan x="414.9" y="57.19">with Expir</tspan><tspan class="cls-11" x="503.57" y="57.19">y</tspan><tspan class="cls-26" x="513.27" y="57.19" xml:space="preserve"> da</tspan><tspan class="cls-8" x="541.63" y="57.19">t</tspan><tspan class="cls-26" x="548.97" y="57.19">es. NO </tspan><tspan class="cls-28" x="609.96" y="57.19">C</tspan><tspan class="cls-29" x="621.98" y="57.19">A</tspan><tspan class="cls-15" x="633.7" y="57.19">SH</tspan><tspan class="cls-30" x="658.18" y="57.19"> </tspan><tspan class="cls-31" x="662.24" y="57.19">V</tspan><tspan class="cls-19" x="673.21" y="57.19">A</tspan><tspan class="cls-32" x="685.15" y="57.19">L</tspan><tspan x="694.87" y="57.19">UE - # numbe</tspan><tspan class="cls-21" x="814.84" y="57.19">r</tspan><tspan x="821.95" y="57.19">ed</tspan><tspan x="0" y="85.79">Spin Game P</tspan><tspan class="cls-7" x="111.64" y="85.79">r</tspan><tspan x="118.74" y="85.79">oduct Pri</tspan><tspan class="cls-33" x="199.78" y="85.79">z</tspan><tspan class="cls-12" x="208.56" y="85.79">es</tspan><tspan class="cls-5" x="228.2" y="85.79"> </tspan><tspan class="cls-6" x="232.42" y="85.79">w</tspan><tspan x="247.1" y="85.79">on a</tspan><tspan class="cls-7" x="285.77" y="85.79">r</tspan><tspan x="292.88" y="85.79">e au</tspan><tspan class="cls-8" x="331.24" y="85.79">t</tspan><tspan x="338.58" y="85.79">omati</tspan><tspan class="cls-9" x="390.88" y="85.79">c</tspan><tspan x="401.1" y="85.79">al</tspan><tspan class="cls-34" x="419.33" y="85.79">l</tspan><tspan class="cls-18" x="425.53" y="85.79">y</tspan><tspan x="435.22" y="85.79" xml:space="preserve"> applied </tspan><tspan class="cls-8" x="513.67" y="85.79">t</tspan><tspan x="521.01" y="85.79">o pu</tspan><tspan class="cls-7" x="559.67" y="85.79">r</tspan><tspan class="cls-12" x="566.78" y="85.79">chase during checkout. </tspan><tspan x="0" y="114.38">Subject </tspan><tspan class="cls-8" x="72.57" y="114.38">t</tspan><tspan x="79.91" y="114.38">o shipping and handling </tspan><tspan class="cls-11" x="301.43" y="114.38">f</tspan><tspan x="308.4" y="114.38">ees</tspan><tspan class="cls-5" x="338.53" y="114.38"> </tspan><tspan x="342.75" y="114.38">whe</tspan><tspan class="cls-7" x="379.09" y="114.38">r</tspan><tspan x="386.2" y="114.38">e appli</tspan><tspan class="cls-9" x="448.11" y="114.38">c</tspan><tspan x="458.33" y="114.38">ab</tspan><tspan class="cls-9" x="481.71" y="114.38">l</tspan><tspan x="488.03" y="114.38">e.</tspan><tspan x="0" y="142.98">Winner</tspan><tspan class="cls-27" x="63.88" y="142.98">’</tspan><tspan x="68.91" y="142.98">s a</tspan><tspan class="cls-7" x="94.6" y="142.98">r</tspan><tspan x="101.71" y="142.98">e </tspan><tspan class="cls-7" x="116.91" y="142.98">r</tspan><tspan x="124.02" y="142.98">esponsib</tspan><tspan class="cls-9" x="203.44" y="142.98">l</tspan><tspan x="209.76" y="142.98">e </tspan><tspan class="cls-18" x="224.96" y="142.98">f</tspan><tspan x="231.93" y="142.98">o</tspan><tspan class="cls-18" x="243" y="142.98">r</tspan><tspan x="250.25" y="142.98" xml:space="preserve"> shipping and handling, un</tspan><tspan class="cls-3" x="488.03" y="142.98">l</tspan><tspan class="cls-12" x="494.35" y="142.98">ess </tspan><tspan class="cls-23" x="527.85" y="142.98">o</tspan><tspan x="538.76" y="142.98">therwise s</tspan><tspan class="cls-29" x="629.12" y="142.98">t</tspan><tspan class="cls-15" x="636.46" y="142.98">a</tspan><tspan class="cls-29" x="648.29" y="142.98">t</tspan><tspan class="cls-15" x="655.63" y="142.98">ed in pri</tspan><tspan class="cls-35" x="728.32" y="142.98">z</tspan><tspan x="737.1" y="142.98">e d</tspan><tspan class="cls-17" x="764.13" y="142.98">e</tspan><tspan class="cls-8" x="774.53" y="142.98">t</tspan><tspan x="781.87" y="142.98">ails</tspan><tspan x="0" y="171.57">Pri</tspan><tspan class="cls-4" x="24.21" y="171.57">z</tspan><tspan x="32.99" y="171.57">es a</tspan><tspan class="cls-7" x="69.17" y="171.57">r</tspan><tspan x="76.28" y="171.57">e p</tspan><tspan class="cls-7" x="103.03" y="171.57">r</tspan><tspan x="110.14" y="171.57">o</tspan><tspan class="cls-9" x="121.21" y="171.57">c</tspan><tspan x="131.43" y="171.57">essed as an o</tspan><tspan class="cls-36" x="251.62" y="171.57">r</tspan><tspan x="258.76" y="171.57">de</tspan><tspan class="cls-11" x="281.08" y="171.57">r</tspan><tspan class="cls-5" x="288.33" y="171.57"> </tspan><tspan class="cls-26" x="292.55" y="171.57">within 2</tspan><tspan class="cls-37" x="363.09" y="171.57">-</tspan><tspan class="cls-26" x="369.83" y="171.57">3 days </tspan><tspan class="cls-27" x="432.41" y="171.57">o</tspan><tspan class="cls-38" x="443.34" y="171.57">f</tspan><tspan x="450.34" y="171.57"> </tspan><tspan class="cls-7" x="455.06" y="171.57">r</tspan><tspan x="462.17" y="171.57">e</tspan><tspan class="cls-9" x="472.65" y="171.57">c</tspan><tspan x="482.88" y="171.57">eiving the </tspan><tspan class="cls-24" x="575.4" y="171.57">c</tspan><tspan class="cls-15" x="585.63" y="171.57">o</tspan><tspan class="cls-39" x="596.69" y="171.57">n</tspan><tspan x="607.69" y="171.57">firmation shipping d</tspan><tspan class="cls-17" x="787.39" y="171.57">e</tspan><tspan class="cls-8" x="797.79" y="171.57">t</tspan><tspan x="805.13" y="171.57">ails and appli</tspan><tspan class="cls-9" x="928.75" y="171.57">c</tspan><tspan class="cls-15" x="938.97" y="171.57">ab</tspan><tspan class="cls-9" x="962.36" y="171.57">l</tspan><tspan class="cls-15" x="968.67" y="171.57">e payme</tspan><tspan class="cls-17" x="1044.2" y="171.57">n</tspan><tspan x="1055.18" y="171.57" xml:space="preserve">ts.  </tspan><tspan x="0" y="200.17">Pri</tspan><tspan class="cls-4" x="24.21" y="200.17">z</tspan><tspan x="32.99" y="200.17">es</tspan><tspan class="cls-5" x="52.63" y="200.17"> </tspan><tspan class="cls-6" x="56.86" y="200.17">w</tspan><tspan x="71.53" y="200.17">on that a</tspan><tspan class="cls-7" x="152.95" y="200.17">r</tspan><tspan class="cls-12" x="160.06" y="200.17">e p</tspan><tspan class="cls-10" x="186.81" y="200.17">h</tspan><tspan class="cls-12" x="197.67" y="200.17">ysi</tspan><tspan class="cls-3" x="222.21" y="200.17">c</tspan><tspan x="232.44" y="200.17">a</tspan><tspan class="cls-21" x="244.26" y="200.17">l</tspan><tspan x="250.21" y="200.17" xml:space="preserve"> i</tspan><tspan class="cls-40" x="260.31" y="200.17">t</tspan><tspan x="267.65" y="200.17">ems o</tspan><tspan class="cls-18" x="319.53" y="200.17">r</tspan><tspan x="326.78" y="200.17" xml:space="preserve"> p</tspan><tspan class="cls-7" x="343.03" y="200.17">r</tspan><tspan x="350.14" y="200.17">oducts</tspan><tspan class="cls-5" x="411.4" y="200.17"> </tspan><tspan x="415.62" y="200.17">wil</tspan><tspan class="cls-21" x="442.19" y="200.17">l</tspan><tspan class="cls-26" x="448.14" y="200.17" xml:space="preserve"> be he</tspan><tspan class="cls-6" x="501.18" y="200.17">l</tspan><tspan x="507.48" y="200.17">d in </tspan><tspan class="cls-14" x="545.19" y="200.17">U</tspan><tspan class="cls-12" x="558.35" y="200.17">ser</tspan><tspan class="cls-41" x="585.55" y="200.17">’</tspan><tspan class="cls-12" x="590.59" y="200.17">s i</tspan><tspan class="cls-42" x="609.84" y="200.17">n</tspan><tspan class="cls-14" x="620.71" y="200.17">v</tspan><tspan x="630.69" y="200.17">e</tspan><tspan class="cls-17" x="641.18" y="200.17">n</tspan><tspan class="cls-29" x="652.16" y="200.17">t</tspan><tspan class="cls-15" x="659.5" y="200.17">or</tspan><tspan class="cls-18" x="678.13" y="200.17">y</tspan><tspan class="cls-19" x="687.83" y="200.17"> </tspan><tspan class="cls-18" x="692.54" y="200.17">f</tspan><tspan x="699.51" y="200.17">o</tspan><tspan class="cls-18" x="710.58" y="200.17">r</tspan><tspan class="cls-19" x="717.83" y="200.17" xml:space="preserve"> 14 days FREE i</tspan><tspan class="cls-22" x="849" y="200.17">f</tspan><tspan x="856" y="200.17" xml:space="preserve"> n</tspan><tspan class="cls-43" x="871.79" y="200.17">o</tspan><tspan x="882.7" y="200.17">t shipped during checkout. </tspan><tspan x="0" y="228.76">Pri</tspan><tspan class="cls-4" x="24.21" y="228.76">z</tspan><tspan x="32.99" y="228.76">es n</tspan><tspan class="cls-23" x="68.42" y="228.76">o</tspan><tspan x="79.33" y="228.76">t shipped </tspan><tspan class="cls-9" x="167.33" y="228.76">B</tspan><tspan class="cls-11" x="179.54" y="228.76">y</tspan><tspan class="cls-26" x="189.24" y="228.76" xml:space="preserve"> Spin Shoppe</tspan><tspan class="cls-18" x="304.62" y="228.76">r</tspan><tspan class="cls-5" x="311.87" y="228.76"> </tspan><tspan x="316.09" y="228.76">wil</tspan><tspan class="cls-21" x="342.66" y="228.76">l</tspan><tspan class="cls-26" x="348.61" y="228.76" xml:space="preserve"> be au</tspan><tspan class="cls-8" x="403.25" y="228.76">t</tspan><tspan x="410.59" y="228.76">omati</tspan><tspan class="cls-9" x="462.89" y="228.76">c</tspan><tspan x="473.11" y="228.76">al</tspan><tspan class="cls-34" x="491.34" y="228.76">l</tspan><tspan class="cls-18" x="497.54" y="228.76">y</tspan><tspan x="507.23" y="228.76" xml:space="preserve"> be </tspan><tspan class="cls-44" x="538.71" y="228.76">e</tspan><tspan class="cls-45" x="549.13" y="228.76">x</tspan><tspan class="cls-26" x="558.63" y="228.76">changed </tspan><tspan class="cls-18" x="641.48" y="228.76">f</tspan><tspan x="648.45" y="228.76">o</tspan><tspan class="cls-18" x="659.51" y="228.76">r</tspan><tspan class="cls-19" x="666.77" y="228.76"> </tspan><tspan class="cls-17" x="671.48" y="228.76">S</tspan><tspan class="cls-29" x="682.52" y="228.76">t</tspan><tspan x="689.85" y="228.76">o</tspan><tspan class="cls-21" x="700.92" y="228.76">r</tspan><tspan class="cls-15" x="708.03" y="228.76">e c</tspan><tspan class="cls-21" x="733.55" y="228.76">r</tspan><tspan class="cls-15" x="740.66" y="228.76">edit af</tspan><tspan class="cls-8" x="799.75" y="228.76">t</tspan><tspan x="807.09" y="228.76">e</tspan><tspan class="cls-13" x="817.57" y="228.76">r</tspan><tspan x="824.82" y="228.76" xml:space="preserve"> 30 days f</tspan><tspan class="cls-21" x="910.54" y="228.76">r</tspan><tspan x="917.65" y="228.76">om da</tspan><tspan class="cls-29" x="973.53" y="228.76">t</tspan><tspan class="cls-15" x="980.87" y="228.76">e issued.</tspan><tspan class="cls-46"><tspan x="0" y="257.36">U</tspan><tspan class="cls-47" x="13.16" y="257.36">ser</tspan><tspan class="cls-16" x="40.37" y="257.36">’</tspan><tspan class="cls-12" x="45.4" y="257.36">s a</tspan><tspan class="cls-7" x="71.09" y="257.36">r</tspan><tspan class="cls-47" x="78.2" y="257.36">e </tspan><tspan class="cls-7" x="93.41" y="257.36">r</tspan><tspan class="cls-47" x="100.51" y="257.36">esponsib</tspan><tspan class="cls-9" x="179.93" y="257.36">l</tspan><tspan class="cls-47" x="186.25" y="257.36">e </tspan><tspan class="cls-18" x="201.45" y="257.36">f</tspan><tspan class="cls-47" x="208.42" y="257.36">o</tspan><tspan class="cls-18" x="219.49" y="257.36">r</tspan><tspan class="cls-47" x="226.74" y="257.36" xml:space="preserve"> all, Duties, s</tspan><tspan class="cls-8" x="341.31" y="257.36">t</tspan><tspan class="cls-47" x="348.65" y="257.36">o</tspan><tspan class="cls-48" x="359.72" y="257.36">r</tspan><tspan class="cls-47" x="366.86" y="257.36">age, and o</tspan><tspan class="cls-18" x="460.86" y="257.36">r</tspan><tspan class="cls-26" x="468.11" y="257.36" xml:space="preserve"> and </tspan><tspan class="cls-23" x="512.26" y="257.36">o</tspan><tspan class="cls-47" x="523.17" y="257.36">the</tspan><tspan class="cls-18" x="552.3" y="257.36">r</tspan><tspan class="cls-26" x="559.55" y="257.36"> </tspan><tspan class="cls-11" x="564.26" y="257.36">f</tspan><tspan class="cls-26" x="571.23" y="257.36">ees associa</tspan><tspan class="cls-8" x="674.79" y="257.36">t</tspan><tspan class="cls-47" x="682.13" y="257.36">ed af</tspan><tspan class="cls-8" x="728.27" y="257.36">t</tspan><tspan class="cls-47" x="735.61" y="257.36">e</tspan><tspan class="cls-18" x="746.09" y="257.36">r</tspan><tspan class="cls-19" x="753.34" y="257.36" xml:space="preserve"> 14 days f</tspan><tspan class="cls-21" x="837.65" y="257.36">r</tspan><tspan class="cls-15" x="844.76" y="257.36">om da</tspan><tspan class="cls-29" x="900.65" y="257.36">t</tspan><tspan class="cls-47" x="907.99" y="257.36">e </tspan><tspan class="cls-16" x="923.19" y="257.36">o</tspan><tspan class="cls-22" x="934.12" y="257.36">f</tspan><tspan class="cls-49" x="941.12" y="257.36"> </tspan><tspan class="cls-47" x="945.34" y="257.36">winning pri</tspan><tspan class="cls-4" x="1044.85" y="257.36">z</tspan><tspan class="cls-15" x="1053.63" y="257.36">e</tspan></tspan><tspan x="0" y="285.95">Pri</tspan><tspan class="cls-4" x="24.21" y="285.95">z</tspan><tspan x="32.99" y="285.95">es a</tspan><tspan class="cls-7" x="69.17" y="285.95">r</tspan><tspan x="76.28" y="285.95">e shipped f</tspan><tspan class="cls-7" x="174.49" y="285.95">r</tspan><tspan x="181.6" y="285.95">om Canadian </tspan><tspan class="cls-30" x="305.68" y="285.95">L</tspan><tspan x="315.6" y="285.95">o</tspan><tspan class="cls-9" x="326.67" y="285.95">c</tspan><tspan x="336.89" y="285.95">ation, pri</tspan><tspan class="cls-33" x="417.94" y="285.95">z</tspan><tspan class="cls-12" x="426.73" y="285.95">es shipped outside </tspan><tspan class="cls-16" x="598.33" y="285.95">o</tspan><tspan class="cls-22" x="609.26" y="285.95">f</tspan><tspan x="616.26" y="285.95" xml:space="preserve"> Canada maybe subject </tspan><tspan class="cls-29" x="832.02" y="285.95">t</tspan><tspan class="cls-15" x="839.35" y="285.95">o cus</tspan><tspan class="cls-8" x="885.93" y="285.95">t</tspan><tspan x="893.27" y="285.95">oms </tspan><tspan class="cls-13" x="934.66" y="285.95">f</tspan><tspan x="941.63" y="285.95">ees</tspan><tspan class="cls-5" x="971.75" y="285.95"> </tspan><tspan class="cls-19" x="975.98" y="285.95">which</tspan><tspan class="cls-5" x="1028.59" y="285.95"> </tspan><tspan class="cls-50" x="1032.81" y="285.95">w</tspan><tspan class="cls-15" x="1047.49" y="285.95">ou</tspan><tspan class="cls-6" x="1069.89" y="285.95">l</tspan><tspan class="cls-15" x="1076.19" y="285.95">d </tspan><tspan x="0" y="314.55">be the</tspan><tspan class="cls-51" x="55.89" y="314.55"> </tspan><tspan x="59.95" y="314.55">Winner</tspan><tspan class="cls-27" x="123.83" y="314.55">’</tspan><tspan x="128.86" y="314.55">s </tspan><tspan class="cls-52" x="142.73" y="314.55">e</tspan><tspan class="cls-26" x="153.15" y="314.55">xpense</tspan></text><text class="cls-53" transform="translate(184.01 405.59) scale(0.51 1)">Al<tspan class="cls-7" x="18.35" y="0">l</tspan><tspan class="cls-47" x="24.3" y="0" xml:space="preserve"> rig</tspan><tspan class="cls-9" x="53.51" y="0">h</tspan><tspan x="64.49" y="0">ts </tspan><tspan class="cls-7" x="85.93" y="0">r</tspan><tspan class="cls-12" x="93.04" y="0">eser</tspan><tspan class="cls-14" x="130.73" y="0">v</tspan><tspan class="cls-47" x="140.71" y="0">ed and</tspan><tspan class="cls-54" x="202.45" y="0"> </tspan><tspan class="cls-55" x="206.64" y="0">T</tspan><tspan class="cls-12" x="215.86" y="0">erms Subject </tspan><tspan class="cls-8" x="336.81" y="0">t</tspan><tspan class="cls-47" x="344.14" y="0">o Change.</tspan></text><path class="cls-56" d="M158.52,33.64q.19-5.94.4-11.89c0-1.24.09-2.48.1-3.73,0-.52.09-.76.7-.77,4.45-.07,8.89-.23,13.34-.28a9.24,9.24,0,0,1,8.83,5.14c1.86,3.52,1.47,7-.56,10.4,0,.05-.09.07-.13.11a3.19,3.19,0,0,1-1.61.26h-18.7C160,32.87,159.12,32.81,158.52,33.64Z"/><path class="cls-56" d="M351.33,32.78c.09-3.3.17-6.6.26-9.89.07-2.14.17-4.28.24-6.42,0-.37,0-.68.53-.68,3.54,0,7.08-.38,10.61,0A11.5,11.5,0,0,1,373.24,28a10.24,10.24,0,0,1-1.13,4.66.84.84,0,0,1-.47.21,45.22,45.22,0,0,1-5.46.19,1.19,1.19,0,0,1-.41-.11c-.41-.54.13-.83.36-1.17a6.87,6.87,0,0,0,1.2-5.26,6.28,6.28,0,0,0-5.85-5.08,16.59,16.59,0,0,0-3.3.15c-.41.06-.63.22-.67.64a11.64,11.64,0,0,0-.16,1.46c.09,2.92-.28,5.83-.2,8.75,0,.37.28,1-.47,1.06A1.52,1.52,0,0,0,355.5,33h-3.11A1.38,1.38,0,0,1,351.33,32.78Z"/><path class="cls-56" d="M374.69,32.6c.09-3.41.17-6.83.27-10.24.06-2.08.19-4.16.22-6.24,0-.66.21-.83.84-.84q6.35-.1,12.71-.25c1.48,0,3-.06,4.44-.14.64,0,.78.18.74.77-.08,1.36-.13,2.72-.13,4.08,0,.57-.18.71-.74.72-3.89.08-7.78.2-11.67.28-.59,0-.81.15-.79.76a22.52,22.52,0,0,1-.11,2.6c0,.55.14.69.68.67,2.84-.08,5.69-.11,8.53-.2.64,0,.86.1.8.79-.1,1.32-.13,2.66-.12,4,0,.61-.21.78-.8.79-2.82,0-5.63.14-8.45.16-.71,0-.88.24-.86.88a18.77,18.77,0,0,1-.11,2,3.61,3.61,0,0,0-1.78-.3c-.92,0-1.85,0-2.78,0A1.14,1.14,0,0,1,374.69,32.6Z"/><path class="cls-57" d="M205.25,33c-1.25,2.36-3.28,3.75-7.36,4.94a14.24,14.24,0,0,1,1.26,1c2.24,2.23,4.45,4.48,6.7,6.7.38.38.38.59,0,1-1.08,1-2.14,2-3.15,3.12-.42.45-.64.32-1,0q-5.38-5.44-10.8-10.85a1.86,1.86,0,0,0-.77-.62c-.08,1.8-.17,3.58-.2,5.36,0,.54-.14.74-.72.73-1.33,0-2.67,0-4,.1-.72.05-.95-.12-.91-.88.16-3.46.26-6.93.38-10.4.18-.71.77-.61,1.27-.62,2.41,0,4.82,0,7.22,0,3.63,0,7.26-.06,10.89,0C204.47,32.51,205.08,32.29,205.25,33Z"/><path class="cls-56" d="M242.56,33c.06-2.2.1-4.4.18-6.6.08-2.51.2-5,.28-7.55,0-.47.13-.63.63-.64q8.64-.14,17.26-.35c.7,0,.88.17.83.85-.1,1.3-.14,2.61-.13,3.91,0,.64-.19.82-.84.83-3.81,0-7.61.14-11.42.17-.7,0-1,.17-.95.9a16.8,16.8,0,0,1-.1,2.35c-.06.63.11.84.8.81,2.79-.1,5.58-.12,8.36-.22.72,0,.89.18.84.86-.08,1.36-.09,2.72-.13,4.08,0,.34,0,.63-.48.63-1.51,0-3,.21-4.53.11a38.63,38.63,0,0,0-5.27.07,33.15,33.15,0,0,1-4.78,0A.77.77,0,0,1,242.56,33Z"/><path class="cls-56" d="M292.56,33a12.8,12.8,0,0,1-.21-8.18,14.83,14.83,0,0,1,14-10.76c3.16-.07,6.33-.11,9.5-.2.59,0,.8.1.75.75-.11,1.62-.14,3.24-.16,4.86,0,.53-.18.67-.71.67-3.31,0-6.62.08-9.93.19-5.25.17-9.07,5.77-7.26,10.58A10.15,10.15,0,0,0,299.71,33a1.31,1.31,0,0,1-1,.26h-5.19A1.51,1.51,0,0,1,292.56,33Z"/><path class="cls-56" d="M205.25,33c-.23-.34-.57-.22-.88-.22h-18.7c-.38,0-.77-.06-1,.35q.24-6.54.46-13.08c0-.44.14-.61.6-.61,4.2-.06,8.41-.25,12.61-.18a8.09,8.09,0,0,1,7.41,4.82A8.86,8.86,0,0,1,205.25,33Z"/><path class="cls-57" d="M292.56,33h7.15a7.43,7.43,0,0,0,6.45,2.44c.95-.07,1.9,0,2.85,0,.27,0,.61.09.67-.33a4.44,4.44,0,0,0,.07-1.54c0-.51.17-.78.67-.8,1.58-.06,3.17-.05,4.76,0,.48,0,.72.25.68.77-.06.83.07,1.66-.06,2.49q-.18,6-.34,12c0,.37-.13.49-.5.49-1.72,0-3.43.07-5.14.15-.54,0-.62-.19-.59-.65.08-1.79.08-3.59.21-5.38.06-.81-.19-.93-.94-.93a29.67,29.67,0,0,1-6.25-.16,12.74,12.74,0,0,1-9.67-8.23A1.1,1.1,0,0,1,292.56,33Z"/><path class="cls-56" d="M224.1,32.78l5.35-8.62c-1.93,0-3.8,0-5.67,0s-3.48,0-5.22.11c-.5,0-.66-.12-.63-.63.08-1.44.14-2.89.15-4.33,0-.52.22-.61.68-.62,2.43,0,4.87-.13,7.31-.14,4.55,0,9.11,0,13.68,0,0-.13,0,0,0,0q-4.53,7.2-9.07,14.38a57.93,57.93,0,0,1-6,.06A.72.72,0,0,1,224.1,32.78Z"/><path class="cls-57" d="M224.1,32.78H230c.25,0,.53-.07.72.17-1,1.58-1.93,3.15-3,4.86h1c3.28-.06,6.57-.11,9.85-.21.6,0,.81.12.77.75-.1,1.38-.15,2.77-.16,4.16,0,.57-.22.66-.72.67-2.61,0-5.23.11-7.84.16L218,43.57h-.75C219.58,39.9,221.84,36.34,224.1,32.78Z"/><path class="cls-57" d="M158.52,33.64c0-1.07.73-1.06,1.57-1.06,7,0,14.07,0,21.11,0a10.52,10.52,0,0,1-8.82,5c-2.4.1-4.81.14-7.22.17-.48,0-.57.18-.57.6-.05,1.88-.14,3.76-.17,5.64,0,.52-.1.74-.7.74-1.6,0-3.19,0-4.79.14-.67,0-.83-.15-.8-.79C158.28,40.63,158.39,37.14,158.52,33.64Z"/><path class="cls-57" d="M242.56,33h9.78c.28,0,.58-.09.82.14-1.45,0-2.9.07-4.35.06-.52,0-.71.14-.71.68,0,.93,0,1.86-.13,2.78-.05.61.13.78.76.76,3.86-.11,7.72-.16,11.58-.27.66,0,.84.14.79.8-.1,1.39-.13,2.78-.14,4.17,0,.5-.19.61-.67.62-5.74.1-11.49.21-17.24.36-.76,0-.9-.2-.87-.91C242.34,39.08,242.44,36,242.56,33Z"/><path class="cls-57" d="M351.33,32.78c1.54,0,3.07,0,4.61,0,.6,0,.85.19.84.76.52,1.35.53,1.38,2.08,1.26.84-.07,1.68-.11,2.51-.2a6.56,6.56,0,0,0,3.34-1.36c.27-.21.5-.5.9-.46,2.17.15,4.33-.22,6.5-.15a12.8,12.8,0,0,1-8.71,7.45c-2.32.63-4.72.44-7.1.53-1.56,0-3.13,0-4.69.07-.33,0-.66.07-.62-.44C351.19,37.74,351.06,35.25,351.33,32.78Z"/><path class="cls-56" d="M267.82,33c-1-1.8-2-3.59-2.95-5.4a8.85,8.85,0,0,1-.95-3A6,6,0,0,1,267,18.2a17.92,17.92,0,0,1,6.86-2.07c.41-.05.56.11.61.52.18,1.58.37,3.16.61,4.73.07.46-.13.45-.45.47a9.39,9.39,0,0,0-2.72.54c-1.42.52-1.76,1.11-1.43,2.59a14.16,14.16,0,0,0,1.29,3.12c.82,1.62,1.82,3.15,2.49,4.85a1.09,1.09,0,0,1-.88.26c-1.56,0-3.11,0-4.66,0A1.36,1.36,0,0,1,267.82,33Z"/><path class="cls-57" d="M374.69,32.6c1.56,0,3.13,0,4.7,0,.44,0,.74.07.75.57,0,1.35,0,1.36,1.38,1.33,3.62-.09,7.25-.18,10.88-.3.65,0,.93.08.87.82-.1,1.33-.14,2.66-.13,4,0,.61-.21.76-.8.77-5.39.09-10.79.22-16.19.34-1.84,0-1.9,0-1.73-1.81S374.38,34.49,374.69,32.6Z"/><path class="cls-57" d="M324.49,32.78c1.94,2.77,4.45,3.56,7.09,2.25a7.5,7.5,0,0,0,2.49-2.26,1.18,1.18,0,0,1,.81-.26c1.39,0,2.78,0,4.17,0,.29,0,.67-.05.77.39-2.08,7.8-11.89,10.71-17.6,6a8.85,8.85,0,0,1-3.5-6,.56.56,0,0,1,.45-.23c1.54,0,3.06-.32,4.6-.22A1.13,1.13,0,0,1,324.49,32.78Z"/><path class="cls-56" d="M342.62,32.78c-.05-3.24.19-6.47.26-9.71.05-2.11.17-4.22.22-6.33,0-.55.17-.75.73-.74,1.42,0,2.84,0,4.26-.09.5,0,.64.13.62.62-.16,3.85-.27,7.69-.43,11.53-.08,1.93,0,3.87-.22,5.8a1.45,1.45,0,0,0-1.61-.83c-.92,0-1.84,0-2.76,0A1.61,1.61,0,0,1,342.62,32.78Z"/><path class="cls-56" d="M339.82,32.91a6.09,6.09,0,0,0-2.21-.13c-1.18,0-2.36,0-3.54,0,1-2,.69-4.13.81-6.22.18-3.14.24-6.29.31-9.44,0-.68.19-1,.92-1,1.39,0,2.78,0,4.17-.06.31,0,.56,0,.53.44-.26,5-.22,10-.62,15A3.1,3.1,0,0,1,339.82,32.91Z"/><path class="cls-56" d="M324.49,32.78c-1.93-.11-3.84.23-5.77.18a6.29,6.29,0,0,1-.22-2.4c.12-4.45.29-8.9.42-13.36,0-.47.13-.66.64-.66,1.36,0,2.73,0,4.09-.12.7,0,.92.13.89.89-.18,4-.28,8.09-.43,12.13A9,9,0,0,0,324.49,32.78Z"/><path class="cls-57" d="M267.82,33h6.43c1.78,4.09.78,7.43-3.07,9.36a18.25,18.25,0,0,1-5.84,1.6c-.53.07-.82,0-.91-.65-.21-1.43-.51-2.84-.81-4.26-.12-.57.07-.73.63-.76a10,10,0,0,0,3.06-.61,1.59,1.59,0,0,0,1.22-1.92A11.92,11.92,0,0,0,267.82,33Z"/><path class="cls-56" d="M315.8,36c0-.8,0-1.61,0-2.42,0-.45-.16-.61-.6-.6-1.57,0-3.13,0-4.69,0-.52,0-.62.22-.64.67s.16,1-.16,1.43a19,19,0,0,1,.13-3.29c0-.71-.12-1-.88-.92s-1.8,0-2.7.05c-.44,0-.61-.1-.59-.57.08-1.71.14-3.41.17-5.12,0-.47.2-.57.63-.58l9.15-.18c.29,0,.64-.11.62.44-.14,3.67-.26,7.34-.38,11C315.83,35.91,315.81,35.93,315.8,36Z"/><path class="cls-56" d="M208.91,33q.24-6.72.46-13.44c0-.52.22-.62.68-.62,1.45,0,2.9,0,4.35-.05.46,0,.59.13.57.59-.19,4.45-.35,8.9-.52,13.35A.7.7,0,0,1,214,33,37.45,37.45,0,0,1,208.91,33Z"/><path class="cls-57" d="M208.91,33a2.9,2.9,0,0,1,1.62-.17c1.31,0,2.61,0,3.92,0-.1,3.49-.22,7-.3,10.48,0,.51-.31.45-.63.46-1.42,0-2.85,0-4.26.05-.67,0-.75-.21-.73-.78C208.67,39.65,208.79,36.3,208.91,33Z"/><path class="cls-58" d="M214.82,45.64a2.05,2.05,0,0,1-1.32.34c-1.57,0-3.13,0-4.7,0-.64,0-1.13,0-1.05.93a2.16,2.16,0,0,1-.84,1.65c-.95.94-1.89,1.89-2.84,2.82-1.23,1.22-2.35,1.32-3.62.14s-2.23-2.28-3.37-3.39c-1.63-1.6-3.24-3.22-4.89-4.81-.33-.31-.5-.22-.57.19,0,.23-.08.45-.12.68-.43,2.19-.68,2.42-2.93,2.47-1.31,0-2.62,0-3.93,0a1.8,1.8,0,0,1-1.9-1.91c0-3,.12-5.94.31-8.91,0-.46.28-1.14-.2-1.37s-.69.5-.94.81a12.57,12.57,0,0,1-6.83,4.32,9.22,9.22,0,0,1-2.23.3c-2,0-3.93.12-5.9.15-.55,0-.78.21-.8.77,0,1.38-.11,2.77-.16,4.15a1.86,1.86,0,0,1-2.06,2c-1.66,0-3.29.24-5,.2s-2.48-.78-2.43-2.41c.07-2.49.17-5,.24-7.45.09-3.44.22-6.87.34-10.31.11-2.91.18-5.82.32-8.73a2.07,2.07,0,0,1,.33-1.06c.07-.1.19-.27.33-.09s0,.22,0,.33a1,1,0,0,0-.16.58c.1,1.68-.19,3.34-.19,5,0,4.22-.29,8.42-.38,12.64,0,1.58-.09,3.17-.13,4.75,0,.21,0,.42,0,.63a17,17,0,0,0,0,4.62,1.74,1.74,0,0,0,.85.84,27.85,27.85,0,0,0,4.38,0,7.11,7.11,0,0,1,1.38-.08,1.41,1.41,0,0,0,1.52-1.33,14.74,14.74,0,0,0,.16-1.63c.12-1.12.12-2.25.16-3.38a.74.74,0,0,1,.53-.56c1.09-.13,2.18,0,3.27-.06a3.19,3.19,0,0,0,1-.1,6.45,6.45,0,0,1,1.24-.07,14.21,14.21,0,0,0,2.35-.08,12.37,12.37,0,0,0,8.2-5.37c.23-.35.39-.91.92-.77s.42.77.4,1.2c-.12,2.07-.1,4.15-.21,6.22-.07,1.3-.12,2.59-.12,3.89s.42,1.72,1.73,1.69a33.4,33.4,0,0,0,4.69-.11,1.28,1.28,0,0,0,1.22-1.23,12.66,12.66,0,0,0,.15-1.38c0-.4-.05-.87.39-1.07s.75.2,1,.48q1.86,1.83,3.7,3.68c1.5,1.49,3,3,4.49,4.48.92.93,1.78,1.22,2.93.17a29,29,0,0,0,3.17-3.2,1.84,1.84,0,0,0,.38-1.78c.06-.62-.43-1-.81-1.49.62,0,.66-.36.65-.81,0-2.48.28-5,.19-7.45,0-.34.12-.68.13-1s.17-.65-.16-.78-.61.22-.74.47a7.22,7.22,0,0,1-1.24,1.56,7.55,7.55,0,0,1-2.71,2.07.3.3,0,0,1-.38,0c.06-.77.89-.69,1.25-1.13a10.68,10.68,0,0,0,3.15-3.63,4.4,4.4,0,0,1,.3-.52c.18-.25.37-.47.71-.35s.35.36.36.64c0,.54-.1,1.08-.1,1.63,0,2.77-.25,5.52-.24,8.29,0,.6,0,1.23.52,1.66a8.74,8.74,0,0,0,4,.2c.91-.06,1.82-.1,2.74-.1A.17.17,0,0,1,214.82,45.64Z"/><path class="cls-57" d="M342.62,32.78c1.42,0,2.84,0,4.25,0,.88,0,1.29.2,1.19,1.11-.06,2.14-.13,4.28-.17,6.42,0,.38-.12.49-.5.5-1.54,0-3.08,0-4.61.11-.39,0-.53-.1-.5-.49C342.47,37.87,342.34,35.31,342.62,32.78Z"/><path class="cls-59" d="M394.23,34.5c0-.11,0-.26.06-.33s.21,0,.25.09a3.45,3.45,0,0,1,.23,1c.07,1.71-.11,3.41-.19,5.11a1.63,1.63,0,0,1-1.12,1.42,2.7,2.7,0,0,1-.93.18c-3.83.07-7.67.08-11.49.21-2.06.07-4.12.15-6.18.14-1.33,0-1.9-.57-1.91-1.89s0-2.49,0-3.73c0-.24.15-.6-.15-.7s-.46.21-.59.41a14.57,14.57,0,0,1-9.83,6.1,26.63,26.63,0,0,1-4,.16c-2.26,0-4.52.26-6.79.18a2,2,0,0,1-1.65-.59c-.23-.28-.56-.44-.8-.09-.58.84-1.49.75-2.28.81-1.47.09-3,0-4.44,0a1.14,1.14,0,0,1-.87-.33.16.16,0,0,1,.11-.25c1.74,0,3.48,0,5.22,0,1.48,0,1.93-.49,2-2,.2-3.52.25-7,.37-10.56s.31-6.92.33-10.38c0-.75.23-1.49.17-2.25,0-.28,0-.58-.16-.83.07-.24-.2-.88.42-.49.36.23.72-.43.87.05a2.35,2.35,0,0,1-.06,1.67c-.19-.16-.09-.37-.1-.5a2.8,2.8,0,0,0-.1.7c.12,2.61-.11,5.21-.21,7.81-.16,4.3-.18,8.6-.48,12.9a21.11,21.11,0,0,0,0,2.25,1.28,1.28,0,0,0,1.41,1.41c3.48.07,7,0,10.44-.19a8.22,8.22,0,0,0,2.87-.66,24.12,24.12,0,0,0,2.44-1.08,7.31,7.31,0,0,0,2.28-1.53A6.52,6.52,0,0,0,371,37.25,7.46,7.46,0,0,0,372,35.76c.05-.08.11-.15.17-.23a1.46,1.46,0,0,1,.38-.47c.18-.15.37-.3.62-.18s.28.35.3.59a13,13,0,0,1-.1,2.25,16.64,16.64,0,0,0-.07,2.34c0,1.34.64,1.92,2,1.77a13.25,13.25,0,0,1,2-.08c4.42.08,8.82-.29,13.23-.2.81,0,1.61-.16,2.43-.18s1.16-.63,1.24-1.61A48.54,48.54,0,0,0,394.23,34.5Z"/><path class="cls-60" d="M214.82,45.64v-.18c.73-1.44.34-3,.53-4.5,0-.1,0-.21,0-.31.12-1.64,0-3.28.13-4.93s.14-3.44.19-5.16c.22-1.47,0-2.95.16-4.41.14-1,.08-2.08.12-3.12,0-.25,0-.61.29-.65s.42.34.49.61a8.09,8.09,0,0,1,.06,1.3c.07,1.24.61,1.83,1.86,1.78,2.31-.1,4.62-.17,6.94-.15.47,0,1-.11,1.2.56l-7.63,12.26c-.93,1.49-1.87,3-2.81,4.46A1.59,1.59,0,0,0,218,45.42c4.23,0,8.45-.19,12.68-.26,2.35,0,4.69,0,7-.12.94,0,1.92,0,2.52-1,.24-.39.61-.23.87.07s.5.58.93.58c2.32,0,4.64.13,6.95,0,2.64-.19,5.28,0,7.91-.17,1.21-.07,2.43-.1,3.64-.14A1.32,1.32,0,0,0,262,43.17a3.35,3.35,0,0,0,.13-.77c0-.21.05-.42.3-.47a.48.48,0,0,1,.53.35,11.67,11.67,0,0,1,.46,1.76c.26,1.3.54,1.47,1.86,1.54a27.59,27.59,0,0,0,3.77-.53.93.93,0,0,1,.75.24,12.42,12.42,0,0,1-5.42.84,1.58,1.58,0,0,1-1.4-1.35c-.21-.84-.33-.88-1-.32a2.12,2.12,0,0,1-1.45.48c-3.39.06-6.78.11-10.17.22-2.58.09-5.16.06-7.74.13-.26,0-.62.07-.76-.07-.82-.76-1.55-.47-2.34.05a1.45,1.45,0,0,1-.83.18c-2.7-.1-5.39.2-8.09.18-4.29,0-8.58.29-12.88.19a2,2,0,0,1-1.52-.49C215.56,44.71,215.3,45.69,214.82,45.64Z"/><path class="cls-61" d="M166.16,39.73l-.34.34a14.62,14.62,0,0,0-.1,2.56,2.31,2.31,0,0,1-.07.94,19.84,19.84,0,0,1-.2,2,1.37,1.37,0,0,1-1.37,1.08c-.52,0-1,0-1.56,0a28.85,28.85,0,0,1-4.74,0,1.8,1.8,0,0,1-.69-.68,30.83,30.83,0,0,1,0-4.9v-.51c.5.35.23.83.2,1.26.11,1.24-.19,2.5.16,3.73a1.77,1.77,0,0,0,1.77.65c1.55-.11,3.1-.16,4.65-.17a1.43,1.43,0,0,0,1.25-.65,10.11,10.11,0,0,0,.2-2c.17-.58,0-1.2.13-1.78l0-1.7a1.11,1.11,0,0,1,1.17-.73c1.71.09,3.41-.24,5.13-.19,4.42.14,7.74-1.83,10.24-5.35a4.91,4.91,0,0,0,.65-1c.18-.29.36-.65.78-.57s.12.51.29.73c.05,2.8-.16,5.59-.24,8.39,0,1.07,0,2.14-.07,3.21a1.18,1.18,0,0,0,.34.77c.2.53.66.59,1.13.63a45.86,45.86,0,0,0,4.69-.2c.28,0,.61,0,.62-.45a1.41,1.41,0,0,0,.55-1.25,5.15,5.15,0,0,1,.16-1.87c.29-.45.66-.39,1-.14a4.78,4.78,0,0,1,.71.64l8.26,8.23c1,1,1.6,1,2.65,0,.84-.84,1.69-1.67,2.52-2.53.31-.32.7-.62.7-1.14.16-.28.07-.66.32-.91.68.57.34,1.2,0,1.68a22.09,22.09,0,0,1-3.93,3.92c-.73.59-1.62.4-2.48-.45-2.76-2.74-5.5-5.5-8.27-8.23-.26-.25-.45-.81-.93-.59s-.18.68-.22,1c-.07.54-.09,1.09-.19,1.63a1.19,1.19,0,0,1-1,1,28.48,28.48,0,0,1-5.91.15A1.19,1.19,0,0,1,183.08,45c0-3.15.15-6.29.31-9.44,0-.55,0-1.1,0-1.65,0-.25.07-.58-.26-.66s-.37.26-.48.43a11.15,11.15,0,0,1-3.27,3.56,11,11,0,0,1-5.2,2.18c-.81.24-1.65-.08-2.46.17h-1.2a33,33,0,0,1-3.45.08C166.78,39.65,166.46,39.55,166.16,39.73Z"/><path class="cls-62" d="M316.12,49.1a11.91,11.91,0,0,0,.29-3.42c.19-4.84.3-9.69.45-14.53a5.31,5.31,0,0,1,.1-.68.7.7,0,0,1,.26.7c-.18,1.58.6,2.94,1,4.39a9.2,9.2,0,0,0,1.77,3,2.09,2.09,0,0,1,.24.28,4.5,4.5,0,0,0,1.5,1.41c3.58,2.63,7.47,2.79,11.56,1.49a6.44,6.44,0,0,1,.74-.25.71.71,0,0,1,.55.11c.13.42-.22.45-.46.56-.56.24-1.13.49-1.72.69A14.58,14.58,0,0,1,326,43a10.75,10.75,0,0,1-7.45-5.35c-.35-.6-.74-1.18-1-1.83a12.48,12.48,0,0,0-.39,2.57c.08,3-.23,6-.21,9,0,.58-.14,1.14-.16,1.72a1.42,1.42,0,0,1-1.6,1.37c-1.75,0-3.47.26-5.21.2-1.56-.06-2.15-.59-2.22-2.13-.06-1.19.25-2.35.18-3.54s-.13-1.27-1.32-1.29a22.53,22.53,0,0,1-5.62-.34c-.56-.15-1.08-.4-1.64-.55a20.06,20.06,0,0,1-2.64-1.38c-.24-.17-.59-.29-.5-.7.39-.22.65.07.92.24a6.49,6.49,0,0,0,2,.94,19,19,0,0,0,7.78,1,1.7,1.7,0,0,1,1.53.41c0,1.37-.09,2.74-.13,4.11a5.21,5.21,0,0,0,.14,1.76,1.47,1.47,0,0,0,1.24.5c1.53,0,3.07,0,4.6,0A2.18,2.18,0,0,0,316.12,49.1Z"/><path class="cls-63" d="M269,45.28a21.21,21.21,0,0,1-4.21.56,1.48,1.48,0,0,1-1.58-1.28c-.15-.7-.32-1.4-.48-2.11,0-.18-.1-.38-.29-.38s-.2.23-.22.4c-.26,1.91-.5,2.05-2.39,2.14-3.2.16-6.39,0-9.58.2-2.76.14-5.51.09-8.27.13a2,2,0,0,1-1.3-2c0-2.1.21-4.19.27-6.29a1.06,1.06,0,0,1,0-.31c.18-1.63.11-3.27.13-4.91a1.54,1.54,0,0,1,0-.3c.18-1.64.11-3.27.13-4.91a2.72,2.72,0,0,1,0-.3c.18-1.63.12-3.26.14-4.89,0-.1,0-.21,0-.31a8.67,8.67,0,0,0,.1-1.35c0-.26-.06-.67.45-.61a7.52,7.52,0,0,1,0,1.71l-.39,13c-.1,3-.22,6.07-.33,9.1a1.36,1.36,0,0,0,.35,1.19c.22.55.72.57,1.17.57a33,33,0,0,0,4.77-.1,8.14,8.14,0,0,1,1.48-.05c3.62.12,7.23-.21,10.85-.2.56,0,1.25.1,1.59-.59.54-1,.24-2.14.34-3.21,0-.31,0-.63,0-.94a.16.16,0,0,1,.24,0c.91,1.67,1,3.58,1.52,5.37a1.51,1.51,0,0,0,.69.7,5.16,5.16,0,0,0,2.07,0c1.42-.19,2.75-.73,4.14-1a.58.58,0,0,1,.38.13c-.08.54-.61.47-.94.67S269.34,45.13,269,45.28Z"/><path class="cls-64" d="M318.21,35.74c-.36-.29-.23-.79-.46-1.1-1-1.27-.68-2.75-.79-4.17.12-2.3-.1-4.63.5-6.9a2,2,0,0,0,0-.61c0-1.15,0-1.06-1.13-1-2.73.13-5.46.17-8.18.21a19.15,19.15,0,0,0-3.3.24c-2.94.58-6.25,3.82-5.43,7.9a4.64,4.64,0,0,1-.27-3.28,16.8,16.8,0,0,1,.76-1.88,7.58,7.58,0,0,1,6.78-3.57c1.72,0,3.44.12,5.15-.1,1.4-.22,2.84.07,4.24-.24a1.51,1.51,0,0,0,1-.53c.29-1.71.15-3.44.32-5.16,0-.4,0-.8,0-1.2.3,0,.33.14.35.28a49.24,49.24,0,0,1,0,7.87c-.1,1.36,0,2.71-.07,4.07a39.65,39.65,0,0,0-.05,6,13.84,13.84,0,0,0,.67,2.86C318.27,35.5,318.35,35.66,318.21,35.74Z"/><path class="cls-65" d="M299.23,42.67a19.11,19.11,0,0,0,7.62.89c1.14,0,1.27.11,1.24,1.23s-.13,2.42-.14,3.63c0,1.56.53,2.09,2.1,2.07,1.74,0,3.48-.1,5.21-.17a1.33,1.33,0,0,0,1.39-1.38c.13-3.08.23-6.17.35-9.26.05-1.35.11-2.71.17-4.06,0-.19-.07-.47.21-.5s.31.24.39.42a12.9,12.9,0,0,0,1.79,3.25A10.65,10.65,0,0,0,327.93,43a16.41,16.41,0,0,0,4.58-.37.7.7,0,0,1,.71,0,5.83,5.83,0,0,1-2.15.61,12.22,12.22,0,0,1-12.25-4.83c-.24-.35-.39-.77-.6-1.15-.13-.22-.23-.51-.57-.41s-.3.39-.3.65c0,1.62,0,3.25-.08,4.85-.18,2.24,0,4.49-.27,6.73a1.73,1.73,0,0,1-1.87,1.53c-1.71.08-3.41.15-5.12.18s-2.38-.62-2.43-2.39c0-1.13.24-2.24.18-3.37s-.14-1.17-1.23-1.18a21.2,21.2,0,0,1-5.62-.36,6.81,6.81,0,0,1-2.07-.85A.29.29,0,0,1,299.23,42.67Z"/><path class="cls-66" d="M269,45.28c.58-.43,1.4-.34,1.94-.86a18.53,18.53,0,0,1,2.3-1.5,7,7,0,0,0,2.84-5.67c0-.44,0-.89,0-1.33,0,.54,0,1.09,0,1.63,0,.18.09.43-.23.46-.11-1.18.06-2.35-.16-3.53a14.07,14.07,0,0,0-1.61-4.07,50.17,50.17,0,0,1-2.55-5,1.62,1.62,0,0,1-.23-1,7.13,7.13,0,0,1,3.19-1.05A1.66,1.66,0,0,0,276,22.14c-.21-2.08-.65-4.14-.71-6.46a2.41,2.41,0,0,1,.71,1.44c.21,1.57.43,3.13.66,4.7A1.94,1.94,0,0,1,275,24.09c-.65.09-1.31.21-2,.36s-1,.7-.75,1.48a17.64,17.64,0,0,0,1.36,2.8c1,2.06,2.35,4,2.83,6.29.64,3,.17,5.69-2.13,7.87a12.42,12.42,0,0,1-4.56,2.4Z"/><path class="cls-67" d="M263.27,21a11,11,0,0,0,0,5.22c-.17.47.14.83.29,1.22a45.79,45.79,0,0,0,2.3,4.46,13.06,13.06,0,0,1,1.5,3.4c0,.11,0,0,.05.06s0-.12.08-.13c.26.87.26.87-.33,1.36-.5-2.8-2.29-5-3.46-7.44a11.3,11.3,0,0,1-1.09-3.18c-.08-.55-.36-.7-.83-.61a23.22,23.22,0,0,1-3.91.15c-2.37.07-4.75.12-7.12.17-.47,0-.9,0-.91.65,0,.23-.1.39-.36.38s-.3-.24-.28-.43c.08-.59-.19-1.2.18-1.75a.91.91,0,0,0,.87.41c3.39,0,6.77-.31,10.16-.21a4.09,4.09,0,0,0,.61,0c1.43-.2,1.7-.57,1.49-2a10.52,10.52,0,0,1,.06-1.86l0-1.19c.22-.38-.07-.85.29-1.37C263.27,19.18,263,20.11,263.27,21Z"/><path class="cls-68" d="M349.62,16.45c.45.07.33.42.32.68-.13,4-.3,8-.39,12,0,1-.08,2-.12,2.93-.12,3.09-.23,6.17-.35,9.26a1.35,1.35,0,0,1-1.35,1.34,47.25,47.25,0,0,1-5.83,0,.87.87,0,0,1-.32-.13c-.75-.47-.71-1.22-.67-1.94a40.22,40.22,0,0,0,.11-4.39c0-.69-.33-.51-.7-.44-.27-.7.28-1.16.51-1.71.06-.13.24-.15.38-.13s.27.18.28.37a6,6,0,0,0,.06,1.27c-.05,1.56-.08,3.12-.14,4.68a4.39,4.39,0,0,0,.17,1.35c.33.63,1,.63,1.51.59,1.35-.08,2.7,0,4.05-.06.55,0,1.1-.07,1.4-.64a8.7,8.7,0,0,0,.3-2.82c.18-4.65.28-9.3.44-14C349.37,21.93,349.5,19.19,349.62,16.45Z"/><path class="cls-69" d="M241.14,36.42c.12,2.11-.11,4.22-.19,6.32a2.24,2.24,0,0,0,1.06,2.2c-.56,0-.81-.36-1.07-.75-.14-.21-.35-.41-.51,0-.48,1.1-1.5,1.1-2.43,1.12-4.63.1-9.27.07-13.9.24-2.14.08-4.28.07-6.42.15a1.6,1.6,0,0,1-1.53-.94,1.2,1.2,0,0,1,.23-1.51l.15.9a1.11,1.11,0,0,0,1.24.95c4.82.08,9.64-.19,14.46-.24,1.94,0,3.88-.06,5.83-.11a2.51,2.51,0,0,0,1.27-.24c.32-.18.68-.39.46-.87a3.58,3.58,0,0,0,.15-1.26c.19-.63,0-1.29.12-1.93l.05-2.24c.14-.15,0-.47.2-.52.59-.13.55-.57.58-1C240.9,36.49,240.94,36.37,241.14,36.42Z"/><path class="cls-70" d="M261.54,43.37c.31.39-.09.51-.29.64a2,2,0,0,1-1,.22l-8.34.18c-3.07.06-6.14.12-9.21.16-.52,0-1.16,0-1-.83a1.11,1.11,0,0,0,.83.16l14.8-.31c1.07,0,2.15,0,3.22,0A2.06,2.06,0,0,0,261.54,43.37Z"/><path class="cls-71" d="M394.23,34.5c.06.1.17.19.17.29a37.62,37.62,0,0,1-.14,5.62,1.35,1.35,0,0,1-1.41,1.24c-2.84.2-5.69,0-8.51.21-3,.21-6.09-.06-9.12.24-1.46.15-2.1-.49-2.07-2s.11-2.88.16-4.32c0-.27.13-.68-.18-.79s-.5.28-.67.53-.19.29-.37.34a1.83,1.83,0,0,1,.87-1.8c.58-.47.54.25.68.57.13,1.7-.21,3.39-.15,5.1A1.42,1.42,0,0,0,374,41c.11.4.42.43.75.42,2.84-.07,5.67.11,8.51-.14a43.73,43.73,0,0,1,5.12,0c1.43,0,2.83-.23,4.25-.2.31,0,.66,0,.75-.43a1.65,1.65,0,0,0,.67-1.46A32.6,32.6,0,0,1,394.23,34.5Z"/><path class="cls-72" d="M393.37,40.59c.12.08.62-.16.28.32a1.06,1.06,0,0,1-.92.39c-1.65,0-3.29.11-4.94.15L375,41.66c-.42,0-.88.08-1.2-.32s-.09-.35.17-.38h0a12.09,12.09,0,0,0,2.82,0L390,40.73c.94-.15,1.89.06,2.83-.11Z"/><path class="cls-73" d="M206.81,47c.38.37,0,.67-.17.88-1.1,1.14-2.22,2.28-3.38,3.37-.7.66-1.5.55-2.29-.23L192.2,42.3c-.38-.38-.73-.68-1.27-.32V40.41c.35,0,.47.31.66.5q4.69,4.7,9.37,9.41c.94.93,1.56.92,2.5,0Q205.13,48.67,206.81,47Z"/><path class="cls-74" d="M394.41,21.13a36.05,36.05,0,0,0,.36-5.08c0-.36-.14-1,.22-1,.53,0,.31.64.3,1a33.49,33.49,0,0,1-.16,5.11,1.7,1.7,0,0,1-1.54,1.38,36.28,36.28,0,0,1-5.21.14c-1.86,0-3.71.17-5.57.18-.42,0-.74.08-.79.59a.42.42,0,0,1-.49.39c-.28,0-.19-.33-.17-.5.06-.56-.19-1.15.16-1.68a.88.88,0,0,0,.94.46c2.81-.31,5.63-.16,8.44-.21.84,0,1.68-.18,2.52-.2A1,1,0,0,0,394.41,21.13Z"/><path class="cls-75" d="M299.23,42.67l-.38,0a9.65,9.65,0,0,1-3.55-2.09,13.48,13.48,0,0,1-4.91-8.87,15.92,15.92,0,0,1,2.05-10.58A10.57,10.57,0,0,1,294.06,19a26.3,26.3,0,0,0-2,3.7A13.78,13.78,0,0,0,291,28.62c0,.58,0,1.16,0,1.74-.34,0-.24-.27-.24-.45,0-.65,0-1.3,0-1.95a13.28,13.28,0,0,0,.43,4.74,13.58,13.58,0,0,0,4.6,7.46.84.84,0,0,1,.41.63,6.63,6.63,0,0,0,2.2,1.41Z"/><path class="cls-76" d="M182.2,33.64A11.38,11.38,0,0,1,173,39.19c-2.08.13-4.17.15-6.26.17a1.76,1.76,0,0,0-1.23.52c-.07-1.21-.07-1.19,1.11-1.23,2.43-.07,4.88,0,7.29-.27a11.2,11.2,0,0,0,7.82-4.68l.33-.4C182.33,33.3,182.33,33.44,182.2,33.64Z"/><path class="cls-77" d="M365,41.48a6,6,0,0,1-3.06.81c-3.56.23-7.13.27-10.7.21a1.3,1.3,0,0,1-1.41-1.5c.1-2.74.08-5.48.32-8.21v-.26c.07-3,0-5.9.23-8.83.18-2.42-.08-4.85.44-7.25,0,.41.05.82.07,1.23q-.19,7-.4,13.93c-.1,3.14-.21,6.29-.32,9.43a1.14,1.14,0,0,0,1.2,1,99.9,99.9,0,0,0,12.23-.51C364,41.49,364.47,41.09,365,41.48Z"/><path class="cls-78" d="M226.82,26.48c-.26-.36-.64-.31-1-.32-2.31,0-4.62.07-6.94.16-1.68.07-2.29-.61-2.32-2.28a2.28,2.28,0,0,0-.34-1.71c.13,2.23-.23,4.22-.19,6.24a3.52,3.52,0,0,1-.15,1.95,11.17,11.17,0,0,1-.11-3.95c.19-2.19,0-4.39.27-6.57a1.24,1.24,0,0,0-.13-.59c0-.21-.18-.62.35-.41.1,0,.2.15.3.15.73-.06.78,0,.67.69a40,40,0,0,0-.12,4.24,4.25,4.25,0,0,0,.13.92c.27.53.79.55,1.26.54,2.28,0,4.56.14,6.84-.1.62-.07,1.34-.29,1.85.35C227.21,26.1,226.93,26.25,226.82,26.48Z"/><path class="cls-60" d="M241.14,36.42c-.24.2-.12.48-.17.72s.29,1-.59.63a3.19,3.19,0,0,0-.27.39c0-.2-.05-.49.06-.58,1.12-1,.66-2.33.74-3.48.22-3,.12-6,.26-9,.06-1.18.15-2.35.14-3.54,0-.25.17-.63-.24-.73s-.41.26-.55.47L236,28.46c-1.76,2.77-3.41,5.62-5.3,8.3-.29-.36,0-.65.15-.94,2.65-4.25,5.33-8.47,8-12.72.6-1,1.24-1.89,1.81-2.87a2,2,0,0,0,.17-1.88c.26-.58.85-.05,1.23-.36.07-.06.18.49.16.76a4,4,0,0,1-.13,1.69c0-.58,0-1.16,0-1.74-.37-.07-.24.22-.25.38a8,8,0,0,1-.09,1.7h0a30.92,30.92,0,0,0-.1,3.6,5.88,5.88,0,0,1-.08,1.62h0a30.69,30.69,0,0,0-.09,3.59,5.86,5.86,0,0,1-.08,1.62h0a30.75,30.75,0,0,0-.1,3.59,5.5,5.5,0,0,1-.08,1.62Z"/><path class="cls-79" d="M218.65,44.44l20.72-.4c.44.17.13.37,0,.45a2.35,2.35,0,0,1-1.17.27c-4-.11-7.93.21-11.9.2-2.64,0-5.27.2-7.91.15h-.61c-.27,0-.7.07-.7-.3s.47-.25.74-.3S218.37,44.56,218.65,44.44Z"/><path class="cls-80" d="M334.08,41.63a9.81,9.81,0,0,1-3.9,1,12.2,12.2,0,0,1-7.28-1.39,8.23,8.23,0,0,1-1.39-1q-.74-.68-1.41-1.41l-.16-.17c-.09-.18-.12-.34.17-.36A10.93,10.93,0,0,0,328.27,42a12,12,0,0,0,8.52-2.81,1.72,1.72,0,0,1,.38-.2c.17-.1.23,0,.28.14A6.45,6.45,0,0,1,334.08,41.63Z"/><path class="cls-81" d="M229.79,36.92c-.64,0-.19-.33-.11-.47.72-1.18,1.46-2.35,2.2-3.53l8.75-13.86c.64.28.28.71.1,1-.43.75-.93,1.47-1.38,2.2-2.91,4.72-5.91,9.38-8.82,14.1A1.18,1.18,0,0,1,229.79,36.92Z"/><path class="cls-82" d="M306.52,21.82a7.39,7.39,0,0,0-6.45,3.45c-.3,0-.28-.13-.16-.32a7.47,7.47,0,0,1,6.41-3.82c3.19-.09,6.39-.13,9.58-.18a3.18,3.18,0,0,0,1.26-.24c-.34,1-1.21.85-2,.91-1.08.08-2.18,0-3.27,0-1.44.17-2.87,0-4.31.08A2.61,2.61,0,0,0,306.52,21.82Z"/><path class="cls-83" d="M218.65,44.44c-.44.32-1,0-1.52.29.25.31.56.21.82.2,4.4,0,8.81,0,13.2-.22,2.23-.09,4.46-.07,6.68-.12a7.8,7.8,0,0,0,1.37-.2c.17,0,.35-.12.17-.35.06-.22.44-.16.42-.45.64.17.27.52.09.76a1.81,1.81,0,0,1-1.56.58c-2,.06-4,.06-6.08.12-4.8.17-9.62.18-14.43.25-.69,0-1.28-.11-1.42-.92,0-.08.09-.19.14-.28C217.16,44.72,218,44.26,218.65,44.44Z"/><path class="cls-79" d="M381.26,33.3c0-.7-.39-1.54,0-2s1.26-.15,1.92-.17c2.15-.07,4.3-.11,6.44-.14,1.55,0,1.68-.16,1.7-1.67a.89.89,0,0,1,.11-.52v.94c0,1.73-.4,2.09-2.11,2.13-2.23.05-4.46.12-6.7.15C381.77,32.05,381.18,32.25,381.26,33.3Z"/><path class="cls-84" d="M258.41,33.82a1.3,1.3,0,0,0,.67-1.28,32.73,32.73,0,0,1,.25-5c.42.21.3.57.3.86a42.09,42.09,0,0,1-.15,5A1.62,1.62,0,0,1,257.72,35q-3.6.11-7.22.17c-.58,0-1.06,0-1,.82,0,.23-.09.4-.35.39s-.24-.25-.22-.45.05-.63.08-.94a1.07,1.07,0,0,1,1.16-.58c2.32.1,4.63-.18,6.94-.19C257.57,34.25,258.1,34.35,258.41,33.82Z"/><path class="cls-72" d="M394.41,21.13c.07.81-.49.84-1.07.88-2.4.18-4.81.14-7.22.18-1.21,0-2.43.1-3.64.14a1.52,1.52,0,0,0-.83.24c-.19-.29-.1-.61-.13-.91l11.8-.33A2.38,2.38,0,0,0,394.41,21.13Z"/><path class="cls-85" d="M262.61,22.73c.38,1.28.07,1.85-1.17,2.11a4.92,4.92,0,0,1-.86.09l-10,.19a1.39,1.39,0,0,0-1.06.27,1.79,1.79,0,0,1-.09-.9c3.91-.08,7.82-.17,11.73-.23.58,0,1.09-.06,1.33-.67C262.62,23.32,262.37,23,262.61,22.73Z"/><path class="cls-86" d="M308.44,43.36a4.46,4.46,0,0,0-1.62-.17,18.17,18.17,0,0,1-7.9-1.08A27.93,27.93,0,0,1,295.48,40a14.77,14.77,0,0,1-1.81-2c-.13-.14-.29-.42.11-.49A13.52,13.52,0,0,0,305,42.54c.89,0,1.8,0,2.69-.06S308.6,42.73,308.44,43.36Z"/><path class="cls-87" d="M157.29,41.85c-.1-.41.15-.88-.2-1.26.12-4.81.18-9.63.4-14.43.12-2.59.07-5.19.3-7.77,0-.33-.08-.72.34-.9-.08,4.73-.27,9.45-.46,14.18-.12,3.08-.16,6.17-.25,9.25A1.65,1.65,0,0,1,157.29,41.85Z"/><path class="cls-88" d="M333.13,32.06c.34-3.43.38-6.77.44-10.1,0-1.5.11-3,.17-4.5a1.83,1.83,0,0,1,.39-1.14C334.69,18.67,333.93,31.07,333.13,32.06Z"/><path class="cls-89" d="M350.65,41.54c4.07-.16,8.17.09,12.23-.42a14.64,14.64,0,0,0,4.45-1.6c.53.1.16.34.08.54A11.09,11.09,0,0,1,361.35,42c-3.25.15-6.5.27-9.75.2C351.19,42.14,350.61,42.3,350.65,41.54Z"/><path class="cls-68" d="M215.89,19.41a.94.94,0,0,1,.3.77c-.22,3.44-.37,6.89-.33,10.34-.06,1.73-.11,3.47-.17,5.21a30.75,30.75,0,0,0-.1,3.59,4.69,4.69,0,0,1-.08,1.45.49.49,0,0,1,0,.17,13.5,13.5,0,0,0-.09,2.46c0,.34.09.69-.09,1-.33.1-.29-.18-.35-.35a.51.51,0,0,1,0-.17c.19-.81,0-1.65.13-2.46C215.32,34.08,215.54,26.74,215.89,19.41Z"/><path class="cls-90" d="M341.6,32.46l0,.31c-.15.13-.3.28-.51.16s-.1-.24,0-.37c.52-5.45.35-10.93.92-16.38.24,4.84-.14,9.67-.22,14.51C341.55,31.27,341.78,31.88,341.6,32.46Z"/><path class="cls-69" d="M229.79,36.92a3,3,0,0,0,.56-.52q5-8.07,10.07-16.11c.21-.35.63-.74.21-1.23l.16-.71a1.36,1.36,0,0,1,.09,1.87c-2.14,3.43-4.3,6.84-6.45,10.26-1.18,1.88-2.36,3.77-3.55,5.64a1.1,1.1,0,0,0-.2.64C230.38,36.8,230.11,37,229.79,36.92Z"/><path class="cls-91" d="M227.17,25.79a9,9,0,0,0-2.59,0c-2.11.06-4.23.05-6.35.05-.55,0-1-.15-1-.82.35.29.77.13,1.15.14,3.09,0,6.18-.08,9.27-.21C227.75,25.4,227.32,25.52,227.17,25.79Z"/><path class="cls-92" d="M340.35,35.7c.36-.13.3-.87.71-.71s.14.72.16,1.11c.11,1.58-.17,3.15-.16,4.72a2.31,2.31,0,0,0,.52,1.68v.2a1.77,1.77,0,0,1-.81-2c.17-1.21.06-2.42.12-3.63,0-.18.09-.46-.16-.53s-.4.19-.51.38a11.47,11.47,0,0,1-1.61,2.24,13.38,13.38,0,0,1-5.38,3.54h-.71c.66-.43,1.53-.42,2.11-1s1.45-1,2.12-1.57a11.65,11.65,0,0,0,3.13-3.95C340,35.93,340.05,35.69,340.35,35.7Z"/><path class="cls-93" d="M207.84,45.46a1.13,1.13,0,0,1-.53-1.11c0-3.44.13-6.86.32-10.29,0-.3.14-.73-.23-.85s-.46.35-.6.61a10.29,10.29,0,0,1-3.5,4,.47.47,0,0,1-.09-.22c.14-.57.75-.69,1-1.11A8,8,0,0,0,206,34.32a1.1,1.1,0,0,1,.14-.21,14.35,14.35,0,0,0,.9-1.85c.15-.3.32-.69.73-.58s.16.49.2.75-.06.57.07.84c-.14,2.79,0,5.59-.34,8.38a5.24,5.24,0,0,0,.58,3.79A.26.26,0,0,1,207.84,45.46Z"/><path class="cls-94" d="M293.78,37.48c-.29.33.09.45.22.61a12.75,12.75,0,0,0,4.49,3.62.71.71,0,0,1,.43.4c-1-.21-1.73-1-2.7-1.32-4.23-3.27-5.88-7.64-5.5-13,.26.95-.12,1.81.28,2.59a13.39,13.39,0,0,0,2.25,6.26C293.44,36.9,293.74,37.11,293.78,37.48Z"/><path class="cls-95" d="M325.38,18c0-.46,0-.92,0-1.38,0-.15.06-.38.25-.4s.32.17.36.33a4.67,4.67,0,0,1,.2,1.27c-.2,3.28-.32,6.55-.34,9.83,0,.72-.13,1.43-.15,2.15,0,1.28-.18,2.6.83,3.68a2.47,2.47,0,0,1-1.35-1.77c.06-4.78.29-9.56.46-14.34,0-.11-.14,0,0-.05s0,0,0,.08C325.69,17.67,325.75,17.94,325.38,18Z"/><path class="cls-96" d="M308.79,32.94c0,.4,0,.8,0,1.21,0,.14,0,.3-.21.32a.26.26,0,0,1-.31-.32c.16-1.26-.64-1.26-1.52-1.2a7.11,7.11,0,0,1-1.22,0,1.25,1.25,0,0,1-1.26-1.21,42.4,42.4,0,0,1,.19-6.57.72.72,0,0,1,.32-.44c.33,2.17-.13,4.33,0,6.49.22.87.52,1.13,1.34,1.16q.74,0,1.47,0A1.38,1.38,0,0,1,308.79,32.94Z"/><path class="cls-97" d="M258.41,33.82c.34,0,.4.19.13.42a1.52,1.52,0,0,1-1.06.27l-7.26.17A1.87,1.87,0,0,0,249,35c-.17-.78.12-1.05.93-1,1.66,0,3.32,0,5,0,.94-.16,1.89,0,2.83-.12Z"/><path class="cls-98" d="M350.65,41.54c.1.45.45.45.81.45,3.47,0,7,0,10.41-.21a11.52,11.52,0,0,0,5.51-1.9.26.26,0,0,1,.34,0c.13.46-.33.37-.51.54A7.49,7.49,0,0,1,365,41.48c-4.4,1.07-8.89.65-13.34.84-1.13,0-1.45-.29-1.49-1.28C350.32,41.19,350.34,41.51,350.65,41.54Z"/><path class="cls-67" d="M325.38,18c.3-.36,0-.84.24-1.23.39.69.12,1.4.13,2.11,0,2.4-.18,4.79-.22,7.19,0,1.73-.1,3.46-.16,5.19,0,.17,0,.35-.18.45a12.18,12.18,0,0,1-.13-3.95C325.13,24.52,325.27,21.27,325.38,18Z"/><path class="cls-99" d="M264,44.79c3.91,0,7.5-.92,10.44-3.68.29,0,.27.15.27.33a7.57,7.57,0,0,1-3.5,2.66c-1.62.43-3.19,1-4.85,1.29a9.1,9.1,0,0,1-1.73,0C264.26,45.42,264,45.24,264,44.79Z"/><path class="cls-100" d="M340.35,35.7A12,12,0,0,1,336,40.89c-.43.28-.9.5-1.35.76l-.54,0a20.3,20.3,0,0,0,3.32-2.42c.41-.77,1.18-1.25,1.61-2a4.61,4.61,0,0,0,.84-1.65c.4-1,.79-2,1.18-3,.05.43.35.2.55.21l0,2.76c-.27-.36-.08-.78-.15-1.17,0-.14,0-.29-.21-.33s-.26.08-.3.24C340.74,34.76,340.35,35.16,340.35,35.7Z"/><path class="cls-101" d="M208,33.27c-.27-.3-.1-.66-.15-1,0-.16,0-.39-.16-.45s-.33.18-.41.35c-.29.62-.57,1.25-.87,1.87-.06.11-.21.19-.31.28-.27-.4.26-.68.16-1a10,10,0,0,0,1.27-4.15c.18-1-.1-2.12.23-3.16.07-.24.05-.52.33-.66.1,0,.19,0,.09,0a.26.26,0,0,1,0,.16C208.27,28.08,208,30.67,208,33.27Z"/><path class="cls-70" d="M165.12,45.41a1,1,0,0,1-1.06.9c-1.73.06-3.45.14-5.18.15-.61,0-1.33,0-1.43-.88a2.47,2.47,0,0,0,1,.22c2-.07,3.92-.13,5.87-.16A4.31,4.31,0,0,0,165.12,45.41Z"/><path class="cls-102" d="M207.32,25.47a10.11,10.11,0,0,0-2.75-4.69c.94.21,1.27,1.06,1.84,1.66.33.36.4,1.18,1,1s.2-.88.23-1.35a12.05,12.05,0,0,1,.19-2.75,1.54,1.54,0,0,1,.67-1,11,11,0,0,1-.1,2.95c-.45-.57-.13-1.19-.21-1.79,0,1.41-.1,2.83-.1,4.24A1.8,1.8,0,0,1,207.32,25.47Z"/><path class="cls-103" d="M190.22,45.1c.12.09.64-.15.28.33a.88.88,0,0,1-.74.38c-1.71,0-3.42.23-5.13.15-.51,0-1-.14-.85-.84a1.32,1.32,0,0,0,.83.15Z"/><path class="cls-104" d="M348.54,41.45c.13.58-.3.81-.7.82-1.84.06-3.68.07-5.52.06a.7.7,0,0,1-.74-.77,2.42,2.42,0,0,0,1,.21l5.22-.15A3.78,3.78,0,0,0,348.54,41.45Z"/><path class="cls-105" d="M316.12,49.1c-.09.74-.69.82-1.23.84-1.79.05-3.6,0-5.4.06a1.08,1.08,0,0,1-1-.77,2.29,2.29,0,0,0,1.16.21c1.89-.06,3.79-.1,5.69-.17A4.59,4.59,0,0,0,316.12,49.1Z"/><path class="cls-106" d="M207.32,25.47c.91-1.85.56-3.86.71-5.81a.58.58,0,0,1,.38-.51v2.17c0,1.11,0,2.23-.07,3.34,0,.28.08.58-.15.82a5,5,0,0,0-.54,2.41,1.84,1.84,0,0,1-.13,1.24A23.57,23.57,0,0,0,207.32,25.47Z"/><path class="cls-107" d="M267.49,35.19a1.84,1.84,0,0,1-.05.25c-.13.26-.13,0-.15,0-.91-2.87-2.88-5.22-3.91-8-.15-.39-.46-.77-.11-1.2a44.73,44.73,0,0,0,3.19,6.29A9.43,9.43,0,0,1,267.49,35.19Z"/><path class="cls-108" d="M276,22.14a1.09,1.09,0,0,1-.93,1.34,9.12,9.12,0,0,0-3.54,1s-.15-.07-.23-.11c-.15-.69.35-.9.83-1.1a8.94,8.94,0,0,1,2.84-.59A1.16,1.16,0,0,0,276,22.14Z"/><path class="cls-109" d="M208.17,44.6a47.53,47.53,0,0,0,6.64-.2c0,.7-.47.89-1,.92-1.49.09-3,0-4.48.18a1.41,1.41,0,0,1-1.37-.59C207.78,44.7,207.74,44.46,208.17,44.6Z"/><path class="cls-110" d="M373.64,23.24c-.17-.58-.74-1.14,0-1.76.12-.11.06-.45,0-.68,0-1.5.05-3,.18-4.49a1.07,1.07,0,0,1,.39-.89,55.58,55.58,0,0,1-.21,6.76C373.81,22.51,374.05,23,373.64,23.24Z"/><path class="cls-111" d="M271.31,43.9a11.17,11.17,0,0,0,3.29-2.46c.32-.87,1.06-1.57,1.11-2.56.05-.29.1-.58.16-.87.37-.72,0-1.53.25-2.28.67,4.48-1.39,7.21-5.15,8.69l-.37,0C270.64,44,271.1,44.1,271.31,43.9Z"/><path class="cls-112" d="M206.25,33.28c.37.42-.26.68-.16,1h0a11.85,11.85,0,0,1-1.72,2.15A15.27,15.27,0,0,1,200.68,39c-.32-.07-.4-.38-.67-.66A10.74,10.74,0,0,0,206.25,33.28Z"/><path class="cls-64" d="M208.17,44.6c-.46.15-.09.31,0,.38a2.23,2.23,0,0,0,1.59.27,24,24,0,0,1,3.79-.12,1.26,1.26,0,0,0,1.25-.73c0-.13,0-.27.17-.34a.39.39,0,0,1,.18.36,1.07,1.07,0,0,1-1.1,1.1c-1.82.06-3.64.19-5.47.09a.89.89,0,0,1-.4-.15c-1.1-1.14-.7-2.49-.54-3.81,0,.6,0,1.2,0,1.79A1.2,1.2,0,0,0,208.17,44.6Z"/><path class="cls-65" d="M183.43,23A31.63,31.63,0,0,0,181.76,20c.65.21.74.69,1,1s.29.41.57.28.22-.33.22-.54a1.91,1.91,0,0,1,.22-1.17c.09-.12.18-.26.34-.17a.37.37,0,0,1,.14.28,5.43,5.43,0,0,1-.14,2.05c-.25-.46,0-1-.13-1.43a16.78,16.78,0,0,1-.08,2.24C183.93,22.8,183.79,23,183.43,23Z"/><path class="cls-111" d="M263.63,44.77c-.58-1.08-.48-2.33-.84-3.47-.11-.35-.13-.69-.51-.93s-.11-.8-.24-1.19a6.87,6.87,0,0,1,0-1.58c.5.1.38.54.59.74l1.2,6.26A.27.27,0,0,1,263.63,44.77Z"/><path class="cls-113" d="M373.64,34.66c-.23-.13-.08-.59-.44-.55s-.36.28-.45.49c-.19.45-.6.78-.66,1.29h0c-.15.17-.21.45-.53.39-.33-.38.36-.55.19-.9a19.77,19.77,0,0,0,2.06-4.33C373.75,32.25,373.69,33.46,373.64,34.66Z"/><path class="cls-114" d="M182.2,33.64,182,33.3a11,11,0,0,0,1.76-5.19c0-.1.08-.11.12,0a45,45,0,0,1-.17,4.64c-.24-.13,0-.59-.36-.59s-.39.29-.52.51S182.6,33.44,182.2,33.64Z"/><path class="cls-115" d="M371.75,35.38c.37.38-.3.53-.18.86a.79.79,0,0,1-.3.62c-.65.67-1.27,1.37-2,2l-.18.15c-.43.26-.8.63-1.25.87l-.12,0-.36,0c.06-.13.17-.27-.05-.36A17.59,17.59,0,0,0,371.75,35.38Z"/><path class="cls-113" d="M263.63,44.77l.16-.17.21.19c.62.89,1.54.51,2.31.42A15.85,15.85,0,0,0,270.88,44a1.54,1.54,0,0,1,.43-.05l-.71.5a17.61,17.61,0,0,1-4.17,1.06,6.66,6.66,0,0,1-2.27,0A.88.88,0,0,1,263.63,44.77Z"/><path class="cls-116" d="M308.79,32.94c-.9-.53-1.89-.29-2.85-.34s-1.38-.61-1.16-1.39c.15.3.46.39.71.55.55.49,1.22.18,1.83.25s1.06-.08,1.45.4Z"/><path class="cls-117" d="M183.43,23c.57-.53.34-1.28.49-1.92a4.6,4.6,0,0,1,.16-1c0,.52,0,1,.07,1.56,0,1.26,0,2.52-.05,3.78-.46,0-.09-.4-.3-.5A13.86,13.86,0,0,0,183.43,23Z"/><path class="cls-105" d="M308.77,32.41a12.25,12.25,0,0,0-2.77-.17c-.27,0-.75.11-.51-.48.9,0,1.8,0,2.7-.05C308.8,31.67,308.88,31.93,308.77,32.41Z"/><path class="cls-118" d="M320.11,38.34l-.17.36a5.6,5.6,0,0,1-1.73-3l.13-.34A20.84,20.84,0,0,0,320.11,38.34Z"/><path class="cls-119" d="M263.27,21c-.41-.08-.33-.41-.33-.68,0-.58,0-1.16,0-1.86-.31.43,0,.87-.34,1.15a3.7,3.7,0,0,1,.16-1.68.68.68,0,0,1,.42.83C263.15,19.47,263.94,20.19,263.27,21Z"/><path class="cls-120" d="M339.85,35.56c.1,1-.7,1.63-1.16,2.37a4,4,0,0,1-1.29,1.28l-.23-.2A14.68,14.68,0,0,0,339.85,35.56Z"/><path class="cls-121" d="M200.68,39c0-.31.23-.45.48-.55a13.83,13.83,0,0,0,3.18-2.05c.06,0,.08.08.06.13s0,.07-.05.07c-.22.47-.8.57-1.06,1a10.71,10.71,0,0,1-2.43,1.45Z"/><path class="cls-122" d="M262.59,38.34c-.27-.07-.26-.4-.55-.59v1.43l-.13,0a4.33,4.33,0,0,1,.21-2.17C262.86,37.3,262.68,37.84,262.59,38.34Z"/><path class="cls-113" d="M275.71,38.88a3.41,3.41,0,0,1-1.11,2.56.32.32,0,0,0-.16-.33A9.31,9.31,0,0,0,275.71,38.88Z"/><path class="cls-123" d="M200.86,39.06a10.29,10.29,0,0,1,2.43-1.45v.2c-.33.4-.94.4-1.24.86-.37.22-.61.76-1.19.52A.15.15,0,0,1,200.86,39.06Z"/><path class="cls-124" d="M183.8,24.94l.3.5a14,14,0,0,1-.18,2.67h-.12Z"/><path class="cls-125" d="M200.87,39.19c.46,0,.72-.51,1.19-.52h.38c-.23.33-.74.31-.9.77C201.46,39.7,201.36,39.67,200.87,39.19Z"/><path class="cls-126" d="M373.64,23.24c.12-.35.24-.71.37-1.06v2.23l-.11,0Z"/><path class="cls-127" d="M299.91,25c0,.12,0,.26.16.32-.3.59-.59,1.18-.88,1.76A3.66,3.66,0,0,1,299.91,25Z"/><path class="cls-119" d="M262.61,22.73c0,.29.14.62-.17.86a10.31,10.31,0,0,1,.13-2.83C262.59,21.42,262.6,22.07,262.61,22.73Z"/><path class="cls-71" d="M392.87,40.62a10.32,10.32,0,0,1-2.83.11A9.93,9.93,0,0,1,392.87,40.62Z"/><path class="cls-84" d="M257.73,33.84a10,10,0,0,1-2.83.12A10,10,0,0,1,257.73,33.84Z"/><path class="cls-71" d="M376.82,41A5.73,5.73,0,0,1,374,41Z"/><path class="cls-78" d="M215.14,41.43a7,7,0,0,1-.13,2.46A8.47,8.47,0,0,1,215.14,41.43Z"/><path class="cls-60" d="M240.06,40.4a4.48,4.48,0,0,1-.12,1.93A5,5,0,0,1,240.06,40.4Z"/><path class="cls-100" d="M341.6,32.46a3.66,3.66,0,0,1,.13-1.77A5,5,0,0,1,341.6,32.46Z"/><path class="cls-87" d="M165.45,41.58c0,.59.17,1.21-.13,1.78A4.66,4.66,0,0,1,165.45,41.58Z"/><path class="cls-128" d="M169.5,23.21h3.13a3.93,3.93,0,0,1,4.15,3.68,4.36,4.36,0,0,1-4,4.48c-2.44.1-4.88.11-7.31.19-.53,0-.7-.1-.68-.66q.18-3.43.25-6.85c0-.53.15-.7.68-.69,1.25,0,2.5,0,3.75,0Z"/><path class="cls-129" d="M365.61,32.76a7.67,7.67,0,0,1-5.73,2.17c-.49,0-1,0-1.47.06-1.59,0-1.6,0-1.63-1.47l.33-8.5c.05-1.07.08-2.14.12-3.21,0-.25,0-.53.37-.54a27.43,27.43,0,0,1,4.44-.05,6.18,6.18,0,0,1,5.24,4.16,6.79,6.79,0,0,1-1.18,6.78C366,32.37,365.78,32.56,365.61,32.76Z"/><path class="cls-130" d="M194.11,32.4c-1.05,0-2.09,0-3.14,0-.5,0-.72-.07-.69-.65.11-2,.2-4.05.23-6.07,0-.68.25-.81.86-.81,2,0,4.06-.09,6.09-.11a3.54,3.54,0,0,1,3.31,5,3.87,3.87,0,0,1-3.7,2.44h-3Z"/><path class="cls-78" d="M208.19,45.46c1.79,0,3.58,0,5.37,0a1.5,1.5,0,0,0,1.6-1c.36-.76.08-1.56.18-2.34,0-.38-.14-.8.17-1.14,0,.83,0,1.66,0,2.49a2.46,2.46,0,0,1-.71,2,32.87,32.87,0,0,1-6.19.32,1.09,1.09,0,0,1-.78-.32Z"/><path class="cls-87" d="M157.09,41.1V46a4.06,4.06,0,0,1-.15-2.1A8.76,8.76,0,0,1,157.09,41.1Z"/><path class="cls-87" d="M157.78,46.68h4.74A14.23,14.23,0,0,1,157.78,46.68Z"/><path class="cls-87" d="M166.16,39.73c.59-.38,1.24-.14,1.86-.17.84,0,1.68,0,2.52,0a14.94,14.94,0,0,1-3.34.16C166.86,39.75,166.51,39.73,166.16,39.73Z"/><path class="cls-87" d="M165.65,43.57c.09-1.17-.23-2.35.17-3.5A16.44,16.44,0,0,1,165.65,43.57Z"/><path class="cls-87" d="M171.74,39.55a7,7,0,0,1,2.46-.17A7.27,7.27,0,0,1,171.74,39.55Z"/><path class="cls-71" d="M367.21,40.42l.53-.52h0c.47-.33.94-.68,1.4-1h0a.26.26,0,0,1,.3-.07l.07.09A4.43,4.43,0,0,1,367.21,40.42Z"/><path class="cls-71" d="M371.07,37.31a3.59,3.59,0,0,1-1.56,1.57l-.05-.05A4.17,4.17,0,0,1,371,37.25Z"/><path class="cls-71" d="M371.22,36.77c.11-.18.23-.35.35-.53l.52-.35a2.66,2.66,0,0,1-1,1.42l-.05,0C370.88,37,371.06,36.9,371.22,36.77Z"/><path class="cls-131" d="M215.86,40.63c.16-3.9.33-7.79.38-11.69,0-.71.16-1.43.14-2.15,0-.57.23-.77.74-.5a2.74,2.74,0,0,0,1.35.23h6.62c.33,0,.77-.18,1,.17s-.14.66-.31.93c-1.41,2.26-2.84,4.49-4.26,6.74q-2.36,3.73-4.69,7.49c-.18.29-.32.72-.74.59s-.17-.56-.19-.86S215.86,41,215.86,40.63Z"/><path class="cls-78" d="M215.51,40.77c0-1.44,0-2.88,0-4.32,0-.25-.07-.52.17-.72,0,1.46,0,2.93,0,4.4C215.67,40.35,215.72,40.59,215.51,40.77Z"/><path class="cls-118" d="M320.1,38.87a4.32,4.32,0,0,1,1.41,1.41A3,3,0,0,1,320.1,38.87Z"/><path class="cls-69" d="M241.32,31.21c0-1.5,0-3,0-4.49,0-.25-.08-.53.16-.72,0,1.49,0,3,0,4.48C241.48,30.73,241.55,31,241.32,31.21Z"/><path class="cls-69" d="M241.14,36.42c0-1.49,0-3,0-4.49,0-.25-.07-.52.17-.72,0,1.49,0,3,0,4.48C241.3,35.94,241.37,36.22,241.14,36.42Z"/><path class="cls-69" d="M241.49,26c0-1.5,0-3,0-4.49,0-.25-.07-.53.17-.73,0,1.5,0,3,0,4.49C241.65,25.52,241.72,25.79,241.49,26Z"/><path class="cls-69" d="M241.67,20.78c0-.67,0-1.34,0-2,0-.17.11-.54.32-.06-.33.36-.12.8-.18,1.2S241.93,20.53,241.67,20.78Z"/><path class="cls-111" d="M264.16,45.46h2.27A3.17,3.17,0,0,1,264.16,45.46Z"/><path class="cls-127" d="M306.52,21.82a3.72,3.72,0,0,1,1.87-.15c1.18,0,2.36,0,3.55,0-.48.33-1,.14-1.51.15C309.13,21.84,307.82,21.82,306.52,21.82Z"/><path class="cls-101" d="M204.35,36.6v-.2a26.58,26.58,0,0,1,1.75-2.07A5.13,5.13,0,0,1,204.35,36.6Z"/><path class="cls-98" d="M371.22,36.77c-.07.16-.13.33-.2.5l-1.56,1.56-.32,0A13.26,13.26,0,0,1,371.22,36.77Z"/><path class="cls-98" d="M369.14,38.86a2.61,2.61,0,0,1-1.4,1A2.91,2.91,0,0,1,369.14,38.86Z"/><path class="cls-86" d="M166,27.17c0-.78,0-1.56,0-2.33,0-.44.08-.6.56-.61,2,0,4.06-.1,6.08-.15,1.67,0,3.62,1.61,3,3.63a3,3,0,0,0-1.37-2.2,3.77,3.77,0,0,0-2.42-.53l-4.34.13c-1.26,0-1.33.11-1.37,1.34,0,.23,0,.46,0,.69Z"/><path class="cls-132" d="M366.67,28.58a3.83,3.83,0,0,1-.95,2.26,3,3,0,0,1,.32-1.45c.78-2.89-1.89-6.06-5-6-2.67,0-2.26-.21-2.43,2.37s0,5.2-.3,7.78c0,.18,0,.35-.19.45-.23-.2-.16-.48-.17-.73-.12-3,.26-6,.19-9a1.23,1.23,0,0,1,1.31-1.42c3-.21,4.93.43,6.63,3.13C366.71,26.75,366.47,27.71,366.67,28.58Z"/><path class="cls-63" d="M366,26.15A6.22,6.22,0,0,0,359.87,23c-1.19.09-1.55.34-1.53,1.49,0,3.15-.31,6.3-.2,9.45-.27.13-.48.25-.46-.24.15-3.69.32-7.38.33-11.08,0-.23-.09-.61.29-.6a12.08,12.08,0,0,1,3.7.09c-.65.5-1.4.15-2.1.26-.49.09-1-.22-1.47.24,0,.07,0,.21.07.18a7.46,7.46,0,0,1,3.08-.16,5.35,5.35,0,0,1,4.55,3.1A.45.45,0,0,1,366,26.15Z"/><path class="cls-133" d="M366,25.81a6.23,6.23,0,0,0-7.75-2.57c-.15-.17-.08-.37-.07-.57a1.24,1.24,0,0,1,1-.32c1.87-.06,3.74-.1,5.37,1.06a4.29,4.29,0,0,1,1.76,2.22c.09.13.1.29,0,.36S366.07,25.94,366,25.81Z"/><path class="cls-79" d="M364.59,23.41c-.07,0-.18.12-.21.1-1.93-1.28-4.06-1.07-6.19-.84-.12-.48.18-.49.53-.49,1.1,0,2.19,0,3.28,0A4.22,4.22,0,0,1,364.59,23.41Z"/><path class="cls-134" d="M366,25.81c.22.15.33.08.34-.18a4.9,4.9,0,0,1,.32,2.95c-.33-.78-.2-1.68-.67-2.43Z"/><path class="cls-85" d="M191.49,28.29v-.68c0-1.81,0-1.83,1.76-1.89,1.39-.06,2.78-.1,4.17-.06a2.58,2.58,0,0,1,2.56,3.1,3,3,0,0,0-3.48-2.23c-1.07.06-2.15,0-3.22.11C191.74,26.74,191.75,26.75,191.49,28.29Z"/></svg>